ISO-10303-21;
HEADER;
/* Generated by software containing ST-Developer
 * from STEP Tools, Inc. (www.steptools.com) 
 */

FILE_DESCRIPTION(
/* description */ (''),
/* implementation_level */ '2;1');

FILE_NAME(
/* name */ 'SEWCP-400_SUPPORT_RING.step',
/* time_stamp */ '2026-08-11T18:36:10+05:30',
/* author */ (''),
/* organization */ (''),
/* preprocessor_version */ 'ST-DEVELOPER v20.1',
/* originating_system */ 'Autodesk Translation Framework v15.8.0.0',
/* authorisation */ '');

FILE_SCHEMA (('AUTOMOTIVE_DESIGN { 1 0 10303 214 3 1 1 }'));
ENDSEC;

DATA;
#10=MECHANICAL_DESIGN_GEOMETRIC_PRESENTATION_REPRESENTATION('',(#13),#2039);
#11=SHAPE_REPRESENTATION_RELATIONSHIP('SRR','None',#2046,#12);
#12=ADVANCED_BREP_SHAPE_REPRESENTATION('',(#14),#2038);
#13=STYLED_ITEM('',(#2055),#14);
#14=MANIFOLD_SOLID_BREP('SR_BODY',#1111);
#15=FACE_BOUND('',#295,.T.);
#16=FACE_BOUND('',#297,.T.);
#17=FACE_BOUND('',#301,.T.);
#18=FACE_BOUND('',#302,.T.);
#19=FACE_BOUND('',#303,.T.);
#20=FACE_BOUND('',#304,.T.);
#21=FACE_BOUND('',#305,.T.);
#22=FACE_BOUND('',#306,.T.);
#23=FACE_BOUND('',#307,.T.);
#24=FACE_BOUND('',#308,.T.);
#25=FACE_BOUND('',#309,.T.);
#26=FACE_BOUND('',#310,.T.);
#27=FACE_BOUND('',#311,.T.);
#28=FACE_BOUND('',#312,.T.);
#29=FACE_BOUND('',#316,.T.);
#30=FACE_BOUND('',#320,.T.);
#31=FACE_BOUND('',#322,.T.);
#32=FACE_BOUND('',#323,.T.);
#33=FACE_BOUND('',#324,.T.);
#34=FACE_BOUND('',#325,.T.);
#35=FACE_BOUND('',#326,.T.);
#36=FACE_BOUND('',#327,.T.);
#37=FACE_BOUND('',#328,.T.);
#38=FACE_BOUND('',#329,.T.);
#39=FACE_BOUND('',#330,.T.);
#40=CIRCLE('',#1127,0.302500013297997);
#41=CIRCLE('',#1128,0.302500013297997);
#42=CIRCLE('',#1131,0.302500013298);
#43=CIRCLE('',#1132,0.302500013298);
#44=CIRCLE('',#1136,0.3025);
#45=CIRCLE('',#1137,0.3025);
#46=CIRCLE('',#1140,0.3025);
#47=CIRCLE('',#1141,0.3025);
#48=CIRCLE('',#1145,0.302500013298001);
#49=CIRCLE('',#1146,0.302500013298001);
#50=CIRCLE('',#1149,0.302500013297998);
#51=CIRCLE('',#1150,0.302500013297998);
#52=CIRCLE('',#1153,15.);
#53=CIRCLE('',#1154,0.35);
#54=CIRCLE('',#1155,0.35);
#55=CIRCLE('',#1157,0.35);
#56=CIRCLE('',#1158,0.35);
#57=CIRCLE('',#1160,0.35);
#58=CIRCLE('',#1161,0.35);
#59=CIRCLE('',#1162,0.35);
#60=CIRCLE('',#1163,0.35);
#61=CIRCLE('',#1165,15.);
#62=CIRCLE('',#1167,0.35);
#63=CIRCLE('',#1168,0.35);
#64=CIRCLE('',#1169,0.35);
#65=CIRCLE('',#1170,0.35);
#66=CIRCLE('',#1172,15.);
#67=CIRCLE('',#1174,15.);
#68=CIRCLE('',#1175,0.35);
#69=CIRCLE('',#1176,0.35);
#70=CIRCLE('',#1178,0.35);
#71=CIRCLE('',#1179,0.35);
#72=CIRCLE('',#1181,0.35);
#73=CIRCLE('',#1182,0.35);
#74=CIRCLE('',#1183,0.35);
#75=CIRCLE('',#1184,0.35);
#76=CIRCLE('',#1186,15.);
#77=CIRCLE('',#1188,15.);
#78=CIRCLE('',#1189,0.35);
#79=CIRCLE('',#1190,0.35);
#80=CIRCLE('',#1192,0.35);
#81=CIRCLE('',#1193,0.35);
#82=CIRCLE('',#1195,0.35);
#83=CIRCLE('',#1196,0.35);
#84=CIRCLE('',#1197,0.35);
#85=CIRCLE('',#1198,0.35);
#86=CIRCLE('',#1200,15.);
#87=CIRCLE('',#1202,15.);
#88=CIRCLE('',#1203,0.35);
#89=CIRCLE('',#1204,0.35);
#90=CIRCLE('',#1206,0.35);
#91=CIRCLE('',#1207,0.35);
#92=CIRCLE('',#1209,15.);
#93=CIRCLE('',#1210,0.35);
#94=CIRCLE('',#1211,0.35);
#95=CIRCLE('',#1213,0.35);
#96=CIRCLE('',#1214,0.35);
#97=CIRCLE('',#1216,0.35);
#98=CIRCLE('',#1217,0.35);
#99=CIRCLE('',#1218,0.35);
#100=CIRCLE('',#1219,0.35);
#101=CIRCLE('',#1221,15.);
#102=CIRCLE('',#1223,0.35);
#103=CIRCLE('',#1224,0.35);
#104=CIRCLE('',#1225,0.35);
#105=CIRCLE('',#1226,0.35);
#106=CIRCLE('',#1228,15.);
#107=CIRCLE('',#1230,15.);
#108=CIRCLE('',#1231,0.35);
#109=CIRCLE('',#1232,0.35);
#110=CIRCLE('',#1234,0.35);
#111=CIRCLE('',#1235,0.35);
#112=CIRCLE('',#1237,0.35);
#113=CIRCLE('',#1238,0.35);
#114=CIRCLE('',#1239,0.35);
#115=CIRCLE('',#1240,0.35);
#116=CIRCLE('',#1242,15.);
#117=CIRCLE('',#1244,15.);
#118=CIRCLE('',#1245,0.35);
#119=CIRCLE('',#1246,0.35);
#120=CIRCLE('',#1248,0.35);
#121=CIRCLE('',#1249,0.35);
#122=CIRCLE('',#1251,0.35);
#123=CIRCLE('',#1252,0.35);
#124=CIRCLE('',#1253,0.35);
#125=CIRCLE('',#1254,0.35);
#126=CIRCLE('',#1256,15.);
#127=CIRCLE('',#1258,15.);
#128=CIRCLE('',#1259,0.35);
#129=CIRCLE('',#1260,0.35);
#130=CIRCLE('',#1262,0.35);
#131=CIRCLE('',#1263,0.35);
#132=CIRCLE('',#1265,15.9);
#133=CIRCLE('',#1266,15.);
#134=CIRCLE('',#1267,15.);
#135=CIRCLE('',#1268,15.);
#136=CIRCLE('',#1269,15.);
#137=CIRCLE('',#1270,15.);
#138=CIRCLE('',#1271,15.);
#139=CIRCLE('',#1272,15.);
#140=CIRCLE('',#1273,15.);
#141=CIRCLE('',#1274,15.);
#142=CIRCLE('',#1276,14.7);
#143=CIRCLE('',#1277,14.3);
#144=CIRCLE('',#1279,14.3);
#145=CIRCLE('',#1281,15.9);
#146=CIRCLE('',#1284,14.7);
#147=CIRCLE('',#1286,15.);
#148=CIRCLE('',#1287,15.);
#149=CIRCLE('',#1288,15.);
#150=CIRCLE('',#1289,15.);
#151=CIRCLE('',#1290,15.);
#152=CIRCLE('',#1291,15.);
#153=CIRCLE('',#1292,15.);
#154=CIRCLE('',#1293,15.);
#155=CIRCLE('',#1294,15.);
#156=CIRCLE('',#1296,15.9);
#157=CIRCLE('',#1298,14.3);
#158=CIRCLE('',#1299,14.3);
#159=CIRCLE('',#1301,15.9);
#160=CYLINDRICAL_SURFACE('',#1126,0.302500013297997);
#161=CYLINDRICAL_SURFACE('',#1130,0.302500013298);
#162=CYLINDRICAL_SURFACE('',#1135,0.3025);
#163=CYLINDRICAL_SURFACE('',#1139,0.3025);
#164=CYLINDRICAL_SURFACE('',#1144,0.302500013298001);
#165=CYLINDRICAL_SURFACE('',#1148,0.302500013297998);
#166=CYLINDRICAL_SURFACE('',#1156,0.35);
#167=CYLINDRICAL_SURFACE('',#1159,0.35);
#168=CYLINDRICAL_SURFACE('',#1166,0.35);
#169=CYLINDRICAL_SURFACE('',#1177,0.35);
#170=CYLINDRICAL_SURFACE('',#1180,0.35);
#171=CYLINDRICAL_SURFACE('',#1191,0.35);
#172=CYLINDRICAL_SURFACE('',#1194,0.35);
#173=CYLINDRICAL_SURFACE('',#1205,0.35);
#174=CYLINDRICAL_SURFACE('',#1212,0.35);
#175=CYLINDRICAL_SURFACE('',#1215,0.35);
#176=CYLINDRICAL_SURFACE('',#1222,0.35);
#177=CYLINDRICAL_SURFACE('',#1233,0.35);
#178=CYLINDRICAL_SURFACE('',#1236,0.35);
#179=CYLINDRICAL_SURFACE('',#1247,0.35);
#180=CYLINDRICAL_SURFACE('',#1250,0.35);
#181=CYLINDRICAL_SURFACE('',#1261,0.35);
#182=CYLINDRICAL_SURFACE('',#1278,14.3);
#183=CYLINDRICAL_SURFACE('',#1280,15.9);
#184=CYLINDRICAL_SURFACE('',#1283,14.7);
#185=CYLINDRICAL_SURFACE('',#1285,15.);
#186=CYLINDRICAL_SURFACE('',#1297,14.3);
#187=CYLINDRICAL_SURFACE('',#1300,15.9);
#188=FACE_OUTER_BOUND('',#247,.T.);
#189=FACE_OUTER_BOUND('',#248,.T.);
#190=FACE_OUTER_BOUND('',#249,.T.);
#191=FACE_OUTER_BOUND('',#250,.T.);
#192=FACE_OUTER_BOUND('',#251,.T.);
#193=FACE_OUTER_BOUND('',#252,.T.);
#194=FACE_OUTER_BOUND('',#253,.T.);
#195=FACE_OUTER_BOUND('',#254,.T.);
#196=FACE_OUTER_BOUND('',#255,.T.);
#197=FACE_OUTER_BOUND('',#256,.T.);
#198=FACE_OUTER_BOUND('',#257,.T.);
#199=FACE_OUTER_BOUND('',#258,.T.);
#200=FACE_OUTER_BOUND('',#259,.T.);
#201=FACE_OUTER_BOUND('',#260,.T.);
#202=FACE_OUTER_BOUND('',#261,.T.);
#203=FACE_OUTER_BOUND('',#262,.T.);
#204=FACE_OUTER_BOUND('',#263,.T.);
#205=FACE_OUTER_BOUND('',#264,.T.);
#206=FACE_OUTER_BOUND('',#265,.T.);
#207=FACE_OUTER_BOUND('',#266,.T.);
#208=FACE_OUTER_BOUND('',#267,.T.);
#209=FACE_OUTER_BOUND('',#268,.T.);
#210=FACE_OUTER_BOUND('',#269,.T.);
#211=FACE_OUTER_BOUND('',#270,.T.);
#212=FACE_OUTER_BOUND('',#271,.T.);
#213=FACE_OUTER_BOUND('',#272,.T.);
#214=FACE_OUTER_BOUND('',#273,.T.);
#215=FACE_OUTER_BOUND('',#274,.T.);
#216=FACE_OUTER_BOUND('',#275,.T.);
#217=FACE_OUTER_BOUND('',#276,.T.);
#218=FACE_OUTER_BOUND('',#277,.T.);
#219=FACE_OUTER_BOUND('',#278,.T.);
#220=FACE_OUTER_BOUND('',#279,.T.);
#221=FACE_OUTER_BOUND('',#280,.T.);
#222=FACE_OUTER_BOUND('',#281,.T.);
#223=FACE_OUTER_BOUND('',#282,.T.);
#224=FACE_OUTER_BOUND('',#283,.T.);
#225=FACE_OUTER_BOUND('',#284,.T.);
#226=FACE_OUTER_BOUND('',#285,.T.);
#227=FACE_OUTER_BOUND('',#286,.T.);
#228=FACE_OUTER_BOUND('',#287,.T.);
#229=FACE_OUTER_BOUND('',#288,.T.);
#230=FACE_OUTER_BOUND('',#289,.T.);
#231=FACE_OUTER_BOUND('',#290,.T.);
#232=FACE_OUTER_BOUND('',#291,.T.);
#233=FACE_OUTER_BOUND('',#292,.T.);
#234=FACE_OUTER_BOUND('',#293,.T.);
#235=FACE_OUTER_BOUND('',#294,.T.);
#236=FACE_OUTER_BOUND('',#296,.T.);
#237=FACE_OUTER_BOUND('',#298,.T.);
#238=FACE_OUTER_BOUND('',#299,.T.);
#239=FACE_OUTER_BOUND('',#300,.T.);
#240=FACE_OUTER_BOUND('',#313,.T.);
#241=FACE_OUTER_BOUND('',#314,.T.);
#242=FACE_OUTER_BOUND('',#315,.T.);
#243=FACE_OUTER_BOUND('',#317,.T.);
#244=FACE_OUTER_BOUND('',#318,.T.);
#245=FACE_OUTER_BOUND('',#319,.T.);
#246=FACE_OUTER_BOUND('',#321,.T.);
#247=EDGE_LOOP('',(#689,#690,#691,#692));
#248=EDGE_LOOP('',(#693,#694,#695,#696));
#249=EDGE_LOOP('',(#697,#698,#699,#700));
#250=EDGE_LOOP('',(#701,#702,#703,#704));
#251=EDGE_LOOP('',(#705,#706,#707,#708));
#252=EDGE_LOOP('',(#709,#710,#711,#712));
#253=EDGE_LOOP('',(#713,#714,#715,#716));
#254=EDGE_LOOP('',(#717,#718,#719,#720));
#255=EDGE_LOOP('',(#721,#722,#723,#724));
#256=EDGE_LOOP('',(#725,#726,#727,#728));
#257=EDGE_LOOP('',(#729,#730,#731,#732));
#258=EDGE_LOOP('',(#733,#734,#735,#736));
#259=EDGE_LOOP('',(#737,#738,#739,#740));
#260=EDGE_LOOP('',(#741,#742,#743,#744));
#261=EDGE_LOOP('',(#745,#746,#747,#748));
#262=EDGE_LOOP('',(#749,#750,#751));
#263=EDGE_LOOP('',(#752,#753,#754,#755,#756,#757));
#264=EDGE_LOOP('',(#758,#759,#760,#761,#762,#763));
#265=EDGE_LOOP('',(#764,#765));
#266=EDGE_LOOP('',(#766,#767,#768,#769,#770,#771));
#267=EDGE_LOOP('',(#772,#773));
#268=EDGE_LOOP('',(#774,#775,#776));
#269=EDGE_LOOP('',(#777,#778,#779,#780,#781,#782));
#270=EDGE_LOOP('',(#783,#784,#785,#786,#787,#788));
#271=EDGE_LOOP('',(#789,#790));
#272=EDGE_LOOP('',(#791,#792,#793));
#273=EDGE_LOOP('',(#794,#795,#796,#797,#798,#799));
#274=EDGE_LOOP('',(#800,#801,#802,#803,#804,#805));
#275=EDGE_LOOP('',(#806,#807));
#276=EDGE_LOOP('',(#808,#809,#810));
#277=EDGE_LOOP('',(#811,#812,#813,#814,#815,#816));
#278=EDGE_LOOP('',(#817,#818,#819));
#279=EDGE_LOOP('',(#820,#821,#822,#823,#824,#825));
#280=EDGE_LOOP('',(#826,#827,#828,#829,#830,#831));
#281=EDGE_LOOP('',(#832,#833));
#282=EDGE_LOOP('',(#834,#835,#836,#837,#838,#839));
#283=EDGE_LOOP('',(#840,#841));
#284=EDGE_LOOP('',(#842,#843,#844));
#285=EDGE_LOOP('',(#845,#846,#847,#848,#849,#850));
#286=EDGE_LOOP('',(#851,#852,#853,#854,#855,#856));
#287=EDGE_LOOP('',(#857,#858));
#288=EDGE_LOOP('',(#859,#860,#861));
#289=EDGE_LOOP('',(#862,#863,#864,#865,#866,#867));
#290=EDGE_LOOP('',(#868,#869,#870,#871,#872,#873));
#291=EDGE_LOOP('',(#874,#875));
#292=EDGE_LOOP('',(#876,#877,#878));
#293=EDGE_LOOP('',(#879,#880,#881,#882,#883,#884));
#294=EDGE_LOOP('',(#885));
#295=EDGE_LOOP('',(#886,#887,#888,#889,#890,#891,#892,#893,#894,#895,#896,
#897,#898,#899,#900,#901,#902,#903,#904,#905,#906));
#296=EDGE_LOOP('',(#907));
#297=EDGE_LOOP('',(#908));
#298=EDGE_LOOP('',(#909,#910,#911,#912));
#299=EDGE_LOOP('',(#913,#914,#915,#916));
#300=EDGE_LOOP('',(#917));
#301=EDGE_LOOP('',(#918));
#302=EDGE_LOOP('',(#919));
#303=EDGE_LOOP('',(#920));
#304=EDGE_LOOP('',(#921));
#305=EDGE_LOOP('',(#922));
#306=EDGE_LOOP('',(#923));
#307=EDGE_LOOP('',(#924));
#308=EDGE_LOOP('',(#925));
#309=EDGE_LOOP('',(#926));
#310=EDGE_LOOP('',(#927,#928,#929,#930));
#311=EDGE_LOOP('',(#931,#932,#933,#934));
#312=EDGE_LOOP('',(#935,#936,#937,#938));
#313=EDGE_LOOP('',(#939,#940,#941,#942));
#314=EDGE_LOOP('',(#943,#944,#945,#946,#947,#948,#949,#950,#951,#952,#953,
#954,#955,#956,#957,#958,#959,#960,#961,#962,#963,#964,#965,#966,#967,#968,
#969,#970,#971,#972,#973,#974,#975,#976,#977,#978));
#315=EDGE_LOOP('',(#979));
#316=EDGE_LOOP('',(#980,#981,#982,#983,#984,#985,#986,#987,#988,#989,#990,
#991,#992,#993,#994,#995,#996,#997,#998,#999,#1000));
#317=EDGE_LOOP('',(#1001,#1002,#1003,#1004));
#318=EDGE_LOOP('',(#1005,#1006,#1007,#1008));
#319=EDGE_LOOP('',(#1009));
#320=EDGE_LOOP('',(#1010));
#321=EDGE_LOOP('',(#1011));
#322=EDGE_LOOP('',(#1012));
#323=EDGE_LOOP('',(#1013));
#324=EDGE_LOOP('',(#1014));
#325=EDGE_LOOP('',(#1015));
#326=EDGE_LOOP('',(#1016));
#327=EDGE_LOOP('',(#1017));
#328=EDGE_LOOP('',(#1018));
#329=EDGE_LOOP('',(#1019));
#330=EDGE_LOOP('',(#1020));
#331=LINE('',#1714,#377);
#332=LINE('',#1716,#378);
#333=LINE('',#1718,#379);
#334=LINE('',#1719,#380);
#335=LINE('',#1724,#381);
#336=LINE('',#1728,#382);
#337=LINE('',#1730,#383);
#338=LINE('',#1731,#384);
#339=LINE('',#1739,#385);
#340=LINE('',#1741,#386);
#341=LINE('',#1743,#387);
#342=LINE('',#1744,#388);
#343=LINE('',#1749,#389);
#344=LINE('',#1753,#390);
#345=LINE('',#1755,#391);
#346=LINE('',#1756,#392);
#347=LINE('',#1764,#393);
#348=LINE('',#1766,#394);
#349=LINE('',#1768,#395);
#350=LINE('',#1769,#396);
#351=LINE('',#1774,#397);
#352=LINE('',#1778,#398);
#353=LINE('',#1780,#399);
#354=LINE('',#1781,#400);
#355=LINE('',#1796,#401);
#356=LINE('',#1806,#402);
#357=LINE('',#1818,#403);
#358=LINE('',#1832,#404);
#359=LINE('',#1842,#405);
#360=LINE('',#1856,#406);
#361=LINE('',#1866,#407);
#362=LINE('',#1880,#408);
#363=LINE('',#1892,#409);
#364=LINE('',#1898,#410);
#365=LINE('',#1910,#411);
#366=LINE('',#1928,#412);
#367=LINE('',#1934,#413);
#368=LINE('',#1952,#414);
#369=LINE('',#1958,#415);
#370=LINE('',#1976,#416);
#371=LINE('',#1999,#417);
#372=LINE('',#2003,#418);
#373=LINE('',#2007,#419);
#374=LINE('',#2011,#420);
#375=LINE('',#2028,#421);
#376=LINE('',#2032,#422);
#377=VECTOR('',#1308,1.);
#378=VECTOR('',#1309,1.);
#379=VECTOR('',#1310,1.);
#380=VECTOR('',#1311,1.);
#381=VECTOR('',#1316,1.);
#382=VECTOR('',#1321,1.);
#383=VECTOR('',#1322,1.);
#384=VECTOR('',#1323,1.);
#385=VECTOR('',#1334,1.);
#386=VECTOR('',#1335,1.);
#387=VECTOR('',#1336,1.);
#388=VECTOR('',#1337,1.);
#389=VECTOR('',#1342,1.);
#390=VECTOR('',#1347,1.);
#391=VECTOR('',#1348,1.);
#392=VECTOR('',#1349,1.);
#393=VECTOR('',#1360,1.);
#394=VECTOR('',#1361,1.);
#395=VECTOR('',#1362,1.);
#396=VECTOR('',#1363,1.);
#397=VECTOR('',#1368,1.);
#398=VECTOR('',#1373,1.);
#399=VECTOR('',#1374,1.);
#400=VECTOR('',#1375,1.);
#401=VECTOR('',#1396,0.35);
#402=VECTOR('',#1407,0.35);
#403=VECTOR('',#1422,0.35);
#404=VECTOR('',#1441,0.35);
#405=VECTOR('',#1452,0.35);
#406=VECTOR('',#1471,0.35);
#407=VECTOR('',#1482,0.35);
#408=VECTOR('',#1501,0.35);
#409=VECTOR('',#1516,0.35);
#410=VECTOR('',#1523,0.35);
#411=VECTOR('',#1538,0.35);
#412=VECTOR('',#1561,0.35);
#413=VECTOR('',#1568,0.35);
#414=VECTOR('',#1591,0.35);
#415=VECTOR('',#1598,0.35);
#416=VECTOR('',#1621,0.35);
#417=VECTOR('',#1656,14.3);
#418=VECTOR('',#1661,15.9);
#419=VECTOR('',#1666,14.7);
#420=VECTOR('',#1671,15.);
#421=VECTOR('',#1698,14.3);
#422=VECTOR('',#1703,15.9);
#423=VERTEX_POINT('',#1712);
#424=VERTEX_POINT('',#1713);
#425=VERTEX_POINT('',#1715);
#426=VERTEX_POINT('',#1717);
#427=VERTEX_POINT('',#1721);
#428=VERTEX_POINT('',#1723);
#429=VERTEX_POINT('',#1727);
#430=VERTEX_POINT('',#1729);
#431=VERTEX_POINT('',#1737);
#432=VERTEX_POINT('',#1738);
#433=VERTEX_POINT('',#1740);
#434=VERTEX_POINT('',#1742);
#435=VERTEX_POINT('',#1746);
#436=VERTEX_POINT('',#1748);
#437=VERTEX_POINT('',#1752);
#438=VERTEX_POINT('',#1754);
#439=VERTEX_POINT('',#1762);
#440=VERTEX_POINT('',#1763);
#441=VERTEX_POINT('',#1765);
#442=VERTEX_POINT('',#1767);
#443=VERTEX_POINT('',#1771);
#444=VERTEX_POINT('',#1773);
#445=VERTEX_POINT('',#1777);
#446=VERTEX_POINT('',#1779);
#447=VERTEX_POINT('',#1787);
#448=VERTEX_POINT('',#1788);
#449=VERTEX_POINT('',#1790);
#450=VERTEX_POINT('',#1795);
#451=VERTEX_POINT('',#1799);
#452=VERTEX_POINT('',#1800);
#453=VERTEX_POINT('',#1802);
#454=VERTEX_POINT('',#1805);
#455=VERTEX_POINT('',#1811);
#456=VERTEX_POINT('',#1812);
#457=VERTEX_POINT('',#1814);
#458=VERTEX_POINT('',#1817);
#459=VERTEX_POINT('',#1823);
#460=VERTEX_POINT('',#1824);
#461=VERTEX_POINT('',#1826);
#462=VERTEX_POINT('',#1831);
#463=VERTEX_POINT('',#1835);
#464=VERTEX_POINT('',#1836);
#465=VERTEX_POINT('',#1838);
#466=VERTEX_POINT('',#1841);
#467=VERTEX_POINT('',#1847);
#468=VERTEX_POINT('',#1848);
#469=VERTEX_POINT('',#1850);
#470=VERTEX_POINT('',#1855);
#471=VERTEX_POINT('',#1859);
#472=VERTEX_POINT('',#1860);
#473=VERTEX_POINT('',#1862);
#474=VERTEX_POINT('',#1865);
#475=VERTEX_POINT('',#1871);
#476=VERTEX_POINT('',#1872);
#477=VERTEX_POINT('',#1874);
#478=VERTEX_POINT('',#1879);
#479=VERTEX_POINT('',#1883);
#480=VERTEX_POINT('',#1884);
#481=VERTEX_POINT('',#1886);
#482=VERTEX_POINT('',#1890);
#483=VERTEX_POINT('',#1895);
#484=VERTEX_POINT('',#1897);
#485=VERTEX_POINT('',#1899);
#486=VERTEX_POINT('',#1901);
#487=VERTEX_POINT('',#1907);
#488=VERTEX_POINT('',#1909);
#489=VERTEX_POINT('',#1911);
#490=VERTEX_POINT('',#1913);
#491=VERTEX_POINT('',#1919);
#492=VERTEX_POINT('',#1920);
#493=VERTEX_POINT('',#1922);
#494=VERTEX_POINT('',#1926);
#495=VERTEX_POINT('',#1931);
#496=VERTEX_POINT('',#1933);
#497=VERTEX_POINT('',#1935);
#498=VERTEX_POINT('',#1937);
#499=VERTEX_POINT('',#1943);
#500=VERTEX_POINT('',#1944);
#501=VERTEX_POINT('',#1946);
#502=VERTEX_POINT('',#1950);
#503=VERTEX_POINT('',#1955);
#504=VERTEX_POINT('',#1957);
#505=VERTEX_POINT('',#1959);
#506=VERTEX_POINT('',#1961);
#507=VERTEX_POINT('',#1967);
#508=VERTEX_POINT('',#1968);
#509=VERTEX_POINT('',#1970);
#510=VERTEX_POINT('',#1974);
#511=VERTEX_POINT('',#1979);
#512=VERTEX_POINT('',#1982);
#513=VERTEX_POINT('',#1992);
#514=VERTEX_POINT('',#1994);
#515=VERTEX_POINT('',#1997);
#516=VERTEX_POINT('',#2001);
#517=VERTEX_POINT('',#2006);
#518=VERTEX_POINT('',#2010);
#519=VERTEX_POINT('',#2022);
#520=VERTEX_POINT('',#2025);
#521=VERTEX_POINT('',#2027);
#522=VERTEX_POINT('',#2031);
#523=EDGE_CURVE('',#423,#424,#331,.T.);
#524=EDGE_CURVE('',#423,#425,#332,.T.);
#525=EDGE_CURVE('',#425,#426,#333,.T.);
#526=EDGE_CURVE('',#424,#426,#334,.T.);
#527=EDGE_CURVE('',#427,#423,#40,.T.);
#528=EDGE_CURVE('',#427,#428,#335,.T.);
#529=EDGE_CURVE('',#428,#425,#41,.T.);
#530=EDGE_CURVE('',#429,#427,#336,.T.);
#531=EDGE_CURVE('',#429,#430,#337,.T.);
#532=EDGE_CURVE('',#430,#428,#338,.T.);
#533=EDGE_CURVE('',#424,#429,#42,.T.);
#534=EDGE_CURVE('',#426,#430,#43,.T.);
#535=EDGE_CURVE('',#431,#432,#339,.T.);
#536=EDGE_CURVE('',#431,#433,#340,.T.);
#537=EDGE_CURVE('',#433,#434,#341,.T.);
#538=EDGE_CURVE('',#432,#434,#342,.T.);
#539=EDGE_CURVE('',#435,#431,#44,.T.);
#540=EDGE_CURVE('',#435,#436,#343,.T.);
#541=EDGE_CURVE('',#436,#433,#45,.T.);
#542=EDGE_CURVE('',#437,#435,#344,.T.);
#543=EDGE_CURVE('',#437,#438,#345,.T.);
#544=EDGE_CURVE('',#438,#436,#346,.T.);
#545=EDGE_CURVE('',#432,#437,#46,.T.);
#546=EDGE_CURVE('',#434,#438,#47,.T.);
#547=EDGE_CURVE('',#439,#440,#347,.T.);
#548=EDGE_CURVE('',#439,#441,#348,.T.);
#549=EDGE_CURVE('',#441,#442,#349,.T.);
#550=EDGE_CURVE('',#440,#442,#350,.T.);
#551=EDGE_CURVE('',#443,#439,#48,.T.);
#552=EDGE_CURVE('',#443,#444,#351,.T.);
#553=EDGE_CURVE('',#444,#441,#49,.T.);
#554=EDGE_CURVE('',#445,#443,#352,.T.);
#555=EDGE_CURVE('',#445,#446,#353,.T.);
#556=EDGE_CURVE('',#446,#444,#354,.T.);
#557=EDGE_CURVE('',#440,#445,#50,.T.);
#558=EDGE_CURVE('',#442,#446,#51,.T.);
#559=EDGE_CURVE('',#447,#448,#52,.T.);
#560=EDGE_CURVE('',#448,#449,#53,.T.);
#561=EDGE_CURVE('',#449,#447,#54,.T.);
#562=EDGE_CURVE('',#447,#448,#55,.T.);
#563=EDGE_CURVE('',#449,#450,#355,.T.);
#564=EDGE_CURVE('',#450,#450,#56,.T.);
#565=EDGE_CURVE('',#451,#452,#57,.T.);
#566=EDGE_CURVE('',#453,#451,#58,.T.);
#567=EDGE_CURVE('',#452,#453,#59,.T.);
#568=EDGE_CURVE('',#452,#454,#356,.T.);
#569=EDGE_CURVE('',#454,#454,#60,.T.);
#570=EDGE_CURVE('',#451,#453,#61,.T.);
#571=EDGE_CURVE('',#455,#456,#62,.T.);
#572=EDGE_CURVE('',#457,#455,#63,.T.);
#573=EDGE_CURVE('',#456,#457,#64,.T.);
#574=EDGE_CURVE('',#456,#458,#357,.T.);
#575=EDGE_CURVE('',#458,#458,#65,.T.);
#576=EDGE_CURVE('',#455,#457,#66,.T.);
#577=EDGE_CURVE('',#459,#460,#67,.T.);
#578=EDGE_CURVE('',#460,#461,#68,.T.);
#579=EDGE_CURVE('',#461,#459,#69,.T.);
#580=EDGE_CURVE('',#459,#460,#70,.T.);
#581=EDGE_CURVE('',#461,#462,#358,.T.);
#582=EDGE_CURVE('',#462,#462,#71,.T.);
#583=EDGE_CURVE('',#463,#464,#72,.T.);
#584=EDGE_CURVE('',#465,#463,#73,.T.);
#585=EDGE_CURVE('',#464,#465,#74,.T.);
#586=EDGE_CURVE('',#464,#466,#359,.T.);
#587=EDGE_CURVE('',#466,#466,#75,.T.);
#588=EDGE_CURVE('',#463,#465,#76,.T.);
#589=EDGE_CURVE('',#467,#468,#77,.T.);
#590=EDGE_CURVE('',#468,#469,#78,.T.);
#591=EDGE_CURVE('',#469,#467,#79,.T.);
#592=EDGE_CURVE('',#467,#468,#80,.T.);
#593=EDGE_CURVE('',#469,#470,#360,.T.);
#594=EDGE_CURVE('',#470,#470,#81,.T.);
#595=EDGE_CURVE('',#471,#472,#82,.T.);
#596=EDGE_CURVE('',#473,#471,#83,.T.);
#597=EDGE_CURVE('',#472,#473,#84,.T.);
#598=EDGE_CURVE('',#472,#474,#361,.T.);
#599=EDGE_CURVE('',#474,#474,#85,.T.);
#600=EDGE_CURVE('',#471,#473,#86,.T.);
#601=EDGE_CURVE('',#475,#476,#87,.T.);
#602=EDGE_CURVE('',#476,#477,#88,.T.);
#603=EDGE_CURVE('',#477,#475,#89,.T.);
#604=EDGE_CURVE('',#475,#476,#90,.T.);
#605=EDGE_CURVE('',#477,#478,#362,.T.);
#606=EDGE_CURVE('',#478,#478,#91,.T.);
#607=EDGE_CURVE('',#479,#480,#92,.T.);
#608=EDGE_CURVE('',#481,#480,#93,.T.);
#609=EDGE_CURVE('',#479,#481,#94,.T.);
#610=EDGE_CURVE('',#482,#482,#95,.T.);
#611=EDGE_CURVE('',#482,#481,#363,.T.);
#612=EDGE_CURVE('',#479,#480,#96,.T.);
#613=EDGE_CURVE('',#483,#483,#97,.T.);
#614=EDGE_CURVE('',#483,#484,#364,.T.);
#615=EDGE_CURVE('',#485,#484,#98,.T.);
#616=EDGE_CURVE('',#485,#486,#99,.T.);
#617=EDGE_CURVE('',#484,#486,#100,.T.);
#618=EDGE_CURVE('',#485,#486,#101,.T.);
#619=EDGE_CURVE('',#487,#487,#102,.T.);
#620=EDGE_CURVE('',#487,#488,#365,.T.);
#621=EDGE_CURVE('',#489,#488,#103,.T.);
#622=EDGE_CURVE('',#489,#490,#104,.T.);
#623=EDGE_CURVE('',#488,#490,#105,.T.);
#624=EDGE_CURVE('',#489,#490,#106,.T.);
#625=EDGE_CURVE('',#491,#492,#107,.T.);
#626=EDGE_CURVE('',#493,#492,#108,.T.);
#627=EDGE_CURVE('',#491,#493,#109,.T.);
#628=EDGE_CURVE('',#494,#494,#110,.T.);
#629=EDGE_CURVE('',#494,#493,#366,.T.);
#630=EDGE_CURVE('',#491,#492,#111,.T.);
#631=EDGE_CURVE('',#495,#495,#112,.T.);
#632=EDGE_CURVE('',#495,#496,#367,.T.);
#633=EDGE_CURVE('',#497,#496,#113,.T.);
#634=EDGE_CURVE('',#497,#498,#114,.T.);
#635=EDGE_CURVE('',#496,#498,#115,.T.);
#636=EDGE_CURVE('',#497,#498,#116,.T.);
#637=EDGE_CURVE('',#499,#500,#117,.T.);
#638=EDGE_CURVE('',#501,#500,#118,.T.);
#639=EDGE_CURVE('',#499,#501,#119,.T.);
#640=EDGE_CURVE('',#502,#502,#120,.T.);
#641=EDGE_CURVE('',#502,#501,#368,.T.);
#642=EDGE_CURVE('',#499,#500,#121,.T.);
#643=EDGE_CURVE('',#503,#503,#122,.T.);
#644=EDGE_CURVE('',#503,#504,#369,.T.);
#645=EDGE_CURVE('',#505,#504,#123,.T.);
#646=EDGE_CURVE('',#505,#506,#124,.T.);
#647=EDGE_CURVE('',#504,#506,#125,.T.);
#648=EDGE_CURVE('',#505,#506,#126,.T.);
#649=EDGE_CURVE('',#507,#508,#127,.T.);
#650=EDGE_CURVE('',#509,#508,#128,.T.);
#651=EDGE_CURVE('',#507,#509,#129,.T.);
#652=EDGE_CURVE('',#510,#510,#130,.T.);
#653=EDGE_CURVE('',#510,#509,#370,.T.);
#654=EDGE_CURVE('',#507,#508,#131,.T.);
#655=EDGE_CURVE('',#511,#511,#132,.T.);
#656=EDGE_CURVE('',#448,#475,#133,.T.);
#657=EDGE_CURVE('',#476,#512,#134,.T.);
#658=EDGE_CURVE('',#512,#467,#135,.T.);
#659=EDGE_CURVE('',#468,#459,#136,.T.);
#660=EDGE_CURVE('',#460,#463,#137,.T.);
#661=EDGE_CURVE('',#465,#455,#138,.T.);
#662=EDGE_CURVE('',#457,#451,#139,.T.);
#663=EDGE_CURVE('',#453,#471,#140,.T.);
#664=EDGE_CURVE('',#473,#447,#141,.T.);
#665=EDGE_CURVE('',#513,#513,#142,.T.);
#666=EDGE_CURVE('',#514,#514,#143,.T.);
#667=EDGE_CURVE('',#515,#515,#144,.T.);
#668=EDGE_CURVE('',#515,#514,#371,.T.);
#669=EDGE_CURVE('',#516,#516,#145,.T.);
#670=EDGE_CURVE('',#516,#511,#372,.T.);
#671=EDGE_CURVE('',#513,#517,#373,.T.);
#672=EDGE_CURVE('',#517,#517,#146,.T.);
#673=EDGE_CURVE('',#512,#518,#374,.T.);
#674=EDGE_CURVE('',#500,#518,#147,.T.);
#675=EDGE_CURVE('',#492,#499,#148,.T.);
#676=EDGE_CURVE('',#498,#491,#149,.T.);
#677=EDGE_CURVE('',#490,#497,#150,.T.);
#678=EDGE_CURVE('',#486,#489,#151,.T.);
#679=EDGE_CURVE('',#506,#485,#152,.T.);
#680=EDGE_CURVE('',#480,#505,#153,.T.);
#681=EDGE_CURVE('',#508,#479,#154,.T.);
#682=EDGE_CURVE('',#518,#507,#155,.T.);
#683=EDGE_CURVE('',#519,#519,#156,.T.);
#684=EDGE_CURVE('',#520,#520,#157,.T.);
#685=EDGE_CURVE('',#520,#521,#375,.T.);
#686=EDGE_CURVE('',#521,#521,#158,.T.);
#687=EDGE_CURVE('',#519,#522,#376,.T.);
#688=EDGE_CURVE('',#522,#522,#159,.T.);
#689=ORIENTED_EDGE('',*,*,#523,.F.);
#690=ORIENTED_EDGE('',*,*,#524,.T.);
#691=ORIENTED_EDGE('',*,*,#525,.T.);
#692=ORIENTED_EDGE('',*,*,#526,.F.);
#693=ORIENTED_EDGE('',*,*,#527,.F.);
#694=ORIENTED_EDGE('',*,*,#528,.T.);
#695=ORIENTED_EDGE('',*,*,#529,.T.);
#696=ORIENTED_EDGE('',*,*,#524,.F.);
#697=ORIENTED_EDGE('',*,*,#530,.F.);
#698=ORIENTED_EDGE('',*,*,#531,.T.);
#699=ORIENTED_EDGE('',*,*,#532,.T.);
#700=ORIENTED_EDGE('',*,*,#528,.F.);
#701=ORIENTED_EDGE('',*,*,#533,.F.);
#702=ORIENTED_EDGE('',*,*,#526,.T.);
#703=ORIENTED_EDGE('',*,*,#534,.T.);
#704=ORIENTED_EDGE('',*,*,#531,.F.);
#705=ORIENTED_EDGE('',*,*,#534,.F.);
#706=ORIENTED_EDGE('',*,*,#525,.F.);
#707=ORIENTED_EDGE('',*,*,#529,.F.);
#708=ORIENTED_EDGE('',*,*,#532,.F.);
#709=ORIENTED_EDGE('',*,*,#535,.F.);
#710=ORIENTED_EDGE('',*,*,#536,.T.);
#711=ORIENTED_EDGE('',*,*,#537,.T.);
#712=ORIENTED_EDGE('',*,*,#538,.F.);
#713=ORIENTED_EDGE('',*,*,#539,.F.);
#714=ORIENTED_EDGE('',*,*,#540,.T.);
#715=ORIENTED_EDGE('',*,*,#541,.T.);
#716=ORIENTED_EDGE('',*,*,#536,.F.);
#717=ORIENTED_EDGE('',*,*,#542,.F.);
#718=ORIENTED_EDGE('',*,*,#543,.T.);
#719=ORIENTED_EDGE('',*,*,#544,.T.);
#720=ORIENTED_EDGE('',*,*,#540,.F.);
#721=ORIENTED_EDGE('',*,*,#545,.F.);
#722=ORIENTED_EDGE('',*,*,#538,.T.);
#723=ORIENTED_EDGE('',*,*,#546,.T.);
#724=ORIENTED_EDGE('',*,*,#543,.F.);
#725=ORIENTED_EDGE('',*,*,#546,.F.);
#726=ORIENTED_EDGE('',*,*,#537,.F.);
#727=ORIENTED_EDGE('',*,*,#541,.F.);
#728=ORIENTED_EDGE('',*,*,#544,.F.);
#729=ORIENTED_EDGE('',*,*,#547,.F.);
#730=ORIENTED_EDGE('',*,*,#548,.T.);
#731=ORIENTED_EDGE('',*,*,#549,.T.);
#732=ORIENTED_EDGE('',*,*,#550,.F.);
#733=ORIENTED_EDGE('',*,*,#551,.F.);
#734=ORIENTED_EDGE('',*,*,#552,.T.);
#735=ORIENTED_EDGE('',*,*,#553,.T.);
#736=ORIENTED_EDGE('',*,*,#548,.F.);
#737=ORIENTED_EDGE('',*,*,#554,.F.);
#738=ORIENTED_EDGE('',*,*,#555,.T.);
#739=ORIENTED_EDGE('',*,*,#556,.T.);
#740=ORIENTED_EDGE('',*,*,#552,.F.);
#741=ORIENTED_EDGE('',*,*,#557,.F.);
#742=ORIENTED_EDGE('',*,*,#550,.T.);
#743=ORIENTED_EDGE('',*,*,#558,.T.);
#744=ORIENTED_EDGE('',*,*,#555,.F.);
#745=ORIENTED_EDGE('',*,*,#558,.F.);
#746=ORIENTED_EDGE('',*,*,#549,.F.);
#747=ORIENTED_EDGE('',*,*,#553,.F.);
#748=ORIENTED_EDGE('',*,*,#556,.F.);
#749=ORIENTED_EDGE('',*,*,#559,.T.);
#750=ORIENTED_EDGE('',*,*,#560,.T.);
#751=ORIENTED_EDGE('',*,*,#561,.T.);
#752=ORIENTED_EDGE('',*,*,#560,.F.);
#753=ORIENTED_EDGE('',*,*,#562,.F.);
#754=ORIENTED_EDGE('',*,*,#561,.F.);
#755=ORIENTED_EDGE('',*,*,#563,.T.);
#756=ORIENTED_EDGE('',*,*,#564,.F.);
#757=ORIENTED_EDGE('',*,*,#563,.F.);
#758=ORIENTED_EDGE('',*,*,#565,.F.);
#759=ORIENTED_EDGE('',*,*,#566,.F.);
#760=ORIENTED_EDGE('',*,*,#567,.F.);
#761=ORIENTED_EDGE('',*,*,#568,.T.);
#762=ORIENTED_EDGE('',*,*,#569,.F.);
#763=ORIENTED_EDGE('',*,*,#568,.F.);
#764=ORIENTED_EDGE('',*,*,#570,.T.);
#765=ORIENTED_EDGE('',*,*,#566,.T.);
#766=ORIENTED_EDGE('',*,*,#571,.F.);
#767=ORIENTED_EDGE('',*,*,#572,.F.);
#768=ORIENTED_EDGE('',*,*,#573,.F.);
#769=ORIENTED_EDGE('',*,*,#574,.T.);
#770=ORIENTED_EDGE('',*,*,#575,.F.);
#771=ORIENTED_EDGE('',*,*,#574,.F.);
#772=ORIENTED_EDGE('',*,*,#576,.T.);
#773=ORIENTED_EDGE('',*,*,#572,.T.);
#774=ORIENTED_EDGE('',*,*,#577,.T.);
#775=ORIENTED_EDGE('',*,*,#578,.T.);
#776=ORIENTED_EDGE('',*,*,#579,.T.);
#777=ORIENTED_EDGE('',*,*,#578,.F.);
#778=ORIENTED_EDGE('',*,*,#580,.F.);
#779=ORIENTED_EDGE('',*,*,#579,.F.);
#780=ORIENTED_EDGE('',*,*,#581,.T.);
#781=ORIENTED_EDGE('',*,*,#582,.F.);
#782=ORIENTED_EDGE('',*,*,#581,.F.);
#783=ORIENTED_EDGE('',*,*,#583,.F.);
#784=ORIENTED_EDGE('',*,*,#584,.F.);
#785=ORIENTED_EDGE('',*,*,#585,.F.);
#786=ORIENTED_EDGE('',*,*,#586,.T.);
#787=ORIENTED_EDGE('',*,*,#587,.F.);
#788=ORIENTED_EDGE('',*,*,#586,.F.);
#789=ORIENTED_EDGE('',*,*,#588,.T.);
#790=ORIENTED_EDGE('',*,*,#584,.T.);
#791=ORIENTED_EDGE('',*,*,#589,.T.);
#792=ORIENTED_EDGE('',*,*,#590,.T.);
#793=ORIENTED_EDGE('',*,*,#591,.T.);
#794=ORIENTED_EDGE('',*,*,#590,.F.);
#795=ORIENTED_EDGE('',*,*,#592,.F.);
#796=ORIENTED_EDGE('',*,*,#591,.F.);
#797=ORIENTED_EDGE('',*,*,#593,.T.);
#798=ORIENTED_EDGE('',*,*,#594,.F.);
#799=ORIENTED_EDGE('',*,*,#593,.F.);
#800=ORIENTED_EDGE('',*,*,#595,.F.);
#801=ORIENTED_EDGE('',*,*,#596,.F.);
#802=ORIENTED_EDGE('',*,*,#597,.F.);
#803=ORIENTED_EDGE('',*,*,#598,.T.);
#804=ORIENTED_EDGE('',*,*,#599,.F.);
#805=ORIENTED_EDGE('',*,*,#598,.F.);
#806=ORIENTED_EDGE('',*,*,#600,.T.);
#807=ORIENTED_EDGE('',*,*,#596,.T.);
#808=ORIENTED_EDGE('',*,*,#601,.T.);
#809=ORIENTED_EDGE('',*,*,#602,.T.);
#810=ORIENTED_EDGE('',*,*,#603,.T.);
#811=ORIENTED_EDGE('',*,*,#602,.F.);
#812=ORIENTED_EDGE('',*,*,#604,.F.);
#813=ORIENTED_EDGE('',*,*,#603,.F.);
#814=ORIENTED_EDGE('',*,*,#605,.T.);
#815=ORIENTED_EDGE('',*,*,#606,.F.);
#816=ORIENTED_EDGE('',*,*,#605,.F.);
#817=ORIENTED_EDGE('',*,*,#607,.T.);
#818=ORIENTED_EDGE('',*,*,#608,.F.);
#819=ORIENTED_EDGE('',*,*,#609,.F.);
#820=ORIENTED_EDGE('',*,*,#610,.F.);
#821=ORIENTED_EDGE('',*,*,#611,.T.);
#822=ORIENTED_EDGE('',*,*,#608,.T.);
#823=ORIENTED_EDGE('',*,*,#612,.F.);
#824=ORIENTED_EDGE('',*,*,#609,.T.);
#825=ORIENTED_EDGE('',*,*,#611,.F.);
#826=ORIENTED_EDGE('',*,*,#613,.F.);
#827=ORIENTED_EDGE('',*,*,#614,.T.);
#828=ORIENTED_EDGE('',*,*,#615,.F.);
#829=ORIENTED_EDGE('',*,*,#616,.T.);
#830=ORIENTED_EDGE('',*,*,#617,.F.);
#831=ORIENTED_EDGE('',*,*,#614,.F.);
#832=ORIENTED_EDGE('',*,*,#618,.T.);
#833=ORIENTED_EDGE('',*,*,#616,.F.);
#834=ORIENTED_EDGE('',*,*,#619,.F.);
#835=ORIENTED_EDGE('',*,*,#620,.T.);
#836=ORIENTED_EDGE('',*,*,#621,.F.);
#837=ORIENTED_EDGE('',*,*,#622,.T.);
#838=ORIENTED_EDGE('',*,*,#623,.F.);
#839=ORIENTED_EDGE('',*,*,#620,.F.);
#840=ORIENTED_EDGE('',*,*,#624,.T.);
#841=ORIENTED_EDGE('',*,*,#622,.F.);
#842=ORIENTED_EDGE('',*,*,#625,.T.);
#843=ORIENTED_EDGE('',*,*,#626,.F.);
#844=ORIENTED_EDGE('',*,*,#627,.F.);
#845=ORIENTED_EDGE('',*,*,#628,.F.);
#846=ORIENTED_EDGE('',*,*,#629,.T.);
#847=ORIENTED_EDGE('',*,*,#626,.T.);
#848=ORIENTED_EDGE('',*,*,#630,.F.);
#849=ORIENTED_EDGE('',*,*,#627,.T.);
#850=ORIENTED_EDGE('',*,*,#629,.F.);
#851=ORIENTED_EDGE('',*,*,#631,.F.);
#852=ORIENTED_EDGE('',*,*,#632,.T.);
#853=ORIENTED_EDGE('',*,*,#633,.F.);
#854=ORIENTED_EDGE('',*,*,#634,.T.);
#855=ORIENTED_EDGE('',*,*,#635,.F.);
#856=ORIENTED_EDGE('',*,*,#632,.F.);
#857=ORIENTED_EDGE('',*,*,#636,.T.);
#858=ORIENTED_EDGE('',*,*,#634,.F.);
#859=ORIENTED_EDGE('',*,*,#637,.T.);
#860=ORIENTED_EDGE('',*,*,#638,.F.);
#861=ORIENTED_EDGE('',*,*,#639,.F.);
#862=ORIENTED_EDGE('',*,*,#640,.F.);
#863=ORIENTED_EDGE('',*,*,#641,.T.);
#864=ORIENTED_EDGE('',*,*,#638,.T.);
#865=ORIENTED_EDGE('',*,*,#642,.F.);
#866=ORIENTED_EDGE('',*,*,#639,.T.);
#867=ORIENTED_EDGE('',*,*,#641,.F.);
#868=ORIENTED_EDGE('',*,*,#643,.F.);
#869=ORIENTED_EDGE('',*,*,#644,.T.);
#870=ORIENTED_EDGE('',*,*,#645,.F.);
#871=ORIENTED_EDGE('',*,*,#646,.T.);
#872=ORIENTED_EDGE('',*,*,#647,.F.);
#873=ORIENTED_EDGE('',*,*,#644,.F.);
#874=ORIENTED_EDGE('',*,*,#648,.T.);
#875=ORIENTED_EDGE('',*,*,#646,.F.);
#876=ORIENTED_EDGE('',*,*,#649,.T.);
#877=ORIENTED_EDGE('',*,*,#650,.F.);
#878=ORIENTED_EDGE('',*,*,#651,.F.);
#879=ORIENTED_EDGE('',*,*,#652,.F.);
#880=ORIENTED_EDGE('',*,*,#653,.T.);
#881=ORIENTED_EDGE('',*,*,#650,.T.);
#882=ORIENTED_EDGE('',*,*,#654,.F.);
#883=ORIENTED_EDGE('',*,*,#651,.T.);
#884=ORIENTED_EDGE('',*,*,#653,.F.);
#885=ORIENTED_EDGE('',*,*,#655,.F.);
#886=ORIENTED_EDGE('',*,*,#562,.T.);
#887=ORIENTED_EDGE('',*,*,#656,.T.);
#888=ORIENTED_EDGE('',*,*,#604,.T.);
#889=ORIENTED_EDGE('',*,*,#657,.T.);
#890=ORIENTED_EDGE('',*,*,#658,.T.);
#891=ORIENTED_EDGE('',*,*,#592,.T.);
#892=ORIENTED_EDGE('',*,*,#659,.T.);
#893=ORIENTED_EDGE('',*,*,#580,.T.);
#894=ORIENTED_EDGE('',*,*,#660,.T.);
#895=ORIENTED_EDGE('',*,*,#583,.T.);
#896=ORIENTED_EDGE('',*,*,#585,.T.);
#897=ORIENTED_EDGE('',*,*,#661,.T.);
#898=ORIENTED_EDGE('',*,*,#571,.T.);
#899=ORIENTED_EDGE('',*,*,#573,.T.);
#900=ORIENTED_EDGE('',*,*,#662,.T.);
#901=ORIENTED_EDGE('',*,*,#565,.T.);
#902=ORIENTED_EDGE('',*,*,#567,.T.);
#903=ORIENTED_EDGE('',*,*,#663,.T.);
#904=ORIENTED_EDGE('',*,*,#595,.T.);
#905=ORIENTED_EDGE('',*,*,#597,.T.);
#906=ORIENTED_EDGE('',*,*,#664,.T.);
#907=ORIENTED_EDGE('',*,*,#665,.T.);
#908=ORIENTED_EDGE('',*,*,#666,.F.);
#909=ORIENTED_EDGE('',*,*,#667,.F.);
#910=ORIENTED_EDGE('',*,*,#668,.T.);
#911=ORIENTED_EDGE('',*,*,#666,.T.);
#912=ORIENTED_EDGE('',*,*,#668,.F.);
#913=ORIENTED_EDGE('',*,*,#669,.F.);
#914=ORIENTED_EDGE('',*,*,#670,.T.);
#915=ORIENTED_EDGE('',*,*,#655,.T.);
#916=ORIENTED_EDGE('',*,*,#670,.F.);
#917=ORIENTED_EDGE('',*,*,#669,.T.);
#918=ORIENTED_EDGE('',*,*,#564,.T.);
#919=ORIENTED_EDGE('',*,*,#569,.T.);
#920=ORIENTED_EDGE('',*,*,#575,.T.);
#921=ORIENTED_EDGE('',*,*,#582,.T.);
#922=ORIENTED_EDGE('',*,*,#587,.T.);
#923=ORIENTED_EDGE('',*,*,#594,.T.);
#924=ORIENTED_EDGE('',*,*,#599,.T.);
#925=ORIENTED_EDGE('',*,*,#606,.T.);
#926=ORIENTED_EDGE('',*,*,#667,.T.);
#927=ORIENTED_EDGE('',*,*,#547,.T.);
#928=ORIENTED_EDGE('',*,*,#557,.T.);
#929=ORIENTED_EDGE('',*,*,#554,.T.);
#930=ORIENTED_EDGE('',*,*,#551,.T.);
#931=ORIENTED_EDGE('',*,*,#535,.T.);
#932=ORIENTED_EDGE('',*,*,#545,.T.);
#933=ORIENTED_EDGE('',*,*,#542,.T.);
#934=ORIENTED_EDGE('',*,*,#539,.T.);
#935=ORIENTED_EDGE('',*,*,#523,.T.);
#936=ORIENTED_EDGE('',*,*,#533,.T.);
#937=ORIENTED_EDGE('',*,*,#530,.T.);
#938=ORIENTED_EDGE('',*,*,#527,.T.);
#939=ORIENTED_EDGE('',*,*,#665,.F.);
#940=ORIENTED_EDGE('',*,*,#671,.T.);
#941=ORIENTED_EDGE('',*,*,#672,.F.);
#942=ORIENTED_EDGE('',*,*,#671,.F.);
#943=ORIENTED_EDGE('',*,*,#657,.F.);
#944=ORIENTED_EDGE('',*,*,#601,.F.);
#945=ORIENTED_EDGE('',*,*,#656,.F.);
#946=ORIENTED_EDGE('',*,*,#559,.F.);
#947=ORIENTED_EDGE('',*,*,#664,.F.);
#948=ORIENTED_EDGE('',*,*,#600,.F.);
#949=ORIENTED_EDGE('',*,*,#663,.F.);
#950=ORIENTED_EDGE('',*,*,#570,.F.);
#951=ORIENTED_EDGE('',*,*,#662,.F.);
#952=ORIENTED_EDGE('',*,*,#576,.F.);
#953=ORIENTED_EDGE('',*,*,#661,.F.);
#954=ORIENTED_EDGE('',*,*,#588,.F.);
#955=ORIENTED_EDGE('',*,*,#660,.F.);
#956=ORIENTED_EDGE('',*,*,#577,.F.);
#957=ORIENTED_EDGE('',*,*,#659,.F.);
#958=ORIENTED_EDGE('',*,*,#589,.F.);
#959=ORIENTED_EDGE('',*,*,#658,.F.);
#960=ORIENTED_EDGE('',*,*,#673,.T.);
#961=ORIENTED_EDGE('',*,*,#674,.F.);
#962=ORIENTED_EDGE('',*,*,#637,.F.);
#963=ORIENTED_EDGE('',*,*,#675,.F.);
#964=ORIENTED_EDGE('',*,*,#625,.F.);
#965=ORIENTED_EDGE('',*,*,#676,.F.);
#966=ORIENTED_EDGE('',*,*,#636,.F.);
#967=ORIENTED_EDGE('',*,*,#677,.F.);
#968=ORIENTED_EDGE('',*,*,#624,.F.);
#969=ORIENTED_EDGE('',*,*,#678,.F.);
#970=ORIENTED_EDGE('',*,*,#618,.F.);
#971=ORIENTED_EDGE('',*,*,#679,.F.);
#972=ORIENTED_EDGE('',*,*,#648,.F.);
#973=ORIENTED_EDGE('',*,*,#680,.F.);
#974=ORIENTED_EDGE('',*,*,#607,.F.);
#975=ORIENTED_EDGE('',*,*,#681,.F.);
#976=ORIENTED_EDGE('',*,*,#649,.F.);
#977=ORIENTED_EDGE('',*,*,#682,.F.);
#978=ORIENTED_EDGE('',*,*,#673,.F.);
#979=ORIENTED_EDGE('',*,*,#683,.T.);
#980=ORIENTED_EDGE('',*,*,#612,.T.);
#981=ORIENTED_EDGE('',*,*,#680,.T.);
#982=ORIENTED_EDGE('',*,*,#645,.T.);
#983=ORIENTED_EDGE('',*,*,#647,.T.);
#984=ORIENTED_EDGE('',*,*,#679,.T.);
#985=ORIENTED_EDGE('',*,*,#615,.T.);
#986=ORIENTED_EDGE('',*,*,#617,.T.);
#987=ORIENTED_EDGE('',*,*,#678,.T.);
#988=ORIENTED_EDGE('',*,*,#621,.T.);
#989=ORIENTED_EDGE('',*,*,#623,.T.);
#990=ORIENTED_EDGE('',*,*,#677,.T.);
#991=ORIENTED_EDGE('',*,*,#633,.T.);
#992=ORIENTED_EDGE('',*,*,#635,.T.);
#993=ORIENTED_EDGE('',*,*,#676,.T.);
#994=ORIENTED_EDGE('',*,*,#630,.T.);
#995=ORIENTED_EDGE('',*,*,#675,.T.);
#996=ORIENTED_EDGE('',*,*,#642,.T.);
#997=ORIENTED_EDGE('',*,*,#674,.T.);
#998=ORIENTED_EDGE('',*,*,#682,.T.);
#999=ORIENTED_EDGE('',*,*,#654,.T.);
#1000=ORIENTED_EDGE('',*,*,#681,.T.);
#1001=ORIENTED_EDGE('',*,*,#684,.F.);
#1002=ORIENTED_EDGE('',*,*,#685,.T.);
#1003=ORIENTED_EDGE('',*,*,#686,.T.);
#1004=ORIENTED_EDGE('',*,*,#685,.F.);
#1005=ORIENTED_EDGE('',*,*,#683,.F.);
#1006=ORIENTED_EDGE('',*,*,#687,.T.);
#1007=ORIENTED_EDGE('',*,*,#688,.T.);
#1008=ORIENTED_EDGE('',*,*,#687,.F.);
#1009=ORIENTED_EDGE('',*,*,#672,.T.);
#1010=ORIENTED_EDGE('',*,*,#684,.T.);
#1011=ORIENTED_EDGE('',*,*,#688,.F.);
#1012=ORIENTED_EDGE('',*,*,#686,.F.);
#1013=ORIENTED_EDGE('',*,*,#652,.T.);
#1014=ORIENTED_EDGE('',*,*,#643,.T.);
#1015=ORIENTED_EDGE('',*,*,#640,.T.);
#1016=ORIENTED_EDGE('',*,*,#631,.T.);
#1017=ORIENTED_EDGE('',*,*,#628,.T.);
#1018=ORIENTED_EDGE('',*,*,#619,.T.);
#1019=ORIENTED_EDGE('',*,*,#613,.T.);
#1020=ORIENTED_EDGE('',*,*,#610,.T.);
#1021=PLANE('',#1125);
#1022=PLANE('',#1129);
#1023=PLANE('',#1133);
#1024=PLANE('',#1134);
#1025=PLANE('',#1138);
#1026=PLANE('',#1142);
#1027=PLANE('',#1143);
#1028=PLANE('',#1147);
#1029=PLANE('',#1151);
#1030=PLANE('',#1152);
#1031=PLANE('',#1164);
#1032=PLANE('',#1171);
#1033=PLANE('',#1173);
#1034=PLANE('',#1185);
#1035=PLANE('',#1187);
#1036=PLANE('',#1199);
#1037=PLANE('',#1201);
#1038=PLANE('',#1208);
#1039=PLANE('',#1220);
#1040=PLANE('',#1227);
#1041=PLANE('',#1229);
#1042=PLANE('',#1241);
#1043=PLANE('',#1243);
#1044=PLANE('',#1255);
#1045=PLANE('',#1257);
#1046=PLANE('',#1264);
#1047=PLANE('',#1275);
#1048=PLANE('',#1282);
#1049=PLANE('',#1295);
#1050=PLANE('',#1302);
#1051=PLANE('',#1303);
#1052=ADVANCED_FACE('',(#188),#1021,.F.);
#1053=ADVANCED_FACE('',(#189),#160,.F.);
#1054=ADVANCED_FACE('',(#190),#1022,.F.);
#1055=ADVANCED_FACE('',(#191),#161,.F.);
#1056=ADVANCED_FACE('',(#192),#1023,.T.);
#1057=ADVANCED_FACE('',(#193),#1024,.F.);
#1058=ADVANCED_FACE('',(#194),#162,.F.);
#1059=ADVANCED_FACE('',(#195),#1025,.F.);
#1060=ADVANCED_FACE('',(#196),#163,.F.);
#1061=ADVANCED_FACE('',(#197),#1026,.T.);
#1062=ADVANCED_FACE('',(#198),#1027,.F.);
#1063=ADVANCED_FACE('',(#199),#164,.F.);
#1064=ADVANCED_FACE('',(#200),#1028,.F.);
#1065=ADVANCED_FACE('',(#201),#165,.F.);
#1066=ADVANCED_FACE('',(#202),#1029,.T.);
#1067=ADVANCED_FACE('',(#203),#1030,.T.);
#1068=ADVANCED_FACE('',(#204),#166,.F.);
#1069=ADVANCED_FACE('',(#205),#167,.F.);
#1070=ADVANCED_FACE('',(#206),#1031,.T.);
#1071=ADVANCED_FACE('',(#207),#168,.F.);
#1072=ADVANCED_FACE('',(#208),#1032,.T.);
#1073=ADVANCED_FACE('',(#209),#1033,.T.);
#1074=ADVANCED_FACE('',(#210),#169,.F.);
#1075=ADVANCED_FACE('',(#211),#170,.F.);
#1076=ADVANCED_FACE('',(#212),#1034,.T.);
#1077=ADVANCED_FACE('',(#213),#1035,.T.);
#1078=ADVANCED_FACE('',(#214),#171,.F.);
#1079=ADVANCED_FACE('',(#215),#172,.F.);
#1080=ADVANCED_FACE('',(#216),#1036,.T.);
#1081=ADVANCED_FACE('',(#217),#1037,.T.);
#1082=ADVANCED_FACE('',(#218),#173,.F.);
#1083=ADVANCED_FACE('',(#219),#1038,.F.);
#1084=ADVANCED_FACE('',(#220),#174,.F.);
#1085=ADVANCED_FACE('',(#221),#175,.F.);
#1086=ADVANCED_FACE('',(#222),#1039,.F.);
#1087=ADVANCED_FACE('',(#223),#176,.F.);
#1088=ADVANCED_FACE('',(#224),#1040,.F.);
#1089=ADVANCED_FACE('',(#225),#1041,.F.);
#1090=ADVANCED_FACE('',(#226),#177,.F.);
#1091=ADVANCED_FACE('',(#227),#178,.F.);
#1092=ADVANCED_FACE('',(#228),#1042,.F.);
#1093=ADVANCED_FACE('',(#229),#1043,.F.);
#1094=ADVANCED_FACE('',(#230),#179,.F.);
#1095=ADVANCED_FACE('',(#231),#180,.F.);
#1096=ADVANCED_FACE('',(#232),#1044,.F.);
#1097=ADVANCED_FACE('',(#233),#1045,.F.);
#1098=ADVANCED_FACE('',(#234),#181,.F.);
#1099=ADVANCED_FACE('',(#235,#15),#1046,.F.);
#1100=ADVANCED_FACE('',(#236,#16),#1047,.F.);
#1101=ADVANCED_FACE('',(#237),#182,.F.);
#1102=ADVANCED_FACE('',(#238),#183,.T.);
#1103=ADVANCED_FACE('',(#239,#17,#18,#19,#20,#21,#22,#23,#24,#25,#26,#27,
#28),#1048,.T.);
#1104=ADVANCED_FACE('',(#240),#184,.F.);
#1105=ADVANCED_FACE('',(#241),#185,.T.);
#1106=ADVANCED_FACE('',(#242,#29),#1049,.T.);
#1107=ADVANCED_FACE('',(#243),#186,.F.);
#1108=ADVANCED_FACE('',(#244),#187,.T.);
#1109=ADVANCED_FACE('',(#245,#30),#1050,.T.);
#1110=ADVANCED_FACE('',(#246,#31,#32,#33,#34,#35,#36,#37,#38,#39),#1051,
 .F.);
#1111=CLOSED_SHELL('',(#1052,#1053,#1054,#1055,#1056,#1057,#1058,#1059,
#1060,#1061,#1062,#1063,#1064,#1065,#1066,#1067,#1068,#1069,#1070,#1071,
#1072,#1073,#1074,#1075,#1076,#1077,#1078,#1079,#1080,#1081,#1082,#1083,
#1084,#1085,#1086,#1087,#1088,#1089,#1090,#1091,#1092,#1093,#1094,#1095,
#1096,#1097,#1098,#1099,#1100,#1101,#1102,#1103,#1104,#1105,#1106,#1107,
#1108,#1109,#1110));
#1112=DERIVED_UNIT_ELEMENT(#1114,1.);
#1113=DERIVED_UNIT_ELEMENT(#2041,-3.);
#1114=(
MASS_UNIT()
NAMED_UNIT(*)
SI_UNIT(.KILO.,.GRAM.)
);
#1115=DERIVED_UNIT((#1112,#1113));
#1116=MEASURE_REPRESENTATION_ITEM('density measure',
POSITIVE_RATIO_MEASURE(3900.),#1115);
#1117=PROPERTY_DEFINITION_REPRESENTATION(#1122,#1119);
#1118=PROPERTY_DEFINITION_REPRESENTATION(#1123,#1120);
#1119=REPRESENTATION('material name',(#1121),#2038);
#1120=REPRESENTATION('density',(#1116),#2038);
#1121=DESCRIPTIVE_REPRESENTATION_ITEM('Aluminum Oxide','Aluminum Oxide');
#1122=PROPERTY_DEFINITION('material property','material name',#2048);
#1123=PROPERTY_DEFINITION('material property','density of part',#2048);
#1124=AXIS2_PLACEMENT_3D('',#1710,#1304,#1305);
#1125=AXIS2_PLACEMENT_3D('',#1711,#1306,#1307);
#1126=AXIS2_PLACEMENT_3D('',#1720,#1312,#1313);
#1127=AXIS2_PLACEMENT_3D('',#1722,#1314,#1315);
#1128=AXIS2_PLACEMENT_3D('',#1725,#1317,#1318);
#1129=AXIS2_PLACEMENT_3D('',#1726,#1319,#1320);
#1130=AXIS2_PLACEMENT_3D('',#1732,#1324,#1325);
#1131=AXIS2_PLACEMENT_3D('',#1733,#1326,#1327);
#1132=AXIS2_PLACEMENT_3D('',#1734,#1328,#1329);
#1133=AXIS2_PLACEMENT_3D('',#1735,#1330,#1331);
#1134=AXIS2_PLACEMENT_3D('',#1736,#1332,#1333);
#1135=AXIS2_PLACEMENT_3D('',#1745,#1338,#1339);
#1136=AXIS2_PLACEMENT_3D('',#1747,#1340,#1341);
#1137=AXIS2_PLACEMENT_3D('',#1750,#1343,#1344);
#1138=AXIS2_PLACEMENT_3D('',#1751,#1345,#1346);
#1139=AXIS2_PLACEMENT_3D('',#1757,#1350,#1351);
#1140=AXIS2_PLACEMENT_3D('',#1758,#1352,#1353);
#1141=AXIS2_PLACEMENT_3D('',#1759,#1354,#1355);
#1142=AXIS2_PLACEMENT_3D('',#1760,#1356,#1357);
#1143=AXIS2_PLACEMENT_3D('',#1761,#1358,#1359);
#1144=AXIS2_PLACEMENT_3D('',#1770,#1364,#1365);
#1145=AXIS2_PLACEMENT_3D('',#1772,#1366,#1367);
#1146=AXIS2_PLACEMENT_3D('',#1775,#1369,#1370);
#1147=AXIS2_PLACEMENT_3D('',#1776,#1371,#1372);
#1148=AXIS2_PLACEMENT_3D('',#1782,#1376,#1377);
#1149=AXIS2_PLACEMENT_3D('',#1783,#1378,#1379);
#1150=AXIS2_PLACEMENT_3D('',#1784,#1380,#1381);
#1151=AXIS2_PLACEMENT_3D('',#1785,#1382,#1383);
#1152=AXIS2_PLACEMENT_3D('',#1786,#1384,#1385);
#1153=AXIS2_PLACEMENT_3D('',#1789,#1386,#1387);
#1154=AXIS2_PLACEMENT_3D('',#1791,#1388,#1389);
#1155=AXIS2_PLACEMENT_3D('',#1792,#1390,#1391);
#1156=AXIS2_PLACEMENT_3D('',#1793,#1392,#1393);
#1157=AXIS2_PLACEMENT_3D('',#1794,#1394,#1395);
#1158=AXIS2_PLACEMENT_3D('',#1797,#1397,#1398);
#1159=AXIS2_PLACEMENT_3D('',#1798,#1399,#1400);
#1160=AXIS2_PLACEMENT_3D('',#1801,#1401,#1402);
#1161=AXIS2_PLACEMENT_3D('',#1803,#1403,#1404);
#1162=AXIS2_PLACEMENT_3D('',#1804,#1405,#1406);
#1163=AXIS2_PLACEMENT_3D('',#1807,#1408,#1409);
#1164=AXIS2_PLACEMENT_3D('',#1808,#1410,#1411);
#1165=AXIS2_PLACEMENT_3D('',#1809,#1412,#1413);
#1166=AXIS2_PLACEMENT_3D('',#1810,#1414,#1415);
#1167=AXIS2_PLACEMENT_3D('',#1813,#1416,#1417);
#1168=AXIS2_PLACEMENT_3D('',#1815,#1418,#1419);
#1169=AXIS2_PLACEMENT_3D('',#1816,#1420,#1421);
#1170=AXIS2_PLACEMENT_3D('',#1819,#1423,#1424);
#1171=AXIS2_PLACEMENT_3D('',#1820,#1425,#1426);
#1172=AXIS2_PLACEMENT_3D('',#1821,#1427,#1428);
#1173=AXIS2_PLACEMENT_3D('',#1822,#1429,#1430);
#1174=AXIS2_PLACEMENT_3D('',#1825,#1431,#1432);
#1175=AXIS2_PLACEMENT_3D('',#1827,#1433,#1434);
#1176=AXIS2_PLACEMENT_3D('',#1828,#1435,#1436);
#1177=AXIS2_PLACEMENT_3D('',#1829,#1437,#1438);
#1178=AXIS2_PLACEMENT_3D('',#1830,#1439,#1440);
#1179=AXIS2_PLACEMENT_3D('',#1833,#1442,#1443);
#1180=AXIS2_PLACEMENT_3D('',#1834,#1444,#1445);
#1181=AXIS2_PLACEMENT_3D('',#1837,#1446,#1447);
#1182=AXIS2_PLACEMENT_3D('',#1839,#1448,#1449);
#1183=AXIS2_PLACEMENT_3D('',#1840,#1450,#1451);
#1184=AXIS2_PLACEMENT_3D('',#1843,#1453,#1454);
#1185=AXIS2_PLACEMENT_3D('',#1844,#1455,#1456);
#1186=AXIS2_PLACEMENT_3D('',#1845,#1457,#1458);
#1187=AXIS2_PLACEMENT_3D('',#1846,#1459,#1460);
#1188=AXIS2_PLACEMENT_3D('',#1849,#1461,#1462);
#1189=AXIS2_PLACEMENT_3D('',#1851,#1463,#1464);
#1190=AXIS2_PLACEMENT_3D('',#1852,#1465,#1466);
#1191=AXIS2_PLACEMENT_3D('',#1853,#1467,#1468);
#1192=AXIS2_PLACEMENT_3D('',#1854,#1469,#1470);
#1193=AXIS2_PLACEMENT_3D('',#1857,#1472,#1473);
#1194=AXIS2_PLACEMENT_3D('',#1858,#1474,#1475);
#1195=AXIS2_PLACEMENT_3D('',#1861,#1476,#1477);
#1196=AXIS2_PLACEMENT_3D('',#1863,#1478,#1479);
#1197=AXIS2_PLACEMENT_3D('',#1864,#1480,#1481);
#1198=AXIS2_PLACEMENT_3D('',#1867,#1483,#1484);
#1199=AXIS2_PLACEMENT_3D('',#1868,#1485,#1486);
#1200=AXIS2_PLACEMENT_3D('',#1869,#1487,#1488);
#1201=AXIS2_PLACEMENT_3D('',#1870,#1489,#1490);
#1202=AXIS2_PLACEMENT_3D('',#1873,#1491,#1492);
#1203=AXIS2_PLACEMENT_3D('',#1875,#1493,#1494);
#1204=AXIS2_PLACEMENT_3D('',#1876,#1495,#1496);
#1205=AXIS2_PLACEMENT_3D('',#1877,#1497,#1498);
#1206=AXIS2_PLACEMENT_3D('',#1878,#1499,#1500);
#1207=AXIS2_PLACEMENT_3D('',#1881,#1502,#1503);
#1208=AXIS2_PLACEMENT_3D('',#1882,#1504,#1505);
#1209=AXIS2_PLACEMENT_3D('',#1885,#1506,#1507);
#1210=AXIS2_PLACEMENT_3D('',#1887,#1508,#1509);
#1211=AXIS2_PLACEMENT_3D('',#1888,#1510,#1511);
#1212=AXIS2_PLACEMENT_3D('',#1889,#1512,#1513);
#1213=AXIS2_PLACEMENT_3D('',#1891,#1514,#1515);
#1214=AXIS2_PLACEMENT_3D('',#1893,#1517,#1518);
#1215=AXIS2_PLACEMENT_3D('',#1894,#1519,#1520);
#1216=AXIS2_PLACEMENT_3D('',#1896,#1521,#1522);
#1217=AXIS2_PLACEMENT_3D('',#1900,#1524,#1525);
#1218=AXIS2_PLACEMENT_3D('',#1902,#1526,#1527);
#1219=AXIS2_PLACEMENT_3D('',#1903,#1528,#1529);
#1220=AXIS2_PLACEMENT_3D('',#1904,#1530,#1531);
#1221=AXIS2_PLACEMENT_3D('',#1905,#1532,#1533);
#1222=AXIS2_PLACEMENT_3D('',#1906,#1534,#1535);
#1223=AXIS2_PLACEMENT_3D('',#1908,#1536,#1537);
#1224=AXIS2_PLACEMENT_3D('',#1912,#1539,#1540);
#1225=AXIS2_PLACEMENT_3D('',#1914,#1541,#1542);
#1226=AXIS2_PLACEMENT_3D('',#1915,#1543,#1544);
#1227=AXIS2_PLACEMENT_3D('',#1916,#1545,#1546);
#1228=AXIS2_PLACEMENT_3D('',#1917,#1547,#1548);
#1229=AXIS2_PLACEMENT_3D('',#1918,#1549,#1550);
#1230=AXIS2_PLACEMENT_3D('',#1921,#1551,#1552);
#1231=AXIS2_PLACEMENT_3D('',#1923,#1553,#1554);
#1232=AXIS2_PLACEMENT_3D('',#1924,#1555,#1556);
#1233=AXIS2_PLACEMENT_3D('',#1925,#1557,#1558);
#1234=AXIS2_PLACEMENT_3D('',#1927,#1559,#1560);
#1235=AXIS2_PLACEMENT_3D('',#1929,#1562,#1563);
#1236=AXIS2_PLACEMENT_3D('',#1930,#1564,#1565);
#1237=AXIS2_PLACEMENT_3D('',#1932,#1566,#1567);
#1238=AXIS2_PLACEMENT_3D('',#1936,#1569,#1570);
#1239=AXIS2_PLACEMENT_3D('',#1938,#1571,#1572);
#1240=AXIS2_PLACEMENT_3D('',#1939,#1573,#1574);
#1241=AXIS2_PLACEMENT_3D('',#1940,#1575,#1576);
#1242=AXIS2_PLACEMENT_3D('',#1941,#1577,#1578);
#1243=AXIS2_PLACEMENT_3D('',#1942,#1579,#1580);
#1244=AXIS2_PLACEMENT_3D('',#1945,#1581,#1582);
#1245=AXIS2_PLACEMENT_3D('',#1947,#1583,#1584);
#1246=AXIS2_PLACEMENT_3D('',#1948,#1585,#1586);
#1247=AXIS2_PLACEMENT_3D('',#1949,#1587,#1588);
#1248=AXIS2_PLACEMENT_3D('',#1951,#1589,#1590);
#1249=AXIS2_PLACEMENT_3D('',#1953,#1592,#1593);
#1250=AXIS2_PLACEMENT_3D('',#1954,#1594,#1595);
#1251=AXIS2_PLACEMENT_3D('',#1956,#1596,#1597);
#1252=AXIS2_PLACEMENT_3D('',#1960,#1599,#1600);
#1253=AXIS2_PLACEMENT_3D('',#1962,#1601,#1602);
#1254=AXIS2_PLACEMENT_3D('',#1963,#1603,#1604);
#1255=AXIS2_PLACEMENT_3D('',#1964,#1605,#1606);
#1256=AXIS2_PLACEMENT_3D('',#1965,#1607,#1608);
#1257=AXIS2_PLACEMENT_3D('',#1966,#1609,#1610);
#1258=AXIS2_PLACEMENT_3D('',#1969,#1611,#1612);
#1259=AXIS2_PLACEMENT_3D('',#1971,#1613,#1614);
#1260=AXIS2_PLACEMENT_3D('',#1972,#1615,#1616);
#1261=AXIS2_PLACEMENT_3D('',#1973,#1617,#1618);
#1262=AXIS2_PLACEMENT_3D('',#1975,#1619,#1620);
#1263=AXIS2_PLACEMENT_3D('',#1977,#1622,#1623);
#1264=AXIS2_PLACEMENT_3D('',#1978,#1624,#1625);
#1265=AXIS2_PLACEMENT_3D('',#1980,#1626,#1627);
#1266=AXIS2_PLACEMENT_3D('',#1981,#1628,#1629);
#1267=AXIS2_PLACEMENT_3D('',#1983,#1630,#1631);
#1268=AXIS2_PLACEMENT_3D('',#1984,#1632,#1633);
#1269=AXIS2_PLACEMENT_3D('',#1985,#1634,#1635);
#1270=AXIS2_PLACEMENT_3D('',#1986,#1636,#1637);
#1271=AXIS2_PLACEMENT_3D('',#1987,#1638,#1639);
#1272=AXIS2_PLACEMENT_3D('',#1988,#1640,#1641);
#1273=AXIS2_PLACEMENT_3D('',#1989,#1642,#1643);
#1274=AXIS2_PLACEMENT_3D('',#1990,#1644,#1645);
#1275=AXIS2_PLACEMENT_3D('',#1991,#1646,#1647);
#1276=AXIS2_PLACEMENT_3D('',#1993,#1648,#1649);
#1277=AXIS2_PLACEMENT_3D('',#1995,#1650,#1651);
#1278=AXIS2_PLACEMENT_3D('',#1996,#1652,#1653);
#1279=AXIS2_PLACEMENT_3D('',#1998,#1654,#1655);
#1280=AXIS2_PLACEMENT_3D('',#2000,#1657,#1658);
#1281=AXIS2_PLACEMENT_3D('',#2002,#1659,#1660);
#1282=AXIS2_PLACEMENT_3D('',#2004,#1662,#1663);
#1283=AXIS2_PLACEMENT_3D('',#2005,#1664,#1665);
#1284=AXIS2_PLACEMENT_3D('',#2008,#1667,#1668);
#1285=AXIS2_PLACEMENT_3D('',#2009,#1669,#1670);
#1286=AXIS2_PLACEMENT_3D('',#2012,#1672,#1673);
#1287=AXIS2_PLACEMENT_3D('',#2013,#1674,#1675);
#1288=AXIS2_PLACEMENT_3D('',#2014,#1676,#1677);
#1289=AXIS2_PLACEMENT_3D('',#2015,#1678,#1679);
#1290=AXIS2_PLACEMENT_3D('',#2016,#1680,#1681);
#1291=AXIS2_PLACEMENT_3D('',#2017,#1682,#1683);
#1292=AXIS2_PLACEMENT_3D('',#2018,#1684,#1685);
#1293=AXIS2_PLACEMENT_3D('',#2019,#1686,#1687);
#1294=AXIS2_PLACEMENT_3D('',#2020,#1688,#1689);
#1295=AXIS2_PLACEMENT_3D('',#2021,#1690,#1691);
#1296=AXIS2_PLACEMENT_3D('',#2023,#1692,#1693);
#1297=AXIS2_PLACEMENT_3D('',#2024,#1694,#1695);
#1298=AXIS2_PLACEMENT_3D('',#2026,#1696,#1697);
#1299=AXIS2_PLACEMENT_3D('',#2029,#1699,#1700);
#1300=AXIS2_PLACEMENT_3D('',#2030,#1701,#1702);
#1301=AXIS2_PLACEMENT_3D('',#2033,#1704,#1705);
#1302=AXIS2_PLACEMENT_3D('',#2034,#1706,#1707);
#1303=AXIS2_PLACEMENT_3D('',#2035,#1708,#1709);
#1304=DIRECTION('axis',(0.,0.,1.));
#1305=DIRECTION('refdir',(1.,0.,0.));
#1306=DIRECTION('center_axis',(-0.866025463094723,0.499999897271561,0.));
#1307=DIRECTION('ref_axis',(0.499999897271561,0.866025463094723,0.));
#1308=DIRECTION('',(0.499999897271561,0.866025463094723,0.));
#1309=DIRECTION('',(0.,0.,-1.));
#1310=DIRECTION('',(0.499999897271561,0.866025463094723,0.));
#1311=DIRECTION('',(0.,0.,-1.));
#1312=DIRECTION('center_axis',(0.,0.,-1.));
#1313=DIRECTION('ref_axis',(-0.866025416474688,0.499999978019843,0.));
#1314=DIRECTION('center_axis',(0.,0.,-1.));
#1315=DIRECTION('ref_axis',(-0.866025416474688,0.499999978019843,0.));
#1316=DIRECTION('',(0.,0.,-1.));
#1317=DIRECTION('center_axis',(0.,0.,-1.));
#1318=DIRECTION('ref_axis',(-0.866025416474688,0.499999978019843,0.));
#1319=DIRECTION('center_axis',(0.866025463094721,-0.499999897271564,0.));
#1320=DIRECTION('ref_axis',(-0.499999897271564,-0.866025463094721,0.));
#1321=DIRECTION('',(-0.499999897271564,-0.866025463094721,0.));
#1322=DIRECTION('',(0.,0.,-1.));
#1323=DIRECTION('',(-0.499999897271564,-0.866025463094721,0.));
#1324=DIRECTION('center_axis',(0.,0.,-1.));
#1325=DIRECTION('ref_axis',(0.866025416474697,-0.499999978019827,0.));
#1326=DIRECTION('center_axis',(0.,0.,-1.));
#1327=DIRECTION('ref_axis',(0.866025416474697,-0.499999978019827,0.));
#1328=DIRECTION('center_axis',(0.,0.,-1.));
#1329=DIRECTION('ref_axis',(0.866025416474697,-0.499999978019827,0.));
#1330=DIRECTION('center_axis',(0.,0.,1.));
#1331=DIRECTION('ref_axis',(1.,0.,0.));
#1332=DIRECTION('center_axis',(0.,-1.,0.));
#1333=DIRECTION('ref_axis',(-1.,0.,0.));
#1334=DIRECTION('',(-1.,0.,0.));
#1335=DIRECTION('',(0.,0.,-1.));
#1336=DIRECTION('',(-1.,0.,0.));
#1337=DIRECTION('',(0.,0.,-1.));
#1338=DIRECTION('center_axis',(0.,0.,-1.));
#1339=DIRECTION('ref_axis',(0.,-1.,0.));
#1340=DIRECTION('center_axis',(0.,0.,-1.));
#1341=DIRECTION('ref_axis',(0.,-1.,0.));
#1342=DIRECTION('',(0.,0.,-1.));
#1343=DIRECTION('center_axis',(0.,0.,-1.));
#1344=DIRECTION('ref_axis',(0.,-1.,0.));
#1345=DIRECTION('center_axis',(0.,1.,0.));
#1346=DIRECTION('ref_axis',(1.,0.,0.));
#1347=DIRECTION('',(1.,0.,0.));
#1348=DIRECTION('',(0.,0.,-1.));
#1349=DIRECTION('',(1.,0.,0.));
#1350=DIRECTION('center_axis',(0.,0.,-1.));
#1351=DIRECTION('ref_axis',(0.,1.,0.));
#1352=DIRECTION('center_axis',(0.,0.,-1.));
#1353=DIRECTION('ref_axis',(0.,1.,0.));
#1354=DIRECTION('center_axis',(0.,0.,-1.));
#1355=DIRECTION('ref_axis',(0.,1.,0.));
#1356=DIRECTION('center_axis',(0.,0.,1.));
#1357=DIRECTION('ref_axis',(1.,0.,0.));
#1358=DIRECTION('center_axis',(0.866025463094721,0.499999897271564,0.));
#1359=DIRECTION('ref_axis',(0.499999897271564,-0.866025463094721,0.));
#1360=DIRECTION('',(0.499999897271564,-0.866025463094721,0.));
#1361=DIRECTION('',(0.,0.,-1.));
#1362=DIRECTION('',(0.499999897271564,-0.866025463094721,0.));
#1363=DIRECTION('',(0.,0.,-1.));
#1364=DIRECTION('center_axis',(0.,0.,-1.));
#1365=DIRECTION('ref_axis',(-0.499999989195702,0.866025410022303,0.));
#1366=DIRECTION('center_axis',(0.,0.,-1.));
#1367=DIRECTION('ref_axis',(0.866025416474694,0.499999978019831,0.));
#1368=DIRECTION('',(0.,0.,-1.));
#1369=DIRECTION('center_axis',(0.,0.,-1.));
#1370=DIRECTION('ref_axis',(0.866025416474694,0.499999978019831,0.));
#1371=DIRECTION('center_axis',(-0.866025463094723,-0.499999897271561,0.));
#1372=DIRECTION('ref_axis',(-0.499999897271561,0.866025463094723,0.));
#1373=DIRECTION('',(-0.499999897271561,0.866025463094723,0.));
#1374=DIRECTION('',(0.,0.,-1.));
#1375=DIRECTION('',(-0.499999897271561,0.866025463094723,0.));
#1376=DIRECTION('center_axis',(0.,0.,-1.));
#1377=DIRECTION('ref_axis',(-0.866025416474688,-0.499999978019842,0.));
#1378=DIRECTION('center_axis',(0.,0.,-1.));
#1379=DIRECTION('ref_axis',(-0.866025416474688,-0.499999978019842,0.));
#1380=DIRECTION('center_axis',(0.,0.,-1.));
#1381=DIRECTION('ref_axis',(-0.866025416474688,-0.499999978019842,0.));
#1382=DIRECTION('center_axis',(0.,0.,1.));
#1383=DIRECTION('ref_axis',(1.,0.,0.));
#1384=DIRECTION('center_axis',(0.,0.,1.));
#1385=DIRECTION('ref_axis',(1.,0.,0.));
#1386=DIRECTION('center_axis',(0.,0.,1.));
#1387=DIRECTION('ref_axis',(-1.,0.,0.));
#1388=DIRECTION('center_axis',(0.,0.,1.));
#1389=DIRECTION('ref_axis',(1.,0.,0.));
#1390=DIRECTION('center_axis',(0.,0.,1.));
#1391=DIRECTION('ref_axis',(1.,0.,0.));
#1392=DIRECTION('center_axis',(0.,0.,1.));
#1393=DIRECTION('ref_axis',(1.,0.,0.));
#1394=DIRECTION('center_axis',(0.,0.,1.));
#1395=DIRECTION('ref_axis',(1.,0.,0.));
#1396=DIRECTION('',(0.,0.,1.));
#1397=DIRECTION('center_axis',(0.,0.,-1.));
#1398=DIRECTION('ref_axis',(1.,0.,0.));
#1399=DIRECTION('center_axis',(0.,0.,1.));
#1400=DIRECTION('ref_axis',(1.,0.,0.));
#1401=DIRECTION('center_axis',(0.,0.,1.));
#1402=DIRECTION('ref_axis',(1.,0.,0.));
#1403=DIRECTION('center_axis',(0.,0.,1.));
#1404=DIRECTION('ref_axis',(1.,0.,0.));
#1405=DIRECTION('center_axis',(0.,0.,1.));
#1406=DIRECTION('ref_axis',(1.,0.,0.));
#1407=DIRECTION('',(0.,0.,1.));
#1408=DIRECTION('center_axis',(0.,0.,-1.));
#1409=DIRECTION('ref_axis',(1.,0.,0.));
#1410=DIRECTION('center_axis',(0.,0.,1.));
#1411=DIRECTION('ref_axis',(1.,0.,0.));
#1412=DIRECTION('center_axis',(0.,0.,1.));
#1413=DIRECTION('ref_axis',(-1.,0.,0.));
#1414=DIRECTION('center_axis',(0.,0.,1.));
#1415=DIRECTION('ref_axis',(1.,0.,0.));
#1416=DIRECTION('center_axis',(0.,0.,1.));
#1417=DIRECTION('ref_axis',(1.,0.,0.));
#1418=DIRECTION('center_axis',(0.,0.,1.));
#1419=DIRECTION('ref_axis',(1.,0.,0.));
#1420=DIRECTION('center_axis',(0.,0.,1.));
#1421=DIRECTION('ref_axis',(1.,0.,0.));
#1422=DIRECTION('',(0.,0.,1.));
#1423=DIRECTION('center_axis',(0.,0.,-1.));
#1424=DIRECTION('ref_axis',(1.,0.,0.));
#1425=DIRECTION('center_axis',(0.,0.,1.));
#1426=DIRECTION('ref_axis',(1.,0.,0.));
#1427=DIRECTION('center_axis',(0.,0.,1.));
#1428=DIRECTION('ref_axis',(-1.,0.,0.));
#1429=DIRECTION('center_axis',(0.,0.,1.));
#1430=DIRECTION('ref_axis',(1.,0.,0.));
#1431=DIRECTION('center_axis',(0.,0.,1.));
#1432=DIRECTION('ref_axis',(-1.,0.,0.));
#1433=DIRECTION('center_axis',(0.,0.,1.));
#1434=DIRECTION('ref_axis',(1.,0.,0.));
#1435=DIRECTION('center_axis',(0.,0.,1.));
#1436=DIRECTION('ref_axis',(1.,0.,0.));
#1437=DIRECTION('center_axis',(0.,0.,1.));
#1438=DIRECTION('ref_axis',(1.,0.,0.));
#1439=DIRECTION('center_axis',(0.,0.,1.));
#1440=DIRECTION('ref_axis',(1.,0.,0.));
#1441=DIRECTION('',(0.,0.,1.));
#1442=DIRECTION('center_axis',(0.,0.,-1.));
#1443=DIRECTION('ref_axis',(1.,0.,0.));
#1444=DIRECTION('center_axis',(0.,0.,1.));
#1445=DIRECTION('ref_axis',(1.,0.,0.));
#1446=DIRECTION('center_axis',(0.,0.,1.));
#1447=DIRECTION('ref_axis',(1.,0.,0.));
#1448=DIRECTION('center_axis',(0.,0.,1.));
#1449=DIRECTION('ref_axis',(1.,0.,0.));
#1450=DIRECTION('center_axis',(0.,0.,1.));
#1451=DIRECTION('ref_axis',(1.,0.,0.));
#1452=DIRECTION('',(0.,0.,1.));
#1453=DIRECTION('center_axis',(0.,0.,-1.));
#1454=DIRECTION('ref_axis',(1.,0.,0.));
#1455=DIRECTION('center_axis',(0.,0.,1.));
#1456=DIRECTION('ref_axis',(1.,0.,0.));
#1457=DIRECTION('center_axis',(0.,0.,1.));
#1458=DIRECTION('ref_axis',(-1.,0.,0.));
#1459=DIRECTION('center_axis',(0.,0.,1.));
#1460=DIRECTION('ref_axis',(1.,0.,0.));
#1461=DIRECTION('center_axis',(0.,0.,1.));
#1462=DIRECTION('ref_axis',(-1.,0.,0.));
#1463=DIRECTION('center_axis',(0.,0.,1.));
#1464=DIRECTION('ref_axis',(1.,0.,0.));
#1465=DIRECTION('center_axis',(0.,0.,1.));
#1466=DIRECTION('ref_axis',(1.,0.,0.));
#1467=DIRECTION('center_axis',(0.,0.,1.));
#1468=DIRECTION('ref_axis',(1.,0.,0.));
#1469=DIRECTION('center_axis',(0.,0.,1.));
#1470=DIRECTION('ref_axis',(1.,0.,0.));
#1471=DIRECTION('',(0.,0.,1.));
#1472=DIRECTION('center_axis',(0.,0.,-1.));
#1473=DIRECTION('ref_axis',(1.,0.,0.));
#1474=DIRECTION('center_axis',(0.,0.,1.));
#1475=DIRECTION('ref_axis',(1.,0.,0.));
#1476=DIRECTION('center_axis',(0.,0.,1.));
#1477=DIRECTION('ref_axis',(1.,0.,0.));
#1478=DIRECTION('center_axis',(0.,0.,1.));
#1479=DIRECTION('ref_axis',(1.,0.,0.));
#1480=DIRECTION('center_axis',(0.,0.,1.));
#1481=DIRECTION('ref_axis',(1.,0.,0.));
#1482=DIRECTION('',(0.,0.,1.));
#1483=DIRECTION('center_axis',(0.,0.,-1.));
#1484=DIRECTION('ref_axis',(1.,0.,0.));
#1485=DIRECTION('center_axis',(0.,0.,1.));
#1486=DIRECTION('ref_axis',(1.,0.,0.));
#1487=DIRECTION('center_axis',(0.,0.,1.));
#1488=DIRECTION('ref_axis',(-1.,0.,0.));
#1489=DIRECTION('center_axis',(0.,0.,1.));
#1490=DIRECTION('ref_axis',(1.,0.,0.));
#1491=DIRECTION('center_axis',(0.,0.,1.));
#1492=DIRECTION('ref_axis',(-1.,0.,0.));
#1493=DIRECTION('center_axis',(0.,0.,1.));
#1494=DIRECTION('ref_axis',(1.,0.,0.));
#1495=DIRECTION('center_axis',(0.,0.,1.));
#1496=DIRECTION('ref_axis',(1.,0.,0.));
#1497=DIRECTION('center_axis',(0.,0.,1.));
#1498=DIRECTION('ref_axis',(1.,0.,0.));
#1499=DIRECTION('center_axis',(0.,0.,1.));
#1500=DIRECTION('ref_axis',(1.,0.,0.));
#1501=DIRECTION('',(0.,0.,1.));
#1502=DIRECTION('center_axis',(0.,0.,-1.));
#1503=DIRECTION('ref_axis',(1.,0.,0.));
#1504=DIRECTION('center_axis',(0.,0.,1.));
#1505=DIRECTION('ref_axis',(1.,0.,0.));
#1506=DIRECTION('center_axis',(0.,0.,-1.));
#1507=DIRECTION('ref_axis',(-1.,0.,0.));
#1508=DIRECTION('center_axis',(0.,0.,1.));
#1509=DIRECTION('ref_axis',(1.,0.,0.));
#1510=DIRECTION('center_axis',(0.,0.,1.));
#1511=DIRECTION('ref_axis',(1.,0.,0.));
#1512=DIRECTION('center_axis',(0.,0.,1.));
#1513=DIRECTION('ref_axis',(1.,0.,0.));
#1514=DIRECTION('center_axis',(0.,0.,1.));
#1515=DIRECTION('ref_axis',(1.,0.,0.));
#1516=DIRECTION('',(0.,0.,1.));
#1517=DIRECTION('center_axis',(0.,0.,-1.));
#1518=DIRECTION('ref_axis',(1.,0.,0.));
#1519=DIRECTION('center_axis',(0.,0.,1.));
#1520=DIRECTION('ref_axis',(1.,0.,0.));
#1521=DIRECTION('center_axis',(0.,0.,1.));
#1522=DIRECTION('ref_axis',(1.,0.,0.));
#1523=DIRECTION('',(0.,0.,1.));
#1524=DIRECTION('center_axis',(0.,0.,-1.));
#1525=DIRECTION('ref_axis',(1.,0.,0.));
#1526=DIRECTION('center_axis',(0.,0.,1.));
#1527=DIRECTION('ref_axis',(1.,0.,0.));
#1528=DIRECTION('center_axis',(0.,0.,-1.));
#1529=DIRECTION('ref_axis',(1.,0.,0.));
#1530=DIRECTION('center_axis',(0.,0.,1.));
#1531=DIRECTION('ref_axis',(1.,0.,0.));
#1532=DIRECTION('center_axis',(0.,0.,-1.));
#1533=DIRECTION('ref_axis',(-1.,0.,0.));
#1534=DIRECTION('center_axis',(0.,0.,1.));
#1535=DIRECTION('ref_axis',(1.,0.,0.));
#1536=DIRECTION('center_axis',(0.,0.,1.));
#1537=DIRECTION('ref_axis',(1.,0.,0.));
#1538=DIRECTION('',(0.,0.,1.));
#1539=DIRECTION('center_axis',(0.,0.,-1.));
#1540=DIRECTION('ref_axis',(1.,0.,0.));
#1541=DIRECTION('center_axis',(0.,0.,1.));
#1542=DIRECTION('ref_axis',(1.,0.,0.));
#1543=DIRECTION('center_axis',(0.,0.,-1.));
#1544=DIRECTION('ref_axis',(1.,0.,0.));
#1545=DIRECTION('center_axis',(0.,0.,1.));
#1546=DIRECTION('ref_axis',(1.,0.,0.));
#1547=DIRECTION('center_axis',(0.,0.,-1.));
#1548=DIRECTION('ref_axis',(-1.,0.,0.));
#1549=DIRECTION('center_axis',(0.,0.,1.));
#1550=DIRECTION('ref_axis',(1.,0.,0.));
#1551=DIRECTION('center_axis',(0.,0.,-1.));
#1552=DIRECTION('ref_axis',(-1.,0.,0.));
#1553=DIRECTION('center_axis',(0.,0.,1.));
#1554=DIRECTION('ref_axis',(1.,0.,0.));
#1555=DIRECTION('center_axis',(0.,0.,1.));
#1556=DIRECTION('ref_axis',(1.,0.,0.));
#1557=DIRECTION('center_axis',(0.,0.,1.));
#1558=DIRECTION('ref_axis',(1.,0.,0.));
#1559=DIRECTION('center_axis',(0.,0.,1.));
#1560=DIRECTION('ref_axis',(1.,0.,0.));
#1561=DIRECTION('',(0.,0.,1.));
#1562=DIRECTION('center_axis',(0.,0.,-1.));
#1563=DIRECTION('ref_axis',(1.,0.,0.));
#1564=DIRECTION('center_axis',(0.,0.,1.));
#1565=DIRECTION('ref_axis',(1.,0.,0.));
#1566=DIRECTION('center_axis',(0.,0.,1.));
#1567=DIRECTION('ref_axis',(1.,0.,0.));
#1568=DIRECTION('',(0.,0.,1.));
#1569=DIRECTION('center_axis',(0.,0.,-1.));
#1570=DIRECTION('ref_axis',(1.,0.,0.));
#1571=DIRECTION('center_axis',(0.,0.,1.));
#1572=DIRECTION('ref_axis',(1.,0.,0.));
#1573=DIRECTION('center_axis',(0.,0.,-1.));
#1574=DIRECTION('ref_axis',(1.,0.,0.));
#1575=DIRECTION('center_axis',(0.,0.,1.));
#1576=DIRECTION('ref_axis',(1.,0.,0.));
#1577=DIRECTION('center_axis',(0.,0.,-1.));
#1578=DIRECTION('ref_axis',(-1.,0.,0.));
#1579=DIRECTION('center_axis',(0.,0.,1.));
#1580=DIRECTION('ref_axis',(1.,0.,0.));
#1581=DIRECTION('center_axis',(0.,0.,-1.));
#1582=DIRECTION('ref_axis',(-1.,0.,0.));
#1583=DIRECTION('center_axis',(0.,0.,1.));
#1584=DIRECTION('ref_axis',(1.,0.,0.));
#1585=DIRECTION('center_axis',(0.,0.,1.));
#1586=DIRECTION('ref_axis',(1.,0.,0.));
#1587=DIRECTION('center_axis',(0.,0.,1.));
#1588=DIRECTION('ref_axis',(1.,0.,0.));
#1589=DIRECTION('center_axis',(0.,0.,1.));
#1590=DIRECTION('ref_axis',(1.,0.,0.));
#1591=DIRECTION('',(0.,0.,1.));
#1592=DIRECTION('center_axis',(0.,0.,-1.));
#1593=DIRECTION('ref_axis',(1.,0.,0.));
#1594=DIRECTION('center_axis',(0.,0.,1.));
#1595=DIRECTION('ref_axis',(1.,0.,0.));
#1596=DIRECTION('center_axis',(0.,0.,1.));
#1597=DIRECTION('ref_axis',(1.,0.,0.));
#1598=DIRECTION('',(0.,0.,1.));
#1599=DIRECTION('center_axis',(0.,0.,-1.));
#1600=DIRECTION('ref_axis',(1.,0.,0.));
#1601=DIRECTION('center_axis',(0.,0.,1.));
#1602=DIRECTION('ref_axis',(1.,0.,0.));
#1603=DIRECTION('center_axis',(0.,0.,-1.));
#1604=DIRECTION('ref_axis',(1.,0.,0.));
#1605=DIRECTION('center_axis',(0.,0.,1.));
#1606=DIRECTION('ref_axis',(1.,0.,0.));
#1607=DIRECTION('center_axis',(0.,0.,-1.));
#1608=DIRECTION('ref_axis',(-1.,0.,0.));
#1609=DIRECTION('center_axis',(0.,0.,1.));
#1610=DIRECTION('ref_axis',(1.,0.,0.));
#1611=DIRECTION('center_axis',(0.,0.,-1.));
#1612=DIRECTION('ref_axis',(-1.,0.,0.));
#1613=DIRECTION('center_axis',(0.,0.,1.));
#1614=DIRECTION('ref_axis',(1.,0.,0.));
#1615=DIRECTION('center_axis',(0.,0.,1.));
#1616=DIRECTION('ref_axis',(1.,0.,0.));
#1617=DIRECTION('center_axis',(0.,0.,1.));
#1618=DIRECTION('ref_axis',(1.,0.,0.));
#1619=DIRECTION('center_axis',(0.,0.,1.));
#1620=DIRECTION('ref_axis',(1.,0.,0.));
#1621=DIRECTION('',(0.,0.,1.));
#1622=DIRECTION('center_axis',(0.,0.,-1.));
#1623=DIRECTION('ref_axis',(1.,0.,0.));
#1624=DIRECTION('center_axis',(0.,0.,1.));
#1625=DIRECTION('ref_axis',(1.,0.,0.));
#1626=DIRECTION('center_axis',(0.,0.,1.));
#1627=DIRECTION('ref_axis',(-1.,0.,0.));
#1628=DIRECTION('center_axis',(0.,0.,1.));
#1629=DIRECTION('ref_axis',(-1.,0.,0.));
#1630=DIRECTION('center_axis',(0.,0.,1.));
#1631=DIRECTION('ref_axis',(-1.,0.,0.));
#1632=DIRECTION('center_axis',(0.,0.,1.));
#1633=DIRECTION('ref_axis',(-1.,0.,0.));
#1634=DIRECTION('center_axis',(0.,0.,1.));
#1635=DIRECTION('ref_axis',(-1.,0.,0.));
#1636=DIRECTION('center_axis',(0.,0.,1.));
#1637=DIRECTION('ref_axis',(-1.,0.,0.));
#1638=DIRECTION('center_axis',(0.,0.,1.));
#1639=DIRECTION('ref_axis',(-1.,0.,0.));
#1640=DIRECTION('center_axis',(0.,0.,1.));
#1641=DIRECTION('ref_axis',(-1.,0.,0.));
#1642=DIRECTION('center_axis',(0.,0.,1.));
#1643=DIRECTION('ref_axis',(-1.,0.,0.));
#1644=DIRECTION('center_axis',(0.,0.,1.));
#1645=DIRECTION('ref_axis',(-1.,0.,0.));
#1646=DIRECTION('center_axis',(0.,0.,1.));
#1647=DIRECTION('ref_axis',(1.,0.,0.));
#1648=DIRECTION('center_axis',(0.,0.,-1.));
#1649=DIRECTION('ref_axis',(-1.,0.,0.));
#1650=DIRECTION('center_axis',(0.,0.,-1.));
#1651=DIRECTION('ref_axis',(-1.,0.,0.));
#1652=DIRECTION('center_axis',(0.,0.,1.));
#1653=DIRECTION('ref_axis',(-1.,0.,0.));
#1654=DIRECTION('center_axis',(0.,0.,-1.));
#1655=DIRECTION('ref_axis',(-1.,0.,0.));
#1656=DIRECTION('',(0.,0.,-1.));
#1657=DIRECTION('center_axis',(0.,0.,1.));
#1658=DIRECTION('ref_axis',(-1.,0.,0.));
#1659=DIRECTION('center_axis',(0.,0.,1.));
#1660=DIRECTION('ref_axis',(-1.,0.,0.));
#1661=DIRECTION('',(0.,0.,-1.));
#1662=DIRECTION('center_axis',(0.,0.,1.));
#1663=DIRECTION('ref_axis',(1.,0.,0.));
#1664=DIRECTION('center_axis',(0.,0.,1.));
#1665=DIRECTION('ref_axis',(-1.,0.,0.));
#1666=DIRECTION('',(0.,0.,-1.));
#1667=DIRECTION('center_axis',(0.,0.,1.));
#1668=DIRECTION('ref_axis',(-1.,0.,0.));
#1669=DIRECTION('center_axis',(0.,0.,1.));
#1670=DIRECTION('ref_axis',(-1.,0.,0.));
#1671=DIRECTION('',(0.,0.,-1.));
#1672=DIRECTION('center_axis',(0.,0.,-1.));
#1673=DIRECTION('ref_axis',(-1.,0.,0.));
#1674=DIRECTION('center_axis',(0.,0.,-1.));
#1675=DIRECTION('ref_axis',(-1.,0.,0.));
#1676=DIRECTION('center_axis',(0.,0.,-1.));
#1677=DIRECTION('ref_axis',(-1.,0.,0.));
#1678=DIRECTION('center_axis',(0.,0.,-1.));
#1679=DIRECTION('ref_axis',(-1.,0.,0.));
#1680=DIRECTION('center_axis',(0.,0.,-1.));
#1681=DIRECTION('ref_axis',(-1.,0.,0.));
#1682=DIRECTION('center_axis',(0.,0.,-1.));
#1683=DIRECTION('ref_axis',(-1.,0.,0.));
#1684=DIRECTION('center_axis',(0.,0.,-1.));
#1685=DIRECTION('ref_axis',(-1.,0.,0.));
#1686=DIRECTION('center_axis',(0.,0.,-1.));
#1687=DIRECTION('ref_axis',(-1.,0.,0.));
#1688=DIRECTION('center_axis',(0.,0.,-1.));
#1689=DIRECTION('ref_axis',(-1.,0.,0.));
#1690=DIRECTION('center_axis',(0.,0.,1.));
#1691=DIRECTION('ref_axis',(1.,0.,0.));
#1692=DIRECTION('center_axis',(0.,0.,1.));
#1693=DIRECTION('ref_axis',(-1.,0.,0.));
#1694=DIRECTION('center_axis',(0.,0.,1.));
#1695=DIRECTION('ref_axis',(-1.,0.,0.));
#1696=DIRECTION('center_axis',(0.,0.,-1.));
#1697=DIRECTION('ref_axis',(-1.,0.,0.));
#1698=DIRECTION('',(0.,0.,-1.));
#1699=DIRECTION('center_axis',(0.,0.,-1.));
#1700=DIRECTION('ref_axis',(-1.,0.,0.));
#1701=DIRECTION('center_axis',(0.,0.,1.));
#1702=DIRECTION('ref_axis',(-1.,0.,0.));
#1703=DIRECTION('',(0.,0.,-1.));
#1704=DIRECTION('center_axis',(0.,0.,1.));
#1705=DIRECTION('ref_axis',(-1.,0.,0.));
#1706=DIRECTION('center_axis',(0.,0.,1.));
#1707=DIRECTION('ref_axis',(1.,0.,0.));
#1708=DIRECTION('center_axis',(0.,0.,1.));
#1709=DIRECTION('ref_axis',(1.,0.,0.));
#1710=CARTESIAN_POINT('',(0.,0.,0.));
#1711=CARTESIAN_POINT('Origin',(7.3392773,13.3170012,2.03));
#1712=CARTESIAN_POINT('',(7.3392773,13.3170012,2.03));
#1713=CARTESIAN_POINT('',(7.4367773022538,13.4858762039037,2.03));
#1714=CARTESIAN_POINT('',(3.53865307403693,6.73412513682546,2.03));
#1715=CARTESIAN_POINT('',(7.3392773,13.3170012,1.73));
#1716=CARTESIAN_POINT('',(7.3392773,13.3170012,2.03));
#1717=CARTESIAN_POINT('',(7.4367773022538,13.4858762039037,1.73));
#1718=CARTESIAN_POINT('',(7.3392773,13.3170012,1.73));
#1719=CARTESIAN_POINT('',(7.4367773022538,13.4858762039037,2.03));
#1720=CARTESIAN_POINT('Origin',(7.60125,13.1657512,2.03));
#1721=CARTESIAN_POINT('',(7.8632227,13.0145012,2.03));
#1722=CARTESIAN_POINT('Origin',(7.60125,13.1657512,2.03));
#1723=CARTESIAN_POINT('',(7.8632227,13.0145012,1.73));
#1724=CARTESIAN_POINT('',(7.8632227,13.0145012,2.03));
#1725=CARTESIAN_POINT('Origin',(7.60125,13.1657512,1.73));
#1726=CARTESIAN_POINT('Origin',(7.9607227,13.1833762,2.03));
#1727=CARTESIAN_POINT('',(7.9607227,13.1833762,2.03));
#1728=CARTESIAN_POINT('',(4.11134848813946,6.51606266125183,2.03));
#1729=CARTESIAN_POINT('',(7.9607227,13.1833762,1.73));
#1730=CARTESIAN_POINT('',(7.9607227,13.1833762,2.03));
#1731=CARTESIAN_POINT('',(7.9607227,13.1833762,1.73));
#1732=CARTESIAN_POINT('Origin',(7.69875,13.3346262,2.03));
#1733=CARTESIAN_POINT('Origin',(7.69875,13.3346262,2.03));
#1734=CARTESIAN_POINT('Origin',(7.69875,13.3346262,1.73));
#1735=CARTESIAN_POINT('Origin',(7.65,13.2501887,1.73));
#1736=CARTESIAN_POINT('Origin',(-15.2025,-0.3025,2.03));
#1737=CARTESIAN_POINT('',(-15.2025,-0.3025,2.03));
#1738=CARTESIAN_POINT('',(-15.3975,-0.3025,2.03));
#1739=CARTESIAN_POINT('',(-7.60125,-0.3025,2.03));
#1740=CARTESIAN_POINT('',(-15.2025,-0.3025,1.73));
#1741=CARTESIAN_POINT('',(-15.2025,-0.3025,2.03));
#1742=CARTESIAN_POINT('',(-15.3975,-0.3025,1.73));
#1743=CARTESIAN_POINT('',(-15.2025,-0.3025,1.73));
#1744=CARTESIAN_POINT('',(-15.3975,-0.3025,2.03));
#1745=CARTESIAN_POINT('Origin',(-15.2025,0.,2.03));
#1746=CARTESIAN_POINT('',(-15.2025,0.3025,2.03));
#1747=CARTESIAN_POINT('Origin',(-15.2025,0.,2.03));
#1748=CARTESIAN_POINT('',(-15.2025,0.3025,1.73));
#1749=CARTESIAN_POINT('',(-15.2025,0.3025,2.03));
#1750=CARTESIAN_POINT('Origin',(-15.2025,0.,1.73));
#1751=CARTESIAN_POINT('Origin',(-15.3975,0.3025,2.03));
#1752=CARTESIAN_POINT('',(-15.3975,0.3025,2.03));
#1753=CARTESIAN_POINT('',(-7.69875,0.3025,2.03));
#1754=CARTESIAN_POINT('',(-15.3975,0.3025,1.73));
#1755=CARTESIAN_POINT('',(-15.3975,0.3025,2.03));
#1756=CARTESIAN_POINT('',(-15.3975,0.3025,1.73));
#1757=CARTESIAN_POINT('Origin',(-15.3975,0.,2.03));
#1758=CARTESIAN_POINT('Origin',(-15.3975,0.,2.03));
#1759=CARTESIAN_POINT('Origin',(-15.3975,0.,1.73));
#1760=CARTESIAN_POINT('Origin',(-15.3,0.,1.73));
#1761=CARTESIAN_POINT('Origin',(7.8632227,-13.0145012,2.03));
#1762=CARTESIAN_POINT('',(7.8632227,-13.0145012,2.03));
#1763=CARTESIAN_POINT('',(7.9607227022538,-13.1833762039037,2.03));
#1764=CARTESIAN_POINT('',(4.06259848813946,-6.43162516125183,2.03));
#1765=CARTESIAN_POINT('',(7.8632227,-13.0145012,1.73));
#1766=CARTESIAN_POINT('',(7.8632227,-13.0145012,2.03));
#1767=CARTESIAN_POINT('',(7.9607227022538,-13.1833762039037,1.73));
#1768=CARTESIAN_POINT('',(7.8632227,-13.0145012,1.73));
#1769=CARTESIAN_POINT('',(7.9607227022538,-13.1833762039037,2.03));
#1770=CARTESIAN_POINT('Origin',(7.60125,-13.1657512,2.03));
#1771=CARTESIAN_POINT('',(7.3392773039037,-13.3170012067614,2.03));
#1772=CARTESIAN_POINT('Origin',(7.60125,-13.1657512,2.03));
#1773=CARTESIAN_POINT('',(7.3392773039037,-13.3170012067614,1.73));
#1774=CARTESIAN_POINT('',(7.3392773039037,-13.3170012067614,2.03));
#1775=CARTESIAN_POINT('Origin',(7.60125,-13.1657512,1.73));
#1776=CARTESIAN_POINT('Origin',(7.4367773,-13.4858762,2.03));
#1777=CARTESIAN_POINT('',(7.4367773,-13.4858762,2.03));
#1778=CARTESIAN_POINT('',(3.58740307403693,-6.81856263682546,2.03));
#1779=CARTESIAN_POINT('',(7.4367773,-13.4858762,1.73));
#1780=CARTESIAN_POINT('',(7.4367773,-13.4858762,2.03));
#1781=CARTESIAN_POINT('',(7.4367773,-13.4858762,1.73));
#1782=CARTESIAN_POINT('Origin',(7.69875,-13.3346262,2.03));
#1783=CARTESIAN_POINT('Origin',(7.69875,-13.3346262,2.03));
#1784=CARTESIAN_POINT('Origin',(7.69875,-13.3346262,1.73));
#1785=CARTESIAN_POINT('Origin',(7.65,-13.2501887,1.73));
#1786=CARTESIAN_POINT('Origin',(5.7785198,-13.9505809,1.715));
#1787=CARTESIAN_POINT('',(5.42999425512907,-13.9826736495302,1.715));
#1788=CARTESIAN_POINT('',(6.04765757733674,-13.7268291250121,1.715));
#1789=CARTESIAN_POINT('Origin',(0.,0.,1.715));
#1790=CARTESIAN_POINT('',(5.4285198,-13.9505809,1.715));
#1791=CARTESIAN_POINT('Origin',(5.7785198,-13.9505809,1.715));
#1792=CARTESIAN_POINT('Origin',(5.7785198,-13.9505809,1.715));
#1793=CARTESIAN_POINT('Origin',(5.7785198,-13.9505809,1.715));
#1794=CARTESIAN_POINT('Origin',(5.7785198,-13.9505809,1.715));
#1795=CARTESIAN_POINT('',(5.4285198,-13.9505809,2.03));
#1796=CARTESIAN_POINT('',(5.4285198,-13.9505809,1.715));
#1797=CARTESIAN_POINT('Origin',(5.7785198,-13.9505809,2.03));
#1798=CARTESIAN_POINT('Origin',(-13.9505809,-5.7785198,1.715));
#1799=CARTESIAN_POINT('',(-13.9826736495302,-5.42999425512907,1.715));
#1800=CARTESIAN_POINT('',(-14.3005809,-5.7785198,1.715));
#1801=CARTESIAN_POINT('Origin',(-13.9505809,-5.7785198,1.715));
#1802=CARTESIAN_POINT('',(-13.7268291250121,-6.04765757733674,1.715));
#1803=CARTESIAN_POINT('Origin',(-13.9505809,-5.7785198,1.715));
#1804=CARTESIAN_POINT('Origin',(-13.9505809,-5.7785198,1.715));
#1805=CARTESIAN_POINT('',(-14.3005809,-5.7785198,2.03));
#1806=CARTESIAN_POINT('',(-14.3005809,-5.7785198,1.715));
#1807=CARTESIAN_POINT('Origin',(-13.9505809,-5.7785198,2.03));
#1808=CARTESIAN_POINT('Origin',(-13.9505809,-5.7785198,1.715));
#1809=CARTESIAN_POINT('Origin',(0.,0.,1.715));
#1810=CARTESIAN_POINT('Origin',(-13.9505809,5.7785198,1.715));
#1811=CARTESIAN_POINT('',(-13.7268291250121,6.04765757733674,1.715));
#1812=CARTESIAN_POINT('',(-14.3005809,5.7785198,1.715));
#1813=CARTESIAN_POINT('Origin',(-13.9505809,5.7785198,1.715));
#1814=CARTESIAN_POINT('',(-13.9826736495302,5.42999425512907,1.715));
#1815=CARTESIAN_POINT('Origin',(-13.9505809,5.7785198,1.715));
#1816=CARTESIAN_POINT('Origin',(-13.9505809,5.7785198,1.715));
#1817=CARTESIAN_POINT('',(-14.3005809,5.7785198,2.03));
#1818=CARTESIAN_POINT('',(-14.3005809,5.7785198,1.715));
#1819=CARTESIAN_POINT('Origin',(-13.9505809,5.7785198,2.03));
#1820=CARTESIAN_POINT('Origin',(-13.9505809,5.7785198,1.715));
#1821=CARTESIAN_POINT('Origin',(0.,0.,1.715));
#1822=CARTESIAN_POINT('Origin',(5.7785198,13.9505809,1.715));
#1823=CARTESIAN_POINT('',(6.04765757733674,13.7268291250121,1.715));
#1824=CARTESIAN_POINT('',(5.42999425512907,13.9826736495302,1.715));
#1825=CARTESIAN_POINT('Origin',(0.,0.,1.715));
#1826=CARTESIAN_POINT('',(5.4285198,13.9505809,1.715));
#1827=CARTESIAN_POINT('Origin',(5.7785198,13.9505809,1.715));
#1828=CARTESIAN_POINT('Origin',(5.7785198,13.9505809,1.715));
#1829=CARTESIAN_POINT('Origin',(5.7785198,13.9505809,1.715));
#1830=CARTESIAN_POINT('Origin',(5.7785198,13.9505809,1.715));
#1831=CARTESIAN_POINT('',(5.4285198,13.9505809,2.03));
#1832=CARTESIAN_POINT('',(5.4285198,13.9505809,1.715));
#1833=CARTESIAN_POINT('Origin',(5.7785198,13.9505809,2.03));
#1834=CARTESIAN_POINT('Origin',(-5.7785198,13.9505809,1.715));
#1835=CARTESIAN_POINT('',(-5.42999425512907,13.9826736495302,1.715));
#1836=CARTESIAN_POINT('',(-6.1285198,13.9505809,1.715));
#1837=CARTESIAN_POINT('Origin',(-5.7785198,13.9505809,1.715));
#1838=CARTESIAN_POINT('',(-6.04765757733674,13.7268291250121,1.715));
#1839=CARTESIAN_POINT('Origin',(-5.7785198,13.9505809,1.715));
#1840=CARTESIAN_POINT('Origin',(-5.7785198,13.9505809,1.715));
#1841=CARTESIAN_POINT('',(-6.1285198,13.9505809,2.03));
#1842=CARTESIAN_POINT('',(-6.1285198,13.9505809,1.715));
#1843=CARTESIAN_POINT('Origin',(-5.7785198,13.9505809,2.03));
#1844=CARTESIAN_POINT('Origin',(-5.7785198,13.9505809,1.715));
#1845=CARTESIAN_POINT('Origin',(0.,0.,1.715));
#1846=CARTESIAN_POINT('Origin',(13.9505809,5.7785198,1.715));
#1847=CARTESIAN_POINT('',(13.9826736495302,5.42999425512907,1.715));
#1848=CARTESIAN_POINT('',(13.7268291250121,6.04765757733674,1.715));
#1849=CARTESIAN_POINT('Origin',(0.,0.,1.715));
#1850=CARTESIAN_POINT('',(13.6005809,5.7785198,1.715));
#1851=CARTESIAN_POINT('Origin',(13.9505809,5.7785198,1.715));
#1852=CARTESIAN_POINT('Origin',(13.9505809,5.7785198,1.715));
#1853=CARTESIAN_POINT('Origin',(13.9505809,5.7785198,1.715));
#1854=CARTESIAN_POINT('Origin',(13.9505809,5.7785198,1.715));
#1855=CARTESIAN_POINT('',(13.6005809,5.7785198,2.03));
#1856=CARTESIAN_POINT('',(13.6005809,5.7785198,1.715));
#1857=CARTESIAN_POINT('Origin',(13.9505809,5.7785198,2.03));
#1858=CARTESIAN_POINT('Origin',(-5.7785198,-13.9505809,1.715));
#1859=CARTESIAN_POINT('',(-6.04765757733674,-13.7268291250121,1.715));
#1860=CARTESIAN_POINT('',(-6.1285198,-13.9505809,1.715));
#1861=CARTESIAN_POINT('Origin',(-5.7785198,-13.9505809,1.715));
#1862=CARTESIAN_POINT('',(-5.42999425512907,-13.9826736495302,1.715));
#1863=CARTESIAN_POINT('Origin',(-5.7785198,-13.9505809,1.715));
#1864=CARTESIAN_POINT('Origin',(-5.7785198,-13.9505809,1.715));
#1865=CARTESIAN_POINT('',(-6.1285198,-13.9505809,2.03));
#1866=CARTESIAN_POINT('',(-6.1285198,-13.9505809,1.715));
#1867=CARTESIAN_POINT('Origin',(-5.7785198,-13.9505809,2.03));
#1868=CARTESIAN_POINT('Origin',(-5.7785198,-13.9505809,1.715));
#1869=CARTESIAN_POINT('Origin',(0.,0.,1.715));
#1870=CARTESIAN_POINT('Origin',(13.9505809,-5.7785198,1.715));
#1871=CARTESIAN_POINT('',(13.7268291250121,-6.04765757733674,1.715));
#1872=CARTESIAN_POINT('',(13.9826736495302,-5.42999425512907,1.715));
#1873=CARTESIAN_POINT('Origin',(0.,0.,1.715));
#1874=CARTESIAN_POINT('',(13.6005809,-5.7785198,1.715));
#1875=CARTESIAN_POINT('Origin',(13.9505809,-5.7785198,1.715));
#1876=CARTESIAN_POINT('Origin',(13.9505809,-5.7785198,1.715));
#1877=CARTESIAN_POINT('Origin',(13.9505809,-5.7785198,1.715));
#1878=CARTESIAN_POINT('Origin',(13.9505809,-5.7785198,1.715));
#1879=CARTESIAN_POINT('',(13.6005809,-5.7785198,2.03));
#1880=CARTESIAN_POINT('',(13.6005809,-5.7785198,1.715));
#1881=CARTESIAN_POINT('Origin',(13.9505809,-5.7785198,2.03));
#1882=CARTESIAN_POINT('Origin',(5.7785198,-13.9505809,0.315));
#1883=CARTESIAN_POINT('',(6.04765757733677,-13.7268291250121,0.315));
#1884=CARTESIAN_POINT('',(5.42999425512905,-13.9826736495302,0.315));
#1885=CARTESIAN_POINT('Origin',(0.,0.,0.315));
#1886=CARTESIAN_POINT('',(5.4285198,-13.9505809,0.315));
#1887=CARTESIAN_POINT('Origin',(5.7785198,-13.9505809,0.315));
#1888=CARTESIAN_POINT('Origin',(5.7785198,-13.9505809,0.315));
#1889=CARTESIAN_POINT('Origin',(5.7785198,-13.9505809,0.));
#1890=CARTESIAN_POINT('',(5.4285198,-13.9505809,0.));
#1891=CARTESIAN_POINT('Origin',(5.7785198,-13.9505809,0.));
#1892=CARTESIAN_POINT('',(5.4285198,-13.9505809,0.));
#1893=CARTESIAN_POINT('Origin',(5.7785198,-13.9505809,0.315));
#1894=CARTESIAN_POINT('Origin',(-13.9505809,-5.7785198,0.));
#1895=CARTESIAN_POINT('',(-14.3005809,-5.7785198,0.));
#1896=CARTESIAN_POINT('Origin',(-13.9505809,-5.7785198,0.));
#1897=CARTESIAN_POINT('',(-14.3005809,-5.7785198,0.315));
#1898=CARTESIAN_POINT('',(-14.3005809,-5.7785198,0.));
#1899=CARTESIAN_POINT('',(-13.7268291250121,-6.04765757733677,0.315));
#1900=CARTESIAN_POINT('Origin',(-13.9505809,-5.7785198,0.315));
#1901=CARTESIAN_POINT('',(-13.9826736495302,-5.42999425512905,0.315));
#1902=CARTESIAN_POINT('Origin',(-13.9505809,-5.7785198,0.315));
#1903=CARTESIAN_POINT('Origin',(-13.9505809,-5.7785198,0.315));
#1904=CARTESIAN_POINT('Origin',(-13.9505809,-5.7785198,0.315));
#1905=CARTESIAN_POINT('Origin',(0.,0.,0.315));
#1906=CARTESIAN_POINT('Origin',(-13.9505809,5.7785198,0.));
#1907=CARTESIAN_POINT('',(-14.3005809,5.7785198,0.));
#1908=CARTESIAN_POINT('Origin',(-13.9505809,5.7785198,0.));
#1909=CARTESIAN_POINT('',(-14.3005809,5.7785198,0.315));
#1910=CARTESIAN_POINT('',(-14.3005809,5.7785198,0.));
#1911=CARTESIAN_POINT('',(-13.9826736495302,5.42999425512905,0.315));
#1912=CARTESIAN_POINT('Origin',(-13.9505809,5.7785198,0.315));
#1913=CARTESIAN_POINT('',(-13.7268291250121,6.04765757733677,0.315));
#1914=CARTESIAN_POINT('Origin',(-13.9505809,5.7785198,0.315));
#1915=CARTESIAN_POINT('Origin',(-13.9505809,5.7785198,0.315));
#1916=CARTESIAN_POINT('Origin',(-13.9505809,5.7785198,0.315));
#1917=CARTESIAN_POINT('Origin',(0.,0.,0.315));
#1918=CARTESIAN_POINT('Origin',(5.7785198,13.9505809,0.315));
#1919=CARTESIAN_POINT('',(5.42999425512905,13.9826736495302,0.315));
#1920=CARTESIAN_POINT('',(6.04765757733677,13.7268291250121,0.315));
#1921=CARTESIAN_POINT('Origin',(0.,0.,0.315));
#1922=CARTESIAN_POINT('',(5.4285198,13.9505809,0.315));
#1923=CARTESIAN_POINT('Origin',(5.7785198,13.9505809,0.315));
#1924=CARTESIAN_POINT('Origin',(5.7785198,13.9505809,0.315));
#1925=CARTESIAN_POINT('Origin',(5.7785198,13.9505809,0.));
#1926=CARTESIAN_POINT('',(5.4285198,13.9505809,0.));
#1927=CARTESIAN_POINT('Origin',(5.7785198,13.9505809,0.));
#1928=CARTESIAN_POINT('',(5.4285198,13.9505809,0.));
#1929=CARTESIAN_POINT('Origin',(5.7785198,13.9505809,0.315));
#1930=CARTESIAN_POINT('Origin',(-5.7785198,13.9505809,0.));
#1931=CARTESIAN_POINT('',(-6.1285198,13.9505809,0.));
#1932=CARTESIAN_POINT('Origin',(-5.7785198,13.9505809,0.));
#1933=CARTESIAN_POINT('',(-6.1285198,13.9505809,0.315));
#1934=CARTESIAN_POINT('',(-6.1285198,13.9505809,0.));
#1935=CARTESIAN_POINT('',(-6.04765757733677,13.7268291250121,0.315));
#1936=CARTESIAN_POINT('Origin',(-5.7785198,13.9505809,0.315));
#1937=CARTESIAN_POINT('',(-5.42999425512905,13.9826736495302,0.315));
#1938=CARTESIAN_POINT('Origin',(-5.7785198,13.9505809,0.315));
#1939=CARTESIAN_POINT('Origin',(-5.7785198,13.9505809,0.315));
#1940=CARTESIAN_POINT('Origin',(-5.7785198,13.9505809,0.315));
#1941=CARTESIAN_POINT('Origin',(0.,0.,0.315));
#1942=CARTESIAN_POINT('Origin',(13.9505809,5.7785198,0.315));
#1943=CARTESIAN_POINT('',(13.7268291250121,6.04765757733677,0.315));
#1944=CARTESIAN_POINT('',(13.9826736495302,5.42999425512905,0.315));
#1945=CARTESIAN_POINT('Origin',(0.,0.,0.315));
#1946=CARTESIAN_POINT('',(13.6005809,5.7785198,0.315));
#1947=CARTESIAN_POINT('Origin',(13.9505809,5.7785198,0.315));
#1948=CARTESIAN_POINT('Origin',(13.9505809,5.7785198,0.315));
#1949=CARTESIAN_POINT('Origin',(13.9505809,5.7785198,0.));
#1950=CARTESIAN_POINT('',(13.6005809,5.7785198,0.));
#1951=CARTESIAN_POINT('Origin',(13.9505809,5.7785198,0.));
#1952=CARTESIAN_POINT('',(13.6005809,5.7785198,0.));
#1953=CARTESIAN_POINT('Origin',(13.9505809,5.7785198,0.315));
#1954=CARTESIAN_POINT('Origin',(-5.7785198,-13.9505809,0.));
#1955=CARTESIAN_POINT('',(-6.1285198,-13.9505809,0.));
#1956=CARTESIAN_POINT('Origin',(-5.7785198,-13.9505809,0.));
#1957=CARTESIAN_POINT('',(-6.1285198,-13.9505809,0.315));
#1958=CARTESIAN_POINT('',(-6.1285198,-13.9505809,0.));
#1959=CARTESIAN_POINT('',(-5.42999425512905,-13.9826736495302,0.315));
#1960=CARTESIAN_POINT('Origin',(-5.7785198,-13.9505809,0.315));
#1961=CARTESIAN_POINT('',(-6.04765757733677,-13.7268291250121,0.315));
#1962=CARTESIAN_POINT('Origin',(-5.7785198,-13.9505809,0.315));
#1963=CARTESIAN_POINT('Origin',(-5.7785198,-13.9505809,0.315));
#1964=CARTESIAN_POINT('Origin',(-5.7785198,-13.9505809,0.315));
#1965=CARTESIAN_POINT('Origin',(0.,0.,0.315));
#1966=CARTESIAN_POINT('Origin',(13.9505809,-5.7785198,0.315));
#1967=CARTESIAN_POINT('',(13.9826736495302,-5.42999425512905,0.315));
#1968=CARTESIAN_POINT('',(13.7268291250121,-6.04765757733677,0.315));
#1969=CARTESIAN_POINT('Origin',(0.,0.,0.315));
#1970=CARTESIAN_POINT('',(13.6005809,-5.7785198,0.315));
#1971=CARTESIAN_POINT('Origin',(13.9505809,-5.7785198,0.315));
#1972=CARTESIAN_POINT('Origin',(13.9505809,-5.7785198,0.315));
#1973=CARTESIAN_POINT('Origin',(13.9505809,-5.7785198,0.));
#1974=CARTESIAN_POINT('',(13.6005809,-5.7785198,0.));
#1975=CARTESIAN_POINT('Origin',(13.9505809,-5.7785198,0.));
#1976=CARTESIAN_POINT('',(13.6005809,-5.7785198,0.));
#1977=CARTESIAN_POINT('Origin',(13.9505809,-5.7785198,0.315));
#1978=CARTESIAN_POINT('Origin',(0.,0.,1.715));
#1979=CARTESIAN_POINT('',(15.9,-1.94718841064429E-15,1.715));
#1980=CARTESIAN_POINT('Origin',(0.,0.,1.715));
#1981=CARTESIAN_POINT('Origin',(0.,0.,1.715));
#1982=CARTESIAN_POINT('',(15.,1.83697019872103E-15,1.715));
#1983=CARTESIAN_POINT('Origin',(0.,0.,1.715));
#1984=CARTESIAN_POINT('Origin',(0.,0.,1.715));
#1985=CARTESIAN_POINT('Origin',(0.,0.,1.715));
#1986=CARTESIAN_POINT('Origin',(0.,0.,1.715));
#1987=CARTESIAN_POINT('Origin',(0.,0.,1.715));
#1988=CARTESIAN_POINT('Origin',(0.,0.,1.715));
#1989=CARTESIAN_POINT('Origin',(0.,0.,1.715));
#1990=CARTESIAN_POINT('Origin',(0.,0.,1.715));
#1991=CARTESIAN_POINT('Origin',(0.,0.,1.715));
#1992=CARTESIAN_POINT('',(14.7,1.80023079474661E-15,1.715));
#1993=CARTESIAN_POINT('Origin',(0.,0.,1.715));
#1994=CARTESIAN_POINT('',(14.3,1.75124492278072E-15,1.715));
#1995=CARTESIAN_POINT('Origin',(0.,0.,1.715));
#1996=CARTESIAN_POINT('Origin',(0.,0.,1.715));
#1997=CARTESIAN_POINT('',(14.3,1.75124492278072E-15,2.03));
#1998=CARTESIAN_POINT('Origin',(0.,0.,2.03));
#1999=CARTESIAN_POINT('',(14.3,1.75124492278072E-15,1.715));
#2000=CARTESIAN_POINT('Origin',(0.,0.,1.715));
#2001=CARTESIAN_POINT('',(15.9,-1.94718841064429E-15,2.03));
#2002=CARTESIAN_POINT('Origin',(0.,0.,2.03));
#2003=CARTESIAN_POINT('',(15.9,1.94718841064429E-15,1.715));
#2004=CARTESIAN_POINT('Origin',(0.,0.,2.03));
#2005=CARTESIAN_POINT('Origin',(0.,0.,0.315));
#2006=CARTESIAN_POINT('',(14.7,1.80023079474661E-15,0.315));
#2007=CARTESIAN_POINT('',(14.7,1.80023079474661E-15,0.315));
#2008=CARTESIAN_POINT('Origin',(0.,0.,0.315));
#2009=CARTESIAN_POINT('Origin',(0.,0.,0.315));
#2010=CARTESIAN_POINT('',(15.,1.83697019872103E-15,0.315));
#2011=CARTESIAN_POINT('',(15.,1.83697019872103E-15,0.315));
#2012=CARTESIAN_POINT('Origin',(0.,0.,0.315));
#2013=CARTESIAN_POINT('Origin',(0.,0.,0.315));
#2014=CARTESIAN_POINT('Origin',(0.,0.,0.315));
#2015=CARTESIAN_POINT('Origin',(0.,0.,0.315));
#2016=CARTESIAN_POINT('Origin',(0.,0.,0.315));
#2017=CARTESIAN_POINT('Origin',(0.,0.,0.315));
#2018=CARTESIAN_POINT('Origin',(0.,0.,0.315));
#2019=CARTESIAN_POINT('Origin',(0.,0.,0.315));
#2020=CARTESIAN_POINT('Origin',(0.,0.,0.315));
#2021=CARTESIAN_POINT('Origin',(0.,0.,0.315));
#2022=CARTESIAN_POINT('',(15.9,-1.94718841064429E-15,0.315));
#2023=CARTESIAN_POINT('Origin',(0.,0.,0.315));
#2024=CARTESIAN_POINT('Origin',(0.,0.,0.));
#2025=CARTESIAN_POINT('',(14.3,1.75124492278072E-15,0.315));
#2026=CARTESIAN_POINT('Origin',(0.,0.,0.315));
#2027=CARTESIAN_POINT('',(14.3,1.75124492278072E-15,0.));
#2028=CARTESIAN_POINT('',(14.3,1.75124492278072E-15,0.));
#2029=CARTESIAN_POINT('Origin',(0.,0.,0.));
#2030=CARTESIAN_POINT('Origin',(0.,0.,0.));
#2031=CARTESIAN_POINT('',(15.9,-1.94718841064429E-15,0.));
#2032=CARTESIAN_POINT('',(15.9,1.94718841064429E-15,0.));
#2033=CARTESIAN_POINT('Origin',(0.,0.,0.));
#2034=CARTESIAN_POINT('Origin',(0.,0.,0.315));
#2035=CARTESIAN_POINT('Origin',(0.,0.,0.));
#2036=UNCERTAINTY_MEASURE_WITH_UNIT(LENGTH_MEASURE(0.001),#2040,
'DISTANCE_ACCURACY_VALUE',
'Maximum model space distance between geometric entities at asserted c
onnectivities');
#2037=UNCERTAINTY_MEASURE_WITH_UNIT(LENGTH_MEASURE(0.001),#2040,
'DISTANCE_ACCURACY_VALUE',
'Maximum model space distance between geometric entities at asserted c
onnectivities');
#2038=(
GEOMETRIC_REPRESENTATION_CONTEXT(3)
GLOBAL_UNCERTAINTY_ASSIGNED_CONTEXT((#2036))
GLOBAL_UNIT_ASSIGNED_CONTEXT((#2040,#2042,#2043))
REPRESENTATION_CONTEXT('','3D')
);
#2039=(
GEOMETRIC_REPRESENTATION_CONTEXT(3)
GLOBAL_UNCERTAINTY_ASSIGNED_CONTEXT((#2037))
GLOBAL_UNIT_ASSIGNED_CONTEXT((#2040,#2042,#2043))
REPRESENTATION_CONTEXT('','3D')
);
#2040=(
LENGTH_UNIT()
NAMED_UNIT(*)
SI_UNIT(.CENTI.,.METRE.)
);
#2041=(
LENGTH_UNIT()
NAMED_UNIT(*)
SI_UNIT($,.METRE.)
);
#2042=(
NAMED_UNIT(*)
PLANE_ANGLE_UNIT()
SI_UNIT($,.RADIAN.)
);
#2043=(
NAMED_UNIT(*)
SI_UNIT($,.STERADIAN.)
SOLID_ANGLE_UNIT()
);
#2044=SHAPE_DEFINITION_REPRESENTATION(#2045,#2046);
#2045=PRODUCT_DEFINITION_SHAPE('',$,#2048);
#2046=SHAPE_REPRESENTATION('',(#1124),#2038);
#2047=PRODUCT_DEFINITION_CONTEXT('part definition',#2052,'design');
#2048=PRODUCT_DEFINITION('SEWCP-400_SUPPORT_RING',
'SEWCP-400_SUPPORT_RING v1',#2049,#2047);
#2049=PRODUCT_DEFINITION_FORMATION('',$,#2054);
#2050=PRODUCT_RELATED_PRODUCT_CATEGORY('SEWCP-400_SUPPORT_RING v1',
'SEWCP-400_SUPPORT_RING v1',(#2054));
#2051=APPLICATION_PROTOCOL_DEFINITION('international standard',
'automotive_design',2009,#2052);
#2052=APPLICATION_CONTEXT(
'Core Data for Automotive Mechanical Design Process');
#2053=PRODUCT_CONTEXT('part definition',#2052,'mechanical');
#2054=PRODUCT('SEWCP-400_SUPPORT_RING','SEWCP-400_SUPPORT_RING v1',$,(#2053));
#2055=PRESENTATION_STYLE_ASSIGNMENT((#2056));
#2056=SURFACE_STYLE_USAGE(.BOTH.,#2057);
#2057=SURFACE_SIDE_STYLE('',(#2058));
#2058=SURFACE_STYLE_FILL_AREA(#2059);
#2059=FILL_AREA_STYLE('Aluminum - Satin',(#2060));
#2060=FILL_AREA_STYLE_COLOUR('Aluminum - Satin',#2061);
#2061=COLOUR_RGB('Aluminum - Satin',0.96078431372549,0.96078431372549,0.964705882352941);
ENDSEC;
END-ISO-10303-21;
