ISO-10303-21;
HEADER;
/* Generated by software containing ST-Developer
 * from STEP Tools, Inc. (www.steptools.com) 
 */

FILE_DESCRIPTION(
/* description */ (''),
/* implementation_level */ '2;1');

FILE_NAME(
/* name */ 'SEWCP-700_ALIGNMENT_PIN.step',
/* time_stamp */ '2026-08-11T18:03:24+05:30',
/* author */ (''),
/* organization */ (''),
/* preprocessor_version */ 'ST-DEVELOPER v20.1',
/* originating_system */ 'Autodesk Translation Framework v15.8.0.0',
/* authorisation */ '');

FILE_SCHEMA (('AUTOMOTIVE_DESIGN { 1 0 10303 214 3 1 1 }'));
ENDSEC;

DATA;
#10=MECHANICAL_DESIGN_GEOMETRIC_PRESENTATION_REPRESENTATION('',(#13),#384);
#11=SHAPE_REPRESENTATION_RELATIONSHIP('SRR','None',#391,#12);
#12=ADVANCED_BREP_SHAPE_REPRESENTATION('',(#14),#383);
#13=STYLED_ITEM('',(#400),#14);
#14=MANIFOLD_SOLID_BREP('AP_BODY',#224);
#15=FACE_BOUND('',#50,.T.);
#16=FACE_BOUND('',#52,.T.);
#17=FACE_BOUND('',#55,.T.);
#18=CIRCLE('',#246,0.3);
#19=CIRCLE('',#247,0.3);
#20=CIRCLE('',#250,0.5);
#21=CIRCLE('',#251,0.2);
#22=CIRCLE('',#253,0.5);
#23=CIRCLE('',#256,0.2);
#24=CYLINDRICAL_SURFACE('',#245,0.3);
#25=CYLINDRICAL_SURFACE('',#252,0.5);
#26=CYLINDRICAL_SURFACE('',#255,0.2);
#27=FACE_OUTER_BOUND('',#41,.T.);
#28=FACE_OUTER_BOUND('',#42,.T.);
#29=FACE_OUTER_BOUND('',#43,.T.);
#30=FACE_OUTER_BOUND('',#44,.T.);
#31=FACE_OUTER_BOUND('',#45,.T.);
#32=FACE_OUTER_BOUND('',#46,.T.);
#33=FACE_OUTER_BOUND('',#47,.T.);
#34=FACE_OUTER_BOUND('',#48,.T.);
#35=FACE_OUTER_BOUND('',#49,.T.);
#36=FACE_OUTER_BOUND('',#51,.T.);
#37=FACE_OUTER_BOUND('',#53,.T.);
#38=FACE_OUTER_BOUND('',#54,.T.);
#39=FACE_OUTER_BOUND('',#56,.T.);
#40=FACE_OUTER_BOUND('',#57,.T.);
#41=EDGE_LOOP('',(#145,#146,#147,#148));
#42=EDGE_LOOP('',(#149,#150,#151,#152));
#43=EDGE_LOOP('',(#153,#154,#155,#156));
#44=EDGE_LOOP('',(#157,#158,#159,#160));
#45=EDGE_LOOP('',(#161,#162,#163,#164));
#46=EDGE_LOOP('',(#165,#166,#167,#168));
#47=EDGE_LOOP('',(#169,#170,#171,#172,#173,#174));
#48=EDGE_LOOP('',(#175,#176,#177,#178));
#49=EDGE_LOOP('',(#179));
#50=EDGE_LOOP('',(#180,#181,#182,#183,#184,#185));
#51=EDGE_LOOP('',(#186));
#52=EDGE_LOOP('',(#187));
#53=EDGE_LOOP('',(#188,#189,#190,#191));
#54=EDGE_LOOP('',(#192));
#55=EDGE_LOOP('',(#193));
#56=EDGE_LOOP('',(#194,#195,#196,#197));
#57=EDGE_LOOP('',(#198));
#58=LINE('',#325,#79);
#59=LINE('',#327,#80);
#60=LINE('',#329,#81);
#61=LINE('',#330,#82);
#62=LINE('',#333,#83);
#63=LINE('',#335,#84);
#64=LINE('',#336,#85);
#65=LINE('',#339,#86);
#66=LINE('',#341,#87);
#67=LINE('',#342,#88);
#68=LINE('',#345,#89);
#69=LINE('',#347,#90);
#70=LINE('',#348,#91);
#71=LINE('',#351,#92);
#72=LINE('',#353,#93);
#73=LINE('',#354,#94);
#74=LINE('',#356,#95);
#75=LINE('',#357,#96);
#76=LINE('',#363,#97);
#77=LINE('',#374,#98);
#78=LINE('',#378,#99);
#79=VECTOR('',#262,1.);
#80=VECTOR('',#263,1.);
#81=VECTOR('',#264,1.);
#82=VECTOR('',#265,1.);
#83=VECTOR('',#268,1.);
#84=VECTOR('',#269,1.);
#85=VECTOR('',#270,1.);
#86=VECTOR('',#273,1.);
#87=VECTOR('',#274,1.);
#88=VECTOR('',#275,1.);
#89=VECTOR('',#278,1.);
#90=VECTOR('',#279,1.);
#91=VECTOR('',#280,1.);
#92=VECTOR('',#283,1.);
#93=VECTOR('',#284,1.);
#94=VECTOR('',#285,1.);
#95=VECTOR('',#288,1.);
#96=VECTOR('',#289,1.);
#97=VECTOR('',#296,0.3);
#98=VECTOR('',#311,0.5);
#99=VECTOR('',#316,0.2);
#100=VERTEX_POINT('',#323);
#101=VERTEX_POINT('',#324);
#102=VERTEX_POINT('',#326);
#103=VERTEX_POINT('',#328);
#104=VERTEX_POINT('',#332);
#105=VERTEX_POINT('',#334);
#106=VERTEX_POINT('',#338);
#107=VERTEX_POINT('',#340);
#108=VERTEX_POINT('',#344);
#109=VERTEX_POINT('',#346);
#110=VERTEX_POINT('',#350);
#111=VERTEX_POINT('',#352);
#112=VERTEX_POINT('',#360);
#113=VERTEX_POINT('',#362);
#114=VERTEX_POINT('',#367);
#115=VERTEX_POINT('',#369);
#116=VERTEX_POINT('',#372);
#117=VERTEX_POINT('',#377);
#118=EDGE_CURVE('',#100,#101,#58,.T.);
#119=EDGE_CURVE('',#100,#102,#59,.T.);
#120=EDGE_CURVE('',#102,#103,#60,.T.);
#121=EDGE_CURVE('',#101,#103,#61,.T.);
#122=EDGE_CURVE('',#104,#100,#62,.T.);
#123=EDGE_CURVE('',#104,#105,#63,.T.);
#124=EDGE_CURVE('',#105,#102,#64,.T.);
#125=EDGE_CURVE('',#106,#104,#65,.T.);
#126=EDGE_CURVE('',#106,#107,#66,.T.);
#127=EDGE_CURVE('',#107,#105,#67,.T.);
#128=EDGE_CURVE('',#108,#106,#68,.T.);
#129=EDGE_CURVE('',#108,#109,#69,.T.);
#130=EDGE_CURVE('',#109,#107,#70,.T.);
#131=EDGE_CURVE('',#110,#108,#71,.T.);
#132=EDGE_CURVE('',#110,#111,#72,.T.);
#133=EDGE_CURVE('',#111,#109,#73,.T.);
#134=EDGE_CURVE('',#101,#110,#74,.T.);
#135=EDGE_CURVE('',#103,#111,#75,.T.);
#136=EDGE_CURVE('',#112,#112,#18,.T.);
#137=EDGE_CURVE('',#112,#113,#76,.T.);
#138=EDGE_CURVE('',#113,#113,#19,.T.);
#139=EDGE_CURVE('',#114,#114,#20,.T.);
#140=EDGE_CURVE('',#115,#115,#21,.T.);
#141=EDGE_CURVE('',#116,#116,#22,.T.);
#142=EDGE_CURVE('',#116,#114,#77,.T.);
#143=EDGE_CURVE('',#115,#117,#78,.T.);
#144=EDGE_CURVE('',#117,#117,#23,.T.);
#145=ORIENTED_EDGE('',*,*,#118,.F.);
#146=ORIENTED_EDGE('',*,*,#119,.T.);
#147=ORIENTED_EDGE('',*,*,#120,.T.);
#148=ORIENTED_EDGE('',*,*,#121,.F.);
#149=ORIENTED_EDGE('',*,*,#122,.F.);
#150=ORIENTED_EDGE('',*,*,#123,.T.);
#151=ORIENTED_EDGE('',*,*,#124,.T.);
#152=ORIENTED_EDGE('',*,*,#119,.F.);
#153=ORIENTED_EDGE('',*,*,#125,.F.);
#154=ORIENTED_EDGE('',*,*,#126,.T.);
#155=ORIENTED_EDGE('',*,*,#127,.T.);
#156=ORIENTED_EDGE('',*,*,#123,.F.);
#157=ORIENTED_EDGE('',*,*,#128,.F.);
#158=ORIENTED_EDGE('',*,*,#129,.T.);
#159=ORIENTED_EDGE('',*,*,#130,.T.);
#160=ORIENTED_EDGE('',*,*,#126,.F.);
#161=ORIENTED_EDGE('',*,*,#131,.F.);
#162=ORIENTED_EDGE('',*,*,#132,.T.);
#163=ORIENTED_EDGE('',*,*,#133,.T.);
#164=ORIENTED_EDGE('',*,*,#129,.F.);
#165=ORIENTED_EDGE('',*,*,#134,.F.);
#166=ORIENTED_EDGE('',*,*,#121,.T.);
#167=ORIENTED_EDGE('',*,*,#135,.T.);
#168=ORIENTED_EDGE('',*,*,#132,.F.);
#169=ORIENTED_EDGE('',*,*,#135,.F.);
#170=ORIENTED_EDGE('',*,*,#120,.F.);
#171=ORIENTED_EDGE('',*,*,#124,.F.);
#172=ORIENTED_EDGE('',*,*,#127,.F.);
#173=ORIENTED_EDGE('',*,*,#130,.F.);
#174=ORIENTED_EDGE('',*,*,#133,.F.);
#175=ORIENTED_EDGE('',*,*,#136,.F.);
#176=ORIENTED_EDGE('',*,*,#137,.T.);
#177=ORIENTED_EDGE('',*,*,#138,.F.);
#178=ORIENTED_EDGE('',*,*,#137,.F.);
#179=ORIENTED_EDGE('',*,*,#136,.T.);
#180=ORIENTED_EDGE('',*,*,#118,.T.);
#181=ORIENTED_EDGE('',*,*,#134,.T.);
#182=ORIENTED_EDGE('',*,*,#131,.T.);
#183=ORIENTED_EDGE('',*,*,#128,.T.);
#184=ORIENTED_EDGE('',*,*,#125,.T.);
#185=ORIENTED_EDGE('',*,*,#122,.T.);
#186=ORIENTED_EDGE('',*,*,#139,.F.);
#187=ORIENTED_EDGE('',*,*,#140,.T.);
#188=ORIENTED_EDGE('',*,*,#141,.F.);
#189=ORIENTED_EDGE('',*,*,#142,.T.);
#190=ORIENTED_EDGE('',*,*,#139,.T.);
#191=ORIENTED_EDGE('',*,*,#142,.F.);
#192=ORIENTED_EDGE('',*,*,#141,.T.);
#193=ORIENTED_EDGE('',*,*,#138,.T.);
#194=ORIENTED_EDGE('',*,*,#140,.F.);
#195=ORIENTED_EDGE('',*,*,#143,.T.);
#196=ORIENTED_EDGE('',*,*,#144,.T.);
#197=ORIENTED_EDGE('',*,*,#143,.F.);
#198=ORIENTED_EDGE('',*,*,#144,.F.);
#199=PLANE('',#238);
#200=PLANE('',#239);
#201=PLANE('',#240);
#202=PLANE('',#241);
#203=PLANE('',#242);
#204=PLANE('',#243);
#205=PLANE('',#244);
#206=PLANE('',#248);
#207=PLANE('',#249);
#208=PLANE('',#254);
#209=PLANE('',#257);
#210=ADVANCED_FACE('',(#27),#199,.F.);
#211=ADVANCED_FACE('',(#28),#200,.F.);
#212=ADVANCED_FACE('',(#29),#201,.F.);
#213=ADVANCED_FACE('',(#30),#202,.F.);
#214=ADVANCED_FACE('',(#31),#203,.F.);
#215=ADVANCED_FACE('',(#32),#204,.F.);
#216=ADVANCED_FACE('',(#33),#205,.F.);
#217=ADVANCED_FACE('',(#34),#24,.T.);
#218=ADVANCED_FACE('',(#35,#15),#206,.T.);
#219=ADVANCED_FACE('',(#36,#16),#207,.F.);
#220=ADVANCED_FACE('',(#37),#25,.T.);
#221=ADVANCED_FACE('',(#38,#17),#208,.T.);
#222=ADVANCED_FACE('',(#39),#26,.T.);
#223=ADVANCED_FACE('',(#40),#209,.F.);
#224=CLOSED_SHELL('',(#210,#211,#212,#213,#214,#215,#216,#217,#218,#219,
#220,#221,#222,#223));
#225=DERIVED_UNIT_ELEMENT(#227,1.);
#226=DERIVED_UNIT_ELEMENT(#386,-3.);
#227=(
MASS_UNIT()
NAMED_UNIT(*)
SI_UNIT(.KILO.,.GRAM.)
);
#228=DERIVED_UNIT((#225,#226));
#229=MEASURE_REPRESENTATION_ITEM('density measure',
POSITIVE_RATIO_MEASURE(4430.),#228);
#230=PROPERTY_DEFINITION_REPRESENTATION(#235,#232);
#231=PROPERTY_DEFINITION_REPRESENTATION(#236,#233);
#232=REPRESENTATION('material name',(#234),#383);
#233=REPRESENTATION('density',(#229),#383);
#234=DESCRIPTIVE_REPRESENTATION_ITEM('Titanium 6Al-4V',
'Titanium 6Al-4V');
#235=PROPERTY_DEFINITION('material property','material name',#393);
#236=PROPERTY_DEFINITION('material property','density of part',#393);
#237=AXIS2_PLACEMENT_3D('',#321,#258,#259);
#238=AXIS2_PLACEMENT_3D('',#322,#260,#261);
#239=AXIS2_PLACEMENT_3D('',#331,#266,#267);
#240=AXIS2_PLACEMENT_3D('',#337,#271,#272);
#241=AXIS2_PLACEMENT_3D('',#343,#276,#277);
#242=AXIS2_PLACEMENT_3D('',#349,#281,#282);
#243=AXIS2_PLACEMENT_3D('',#355,#286,#287);
#244=AXIS2_PLACEMENT_3D('',#358,#290,#291);
#245=AXIS2_PLACEMENT_3D('',#359,#292,#293);
#246=AXIS2_PLACEMENT_3D('',#361,#294,#295);
#247=AXIS2_PLACEMENT_3D('',#364,#297,#298);
#248=AXIS2_PLACEMENT_3D('',#365,#299,#300);
#249=AXIS2_PLACEMENT_3D('',#366,#301,#302);
#250=AXIS2_PLACEMENT_3D('',#368,#303,#304);
#251=AXIS2_PLACEMENT_3D('',#370,#305,#306);
#252=AXIS2_PLACEMENT_3D('',#371,#307,#308);
#253=AXIS2_PLACEMENT_3D('',#373,#309,#310);
#254=AXIS2_PLACEMENT_3D('',#375,#312,#313);
#255=AXIS2_PLACEMENT_3D('',#376,#314,#315);
#256=AXIS2_PLACEMENT_3D('',#379,#317,#318);
#257=AXIS2_PLACEMENT_3D('',#380,#319,#320);
#258=DIRECTION('axis',(0.,0.,1.));
#259=DIRECTION('refdir',(1.,0.,0.));
#260=DIRECTION('center_axis',(0.866025254730535,0.500000258168845,0.));
#261=DIRECTION('ref_axis',(0.500000258168845,-0.866025254730535,0.));
#262=DIRECTION('',(0.500000258168845,-0.866025254730535,0.));
#263=DIRECTION('',(0.,0.,-1.));
#264=DIRECTION('',(0.500000258168845,-0.866025254730535,0.));
#265=DIRECTION('',(0.,0.,-1.));
#266=DIRECTION('center_axis',(0.,1.,0.));
#267=DIRECTION('ref_axis',(1.,0.,0.));
#268=DIRECTION('',(1.,0.,0.));
#269=DIRECTION('',(0.,0.,-1.));
#270=DIRECTION('',(1.,0.,0.));
#271=DIRECTION('center_axis',(-0.866025254730535,0.500000258168845,0.));
#272=DIRECTION('ref_axis',(0.500000258168845,0.866025254730535,0.));
#273=DIRECTION('',(0.500000258168845,0.866025254730535,0.));
#274=DIRECTION('',(0.,0.,-1.));
#275=DIRECTION('',(0.500000258168845,0.866025254730535,0.));
#276=DIRECTION('center_axis',(-0.866025254730535,-0.500000258168845,0.));
#277=DIRECTION('ref_axis',(-0.500000258168845,0.866025254730535,0.));
#278=DIRECTION('',(-0.500000258168845,0.866025254730535,0.));
#279=DIRECTION('',(0.,0.,-1.));
#280=DIRECTION('',(-0.500000258168845,0.866025254730535,0.));
#281=DIRECTION('center_axis',(0.,-1.,0.));
#282=DIRECTION('ref_axis',(-1.,0.,0.));
#283=DIRECTION('',(-1.,0.,0.));
#284=DIRECTION('',(0.,0.,-1.));
#285=DIRECTION('',(-1.,0.,0.));
#286=DIRECTION('center_axis',(0.866025254730535,-0.500000258168845,0.));
#287=DIRECTION('ref_axis',(-0.500000258168845,-0.866025254730535,0.));
#288=DIRECTION('',(-0.500000258168845,-0.866025254730535,0.));
#289=DIRECTION('',(-0.500000258168845,-0.866025254730535,0.));
#290=DIRECTION('center_axis',(0.,0.,-1.));
#291=DIRECTION('ref_axis',(-1.,0.,0.));
#292=DIRECTION('center_axis',(0.,0.,1.));
#293=DIRECTION('ref_axis',(1.,0.,0.));
#294=DIRECTION('center_axis',(0.,0.,1.));
#295=DIRECTION('ref_axis',(1.,0.,0.));
#296=DIRECTION('',(0.,0.,-1.));
#297=DIRECTION('center_axis',(0.,0.,-1.));
#298=DIRECTION('ref_axis',(1.,0.,0.));
#299=DIRECTION('center_axis',(0.,0.,1.));
#300=DIRECTION('ref_axis',(1.,0.,0.));
#301=DIRECTION('center_axis',(0.,0.,1.));
#302=DIRECTION('ref_axis',(1.,0.,0.));
#303=DIRECTION('center_axis',(0.,0.,1.));
#304=DIRECTION('ref_axis',(1.,0.,0.));
#305=DIRECTION('center_axis',(0.,0.,1.));
#306=DIRECTION('ref_axis',(1.,0.,0.));
#307=DIRECTION('center_axis',(0.,0.,1.));
#308=DIRECTION('ref_axis',(1.,0.,0.));
#309=DIRECTION('center_axis',(0.,0.,1.));
#310=DIRECTION('ref_axis',(1.,0.,0.));
#311=DIRECTION('',(0.,0.,-1.));
#312=DIRECTION('center_axis',(0.,0.,1.));
#313=DIRECTION('ref_axis',(1.,0.,0.));
#314=DIRECTION('center_axis',(0.,0.,1.));
#315=DIRECTION('ref_axis',(1.,0.,0.));
#316=DIRECTION('',(0.,0.,-1.));
#317=DIRECTION('center_axis',(0.,0.,1.));
#318=DIRECTION('ref_axis',(1.,0.,0.));
#319=DIRECTION('center_axis',(0.,0.,1.));
#320=DIRECTION('ref_axis',(1.,0.,0.));
#321=CARTESIAN_POINT('',(0.,0.,0.));
#322=CARTESIAN_POINT('Origin',(0.0866025,0.15,0.95));
#323=CARTESIAN_POINT('',(0.0866025,0.15,0.95));
#324=CARTESIAN_POINT('',(0.1732051,0.,0.95));
#325=CARTESIAN_POINT('',(0.108253140141914,0.112500017074694,0.95));
#326=CARTESIAN_POINT('',(0.0866025,0.15,0.75));
#327=CARTESIAN_POINT('',(0.0866025,0.15,0.95));
#328=CARTESIAN_POINT('',(0.1732051,0.,0.75));
#329=CARTESIAN_POINT('',(0.1732051,0.,0.75));
#330=CARTESIAN_POINT('',(0.1732051,0.,0.95));
#331=CARTESIAN_POINT('Origin',(-0.0866025,0.15,0.95));
#332=CARTESIAN_POINT('',(-0.0866025,0.15,0.95));
#333=CARTESIAN_POINT('',(-0.04330125,0.15,0.95));
#334=CARTESIAN_POINT('',(-0.0866025,0.15,0.75));
#335=CARTESIAN_POINT('',(-0.0866025,0.15,0.95));
#336=CARTESIAN_POINT('',(0.0866025,0.15,0.75));
#337=CARTESIAN_POINT('Origin',(-0.1732051,0.,0.95));
#338=CARTESIAN_POINT('',(-0.1732051,0.,0.95));
#339=CARTESIAN_POINT('',(-0.151554440141914,0.0375000170746941,0.95));
#340=CARTESIAN_POINT('',(-0.1732051,0.,0.75));
#341=CARTESIAN_POINT('',(-0.1732051,0.,0.95));
#342=CARTESIAN_POINT('',(-0.0866025,0.15,0.75));
#343=CARTESIAN_POINT('Origin',(-0.0866025,-0.15,0.95));
#344=CARTESIAN_POINT('',(-0.0866025,-0.15,0.95));
#345=CARTESIAN_POINT('',(-0.108253140141914,-0.112500017074694,0.95));
#346=CARTESIAN_POINT('',(-0.0866025,-0.15,0.75));
#347=CARTESIAN_POINT('',(-0.0866025,-0.15,0.95));
#348=CARTESIAN_POINT('',(-0.1732051,0.,0.75));
#349=CARTESIAN_POINT('Origin',(0.0866025,-0.15,0.95));
#350=CARTESIAN_POINT('',(0.0866025,-0.15,0.95));
#351=CARTESIAN_POINT('',(0.04330125,-0.15,0.95));
#352=CARTESIAN_POINT('',(0.0866025,-0.15,0.75));
#353=CARTESIAN_POINT('',(0.0866025,-0.15,0.95));
#354=CARTESIAN_POINT('',(-0.0866025,-0.15,0.75));
#355=CARTESIAN_POINT('Origin',(0.1732051,0.,0.95));
#356=CARTESIAN_POINT('',(0.151554440141914,-0.0375000170746941,0.95));
#357=CARTESIAN_POINT('',(0.0866025,-0.15,0.75));
#358=CARTESIAN_POINT('Origin',(0.,0.,0.75));
#359=CARTESIAN_POINT('Origin',(0.,0.,0.7));
#360=CARTESIAN_POINT('',(-0.3,-3.67394039744206E-17,0.95));
#361=CARTESIAN_POINT('Origin',(0.,0.,0.95));
#362=CARTESIAN_POINT('',(-0.3,-3.67394039744206E-17,0.7));
#363=CARTESIAN_POINT('',(-0.3,-3.67394039744206E-17,0.7));
#364=CARTESIAN_POINT('Origin',(0.,0.,0.7));
#365=CARTESIAN_POINT('Origin',(0.,0.,0.95));
#366=CARTESIAN_POINT('Origin',(0.,0.,0.4));
#367=CARTESIAN_POINT('',(-0.5,-6.12323399573677E-17,0.4));
#368=CARTESIAN_POINT('Origin',(0.,0.,0.4));
#369=CARTESIAN_POINT('',(-0.2,-2.44929359829471E-17,0.4));
#370=CARTESIAN_POINT('Origin',(0.,0.,0.4));
#371=CARTESIAN_POINT('Origin',(0.,0.,0.4));
#372=CARTESIAN_POINT('',(-0.5,-6.12323399573677E-17,0.7));
#373=CARTESIAN_POINT('Origin',(0.,0.,0.7));
#374=CARTESIAN_POINT('',(-0.5,-6.12323399573677E-17,0.4));
#375=CARTESIAN_POINT('Origin',(0.,0.,0.7));
#376=CARTESIAN_POINT('Origin',(0.,0.,0.));
#377=CARTESIAN_POINT('',(-0.2,-2.44929359829471E-17,0.));
#378=CARTESIAN_POINT('',(-0.2,-2.44929359829471E-17,0.));
#379=CARTESIAN_POINT('Origin',(0.,0.,0.));
#380=CARTESIAN_POINT('Origin',(0.,0.,0.));
#381=UNCERTAINTY_MEASURE_WITH_UNIT(LENGTH_MEASURE(0.001),#385,
'DISTANCE_ACCURACY_VALUE',
'Maximum model space distance between geometric entities at asserted c
onnectivities');
#382=UNCERTAINTY_MEASURE_WITH_UNIT(LENGTH_MEASURE(0.001),#385,
'DISTANCE_ACCURACY_VALUE',
'Maximum model space distance between geometric entities at asserted c
onnectivities');
#383=(
GEOMETRIC_REPRESENTATION_CONTEXT(3)
GLOBAL_UNCERTAINTY_ASSIGNED_CONTEXT((#381))
GLOBAL_UNIT_ASSIGNED_CONTEXT((#385,#387,#388))
REPRESENTATION_CONTEXT('','3D')
);
#384=(
GEOMETRIC_REPRESENTATION_CONTEXT(3)
GLOBAL_UNCERTAINTY_ASSIGNED_CONTEXT((#382))
GLOBAL_UNIT_ASSIGNED_CONTEXT((#385,#387,#388))
REPRESENTATION_CONTEXT('','3D')
);
#385=(
LENGTH_UNIT()
NAMED_UNIT(*)
SI_UNIT(.CENTI.,.METRE.)
);
#386=(
LENGTH_UNIT()
NAMED_UNIT(*)
SI_UNIT($,.METRE.)
);
#387=(
NAMED_UNIT(*)
PLANE_ANGLE_UNIT()
SI_UNIT($,.RADIAN.)
);
#388=(
NAMED_UNIT(*)
SI_UNIT($,.STERADIAN.)
SOLID_ANGLE_UNIT()
);
#389=SHAPE_DEFINITION_REPRESENTATION(#390,#391);
#390=PRODUCT_DEFINITION_SHAPE('',$,#393);
#391=SHAPE_REPRESENTATION('',(#237),#383);
#392=PRODUCT_DEFINITION_CONTEXT('part definition',#397,'design');
#393=PRODUCT_DEFINITION('SEWCP-700_ALIGNMENT_PIN',
'SEWCP-700_ALIGNMENT_PIN v2',#394,#392);
#394=PRODUCT_DEFINITION_FORMATION('',$,#399);
#395=PRODUCT_RELATED_PRODUCT_CATEGORY('SEWCP-700_ALIGNMENT_PIN v2',
'SEWCP-700_ALIGNMENT_PIN v2',(#399));
#396=APPLICATION_PROTOCOL_DEFINITION('international standard',
'automotive_design',2009,#397);
#397=APPLICATION_CONTEXT(
'Core Data for Automotive Mechanical Design Process');
#398=PRODUCT_CONTEXT('part definition',#397,'mechanical');
#399=PRODUCT('SEWCP-700_ALIGNMENT_PIN','SEWCP-700_ALIGNMENT_PIN v2',$,(#398));
#400=PRESENTATION_STYLE_ASSIGNMENT((#401));
#401=SURFACE_STYLE_USAGE(.BOTH.,#402);
#402=SURFACE_SIDE_STYLE('',(#403));
#403=SURFACE_STYLE_FILL_AREA(#404);
#404=FILL_AREA_STYLE('Titanium - Polished',(#405));
#405=FILL_AREA_STYLE_COLOUR('Titanium - Polished',#406);
#406=COLOUR_RGB('Titanium - Polished',0.749019607843137,0.729411764705882,
0.701960784313725);
ENDSEC;
END-ISO-10303-21;
