ISO-10303-21;
HEADER;
/* Generated by software containing ST-Developer
 * from STEP Tools, Inc. (www.steptools.com) 
 */

FILE_DESCRIPTION(
/* description */ (''),
/* implementation_level */ '2;1');

FILE_NAME(
/* name */ 'SEWCP-1000_RETAINER.step',
/* time_stamp */ '2026-08-11T18:20:25+05:30',
/* author */ (''),
/* organization */ (''),
/* preprocessor_version */ 'ST-DEVELOPER v20.1',
/* originating_system */ 'Autodesk Translation Framework v15.8.0.0',
/* authorisation */ '');

FILE_SCHEMA (('AUTOMOTIVE_DESIGN { 1 0 10303 214 3 1 1 }'));
ENDSEC;

DATA;
#10=MECHANICAL_DESIGN_GEOMETRIC_PRESENTATION_REPRESENTATION('',(#13),#749);
#11=SHAPE_REPRESENTATION_RELATIONSHIP('SRR','None',#756,#12);
#12=ADVANCED_BREP_SHAPE_REPRESENTATION('',(#14),#748);
#13=STYLED_ITEM('',(#765),#14);
#14=MANIFOLD_SOLID_BREP('TR_BODY',#393);
#15=B_SPLINE_CURVE_WITH_KNOTS('',3,(#636,#637,#638,#639,#640,#641,#642,
#643,#644,#645,#646,#647,#648,#649,#650,#651,#652,#653,#654,#655,#656,#657,
#658,#659,#660,#661,#662,#663,#664,#665,#666,#667,#668,#669,#670,#671,#672,
#673),.UNSPECIFIED.,.F.,.F.,(4,2,2,2,2,2,2,2,2,2,2,2,2,2,2,2,2,2,4),(0.,
0.0502804504170991,0.100560900834198,0.201121801668396,0.250609439665121,
0.300097077661846,0.345581234870075,0.391065392078303,0.437323212385659,
0.483581032693015,0.529838853000371,0.576096673307727,0.621580830515956,
0.667064987724184,0.716552625720909,0.766040263717634,0.866601164551832,
0.916881614968931,0.96716206538603),.UNSPECIFIED.);
#16=B_SPLINE_CURVE_WITH_KNOTS('',3,(#677,#678,#679,#680,#681,#682,#683,
#684,#685,#686,#687,#688,#689,#690,#691,#692,#693,#694,#695,#696,#697,#698,
#699,#700,#701,#702,#703,#704,#705,#706,#707,#708,#709,#710,#711,#712,#713,
#714),.UNSPECIFIED.,.F.,.F.,(4,2,2,2,2,2,2,2,2,2,2,2,2,2,2,2,2,2,4),(0.96716206538603,
1.01744251580313,1.06772296622023,1.16828386705443,1.21777150505115,1.26725914304788,
1.3127433002561,1.35822745746433,1.40448527777169,1.45074309807905,1.4970009183864,
1.54325873869376,1.58874289590199,1.63422705311021,1.68371469110694,1.73320232910366,
1.83376322993786,1.88404368035496,1.93432413077206),.UNSPECIFIED.);
#17=FACE_BOUND('',#61,.T.);
#18=FACE_BOUND('',#64,.T.);
#19=FACE_BOUND('',#68,.T.);
#20=FACE_BOUND('',#71,.T.);
#21=FACE_BOUND('',#74,.T.);
#22=FACE_BOUND('',#75,.T.);
#23=FACE_BOUND('',#76,.T.);
#24=PLANE('',#413);
#25=PLANE('',#414);
#26=PLANE('',#420);
#27=PLANE('',#423);
#28=PLANE('',#427);
#29=PLANE('',#442);
#30=PLANE('',#443);
#31=PLANE('',#444);
#32=PLANE('',#445);
#33=PLANE('',#446);
#34=FACE_OUTER_BOUND('',#52,.T.);
#35=FACE_OUTER_BOUND('',#53,.T.);
#36=FACE_OUTER_BOUND('',#54,.T.);
#37=FACE_OUTER_BOUND('',#55,.T.);
#38=FACE_OUTER_BOUND('',#56,.T.);
#39=FACE_OUTER_BOUND('',#57,.T.);
#40=FACE_OUTER_BOUND('',#58,.T.);
#41=FACE_OUTER_BOUND('',#59,.T.);
#42=FACE_OUTER_BOUND('',#60,.T.);
#43=FACE_OUTER_BOUND('',#62,.T.);
#44=FACE_OUTER_BOUND('',#63,.T.);
#45=FACE_OUTER_BOUND('',#65,.T.);
#46=FACE_OUTER_BOUND('',#66,.T.);
#47=FACE_OUTER_BOUND('',#67,.T.);
#48=FACE_OUTER_BOUND('',#69,.T.);
#49=FACE_OUTER_BOUND('',#70,.T.);
#50=FACE_OUTER_BOUND('',#72,.T.);
#51=FACE_OUTER_BOUND('',#73,.T.);
#52=EDGE_LOOP('',(#255,#256,#257,#258));
#53=EDGE_LOOP('',(#259,#260,#261,#262));
#54=EDGE_LOOP('',(#263,#264,#265,#266));
#55=EDGE_LOOP('',(#267,#268,#269));
#56=EDGE_LOOP('',(#270,#271,#272,#273));
#57=EDGE_LOOP('',(#274,#275,#276,#277));
#58=EDGE_LOOP('',(#278,#279,#280,#281));
#59=EDGE_LOOP('',(#282,#283,#284,#285,#286,#287,#288));
#60=EDGE_LOOP('',(#289,#290,#291,#292,#293,#294,#295,#296,#297,#298,#299,
#300,#301,#302,#303));
#61=EDGE_LOOP('',(#304));
#62=EDGE_LOOP('',(#305,#306,#307,#308,#309,#310,#311,#312,#313,#314,#315,
#316,#317,#318,#319,#320));
#63=EDGE_LOOP('',(#321,#322,#323,#324));
#64=EDGE_LOOP('',(#325,#326));
#65=EDGE_LOOP('',(#327,#328,#329,#330));
#66=EDGE_LOOP('',(#331,#332,#333,#334,#335,#336,#337,#338));
#67=EDGE_LOOP('',(#339,#340,#341,#342));
#68=EDGE_LOOP('',(#343));
#69=EDGE_LOOP('',(#344,#345,#346,#347,#348,#349,#350));
#70=EDGE_LOOP('',(#351,#352,#353,#354));
#71=EDGE_LOOP('',(#355));
#72=EDGE_LOOP('',(#356,#357,#358,#359));
#73=EDGE_LOOP('',(#360,#361,#362,#363));
#74=EDGE_LOOP('',(#364));
#75=EDGE_LOOP('',(#365));
#76=EDGE_LOOP('',(#366));
#77=CIRCLE('',#408,0.1);
#78=CIRCLE('',#409,0.1);
#79=CIRCLE('',#411,0.1);
#80=CIRCLE('',#412,0.1);
#81=CIRCLE('',#415,0.225);
#82=CIRCLE('',#416,0.1);
#83=CIRCLE('',#417,0.1);
#84=CIRCLE('',#419,0.1);
#85=CIRCLE('',#422,0.1);
#86=CIRCLE('',#424,0.0875);
#87=CIRCLE('',#425,0.225);
#88=CIRCLE('',#426,0.225);
#89=CIRCLE('',#428,0.225);
#90=CIRCLE('',#429,0.225);
#91=CIRCLE('',#430,0.0875);
#92=CIRCLE('',#431,0.0875);
#93=CIRCLE('',#432,0.225);
#94=CIRCLE('',#434,0.225);
#95=CIRCLE('',#436,0.15);
#96=CIRCLE('',#437,0.15);
#97=CIRCLE('',#439,0.225);
#98=CIRCLE('',#441,0.0875);
#99=LINE('',#565,#131);
#100=LINE('',#569,#132);
#101=LINE('',#574,#133);
#102=LINE('',#578,#134);
#103=LINE('',#583,#135);
#104=LINE('',#584,#136);
#105=LINE('',#585,#137);
#106=LINE('',#595,#138);
#107=LINE('',#597,#139);
#108=LINE('',#602,#140);
#109=LINE('',#603,#141);
#110=LINE('',#604,#142);
#111=LINE('',#607,#143);
#112=LINE('',#609,#144);
#113=LINE('',#618,#145);
#114=LINE('',#620,#146);
#115=LINE('',#622,#147);
#116=LINE('',#624,#148);
#117=LINE('',#625,#149);
#118=LINE('',#634,#150);
#119=LINE('',#675,#151);
#120=LINE('',#719,#152);
#121=LINE('',#723,#153);
#122=LINE('',#727,#154);
#123=LINE('',#731,#155);
#124=LINE('',#733,#156);
#125=LINE('',#734,#157);
#126=LINE('',#737,#158);
#127=LINE('',#738,#159);
#128=LINE('',#741,#160);
#129=LINE('',#742,#161);
#130=LINE('',#744,#162);
#131=VECTOR('',#451,1.);
#132=VECTOR('',#454,1.);
#133=VECTOR('',#459,1.);
#134=VECTOR('',#462,1.);
#135=VECTOR('',#467,1.);
#136=VECTOR('',#468,1.);
#137=VECTOR('',#469,1.);
#138=VECTOR('',#480,1.);
#139=VECTOR('',#481,1.);
#140=VECTOR('',#486,1.);
#141=VECTOR('',#487,1.);
#142=VECTOR('',#488,1.);
#143=VECTOR('',#491,1.);
#144=VECTOR('',#494,1.);
#145=VECTOR('',#507,1.);
#146=VECTOR('',#508,1.);
#147=VECTOR('',#509,1.);
#148=VECTOR('',#510,1.);
#149=VECTOR('',#511,1.);
#150=VECTOR('',#522,0.225);
#151=VECTOR('',#523,0.225);
#152=VECTOR('',#530,0.15);
#153=VECTOR('',#535,0.225);
#154=VECTOR('',#540,0.0875);
#155=VECTOR('',#545,1.);
#156=VECTOR('',#546,1.);
#157=VECTOR('',#547,1.);
#158=VECTOR('',#550,1.);
#159=VECTOR('',#551,1.);
#160=VECTOR('',#554,1.);
#161=VECTOR('',#555,1.);
#162=VECTOR('',#558,1.);
#163=VERTEX_POINT('',#563);
#164=VERTEX_POINT('',#564);
#165=VERTEX_POINT('',#566);
#166=VERTEX_POINT('',#568);
#167=VERTEX_POINT('',#572);
#168=VERTEX_POINT('',#573);
#169=VERTEX_POINT('',#575);
#170=VERTEX_POINT('',#577);
#171=VERTEX_POINT('',#581);
#172=VERTEX_POINT('',#582);
#173=VERTEX_POINT('',#587);
#174=VERTEX_POINT('',#588);
#175=VERTEX_POINT('',#590);
#176=VERTEX_POINT('',#594);
#177=VERTEX_POINT('',#596);
#178=VERTEX_POINT('',#600);
#179=VERTEX_POINT('',#601);
#180=VERTEX_POINT('',#606);
#181=VERTEX_POINT('',#612);
#182=VERTEX_POINT('',#617);
#183=VERTEX_POINT('',#619);
#184=VERTEX_POINT('',#621);
#185=VERTEX_POINT('',#623);
#186=VERTEX_POINT('',#627);
#187=VERTEX_POINT('',#630);
#188=VERTEX_POINT('',#633);
#189=VERTEX_POINT('',#635);
#190=VERTEX_POINT('',#674);
#191=VERTEX_POINT('',#716);
#192=VERTEX_POINT('',#718);
#193=VERTEX_POINT('',#722);
#194=VERTEX_POINT('',#726);
#195=VERTEX_POINT('',#730);
#196=VERTEX_POINT('',#732);
#197=VERTEX_POINT('',#736);
#198=VERTEX_POINT('',#740);
#199=EDGE_CURVE('',#163,#164,#99,.T.);
#200=EDGE_CURVE('',#165,#163,#77,.T.);
#201=EDGE_CURVE('',#165,#166,#100,.T.);
#202=EDGE_CURVE('',#166,#164,#78,.T.);
#203=EDGE_CURVE('',#167,#168,#101,.T.);
#204=EDGE_CURVE('',#167,#169,#79,.T.);
#205=EDGE_CURVE('',#170,#169,#102,.T.);
#206=EDGE_CURVE('',#168,#170,#80,.T.);
#207=EDGE_CURVE('',#171,#172,#103,.T.);
#208=EDGE_CURVE('',#170,#171,#104,.T.);
#209=EDGE_CURVE('',#169,#172,#105,.T.);
#210=EDGE_CURVE('',#173,#174,#81,.T.);
#211=EDGE_CURVE('',#175,#173,#82,.T.);
#212=EDGE_CURVE('',#174,#175,#83,.T.);
#213=EDGE_CURVE('',#174,#176,#106,.T.);
#214=EDGE_CURVE('',#177,#175,#107,.T.);
#215=EDGE_CURVE('',#176,#177,#84,.T.);
#216=EDGE_CURVE('',#178,#179,#108,.T.);
#217=EDGE_CURVE('',#178,#166,#109,.T.);
#218=EDGE_CURVE('',#179,#165,#110,.T.);
#219=EDGE_CURVE('',#180,#173,#111,.T.);
#220=EDGE_CURVE('',#177,#180,#85,.T.);
#221=EDGE_CURVE('',#177,#175,#112,.T.);
#222=EDGE_CURVE('',#164,#167,#86,.T.);
#223=EDGE_CURVE('',#181,#178,#87,.T.);
#224=EDGE_CURVE('',#172,#181,#88,.T.);
#225=EDGE_CURVE('',#171,#176,#89,.T.);
#226=EDGE_CURVE('',#182,#177,#113,.T.);
#227=EDGE_CURVE('',#183,#182,#114,.T.);
#228=EDGE_CURVE('',#184,#183,#115,.T.);
#229=EDGE_CURVE('',#185,#184,#116,.T.);
#230=EDGE_CURVE('',#177,#185,#117,.T.);
#231=EDGE_CURVE('',#180,#179,#90,.T.);
#232=EDGE_CURVE('',#163,#186,#91,.T.);
#233=EDGE_CURVE('',#186,#168,#92,.T.);
#234=EDGE_CURVE('',#187,#187,#93,.T.);
#235=EDGE_CURVE('',#181,#188,#118,.T.);
#236=EDGE_CURVE('',#188,#189,#15,.T.);
#237=EDGE_CURVE('',#189,#190,#119,.T.);
#238=EDGE_CURVE('',#190,#190,#94,.T.);
#239=EDGE_CURVE('',#189,#188,#16,.T.);
#240=EDGE_CURVE('',#191,#191,#95,.T.);
#241=EDGE_CURVE('',#191,#192,#120,.T.);
#242=EDGE_CURVE('',#192,#192,#96,.T.);
#243=EDGE_CURVE('',#187,#193,#121,.T.);
#244=EDGE_CURVE('',#193,#193,#97,.T.);
#245=EDGE_CURVE('',#186,#194,#122,.T.);
#246=EDGE_CURVE('',#194,#194,#98,.T.);
#247=EDGE_CURVE('',#184,#195,#123,.T.);
#248=EDGE_CURVE('',#196,#195,#124,.T.);
#249=EDGE_CURVE('',#185,#196,#125,.T.);
#250=EDGE_CURVE('',#197,#196,#126,.T.);
#251=EDGE_CURVE('',#182,#197,#127,.T.);
#252=EDGE_CURVE('',#198,#197,#128,.T.);
#253=EDGE_CURVE('',#183,#198,#129,.T.);
#254=EDGE_CURVE('',#195,#198,#130,.T.);
#255=ORIENTED_EDGE('',*,*,#199,.F.);
#256=ORIENTED_EDGE('',*,*,#200,.F.);
#257=ORIENTED_EDGE('',*,*,#201,.T.);
#258=ORIENTED_EDGE('',*,*,#202,.T.);
#259=ORIENTED_EDGE('',*,*,#203,.F.);
#260=ORIENTED_EDGE('',*,*,#204,.T.);
#261=ORIENTED_EDGE('',*,*,#205,.F.);
#262=ORIENTED_EDGE('',*,*,#206,.F.);
#263=ORIENTED_EDGE('',*,*,#207,.F.);
#264=ORIENTED_EDGE('',*,*,#208,.F.);
#265=ORIENTED_EDGE('',*,*,#205,.T.);
#266=ORIENTED_EDGE('',*,*,#209,.T.);
#267=ORIENTED_EDGE('',*,*,#210,.F.);
#268=ORIENTED_EDGE('',*,*,#211,.F.);
#269=ORIENTED_EDGE('',*,*,#212,.F.);
#270=ORIENTED_EDGE('',*,*,#213,.F.);
#271=ORIENTED_EDGE('',*,*,#212,.T.);
#272=ORIENTED_EDGE('',*,*,#214,.F.);
#273=ORIENTED_EDGE('',*,*,#215,.F.);
#274=ORIENTED_EDGE('',*,*,#216,.F.);
#275=ORIENTED_EDGE('',*,*,#217,.T.);
#276=ORIENTED_EDGE('',*,*,#201,.F.);
#277=ORIENTED_EDGE('',*,*,#218,.F.);
#278=ORIENTED_EDGE('',*,*,#219,.F.);
#279=ORIENTED_EDGE('',*,*,#220,.F.);
#280=ORIENTED_EDGE('',*,*,#221,.T.);
#281=ORIENTED_EDGE('',*,*,#211,.T.);
#282=ORIENTED_EDGE('',*,*,#222,.F.);
#283=ORIENTED_EDGE('',*,*,#202,.F.);
#284=ORIENTED_EDGE('',*,*,#217,.F.);
#285=ORIENTED_EDGE('',*,*,#223,.F.);
#286=ORIENTED_EDGE('',*,*,#224,.F.);
#287=ORIENTED_EDGE('',*,*,#209,.F.);
#288=ORIENTED_EDGE('',*,*,#204,.F.);
#289=ORIENTED_EDGE('',*,*,#206,.T.);
#290=ORIENTED_EDGE('',*,*,#208,.T.);
#291=ORIENTED_EDGE('',*,*,#225,.T.);
#292=ORIENTED_EDGE('',*,*,#215,.T.);
#293=ORIENTED_EDGE('',*,*,#226,.F.);
#294=ORIENTED_EDGE('',*,*,#227,.F.);
#295=ORIENTED_EDGE('',*,*,#228,.F.);
#296=ORIENTED_EDGE('',*,*,#229,.F.);
#297=ORIENTED_EDGE('',*,*,#230,.F.);
#298=ORIENTED_EDGE('',*,*,#220,.T.);
#299=ORIENTED_EDGE('',*,*,#231,.T.);
#300=ORIENTED_EDGE('',*,*,#218,.T.);
#301=ORIENTED_EDGE('',*,*,#200,.T.);
#302=ORIENTED_EDGE('',*,*,#232,.T.);
#303=ORIENTED_EDGE('',*,*,#233,.T.);
#304=ORIENTED_EDGE('',*,*,#234,.T.);
#305=ORIENTED_EDGE('',*,*,#207,.T.);
#306=ORIENTED_EDGE('',*,*,#224,.T.);
#307=ORIENTED_EDGE('',*,*,#235,.T.);
#308=ORIENTED_EDGE('',*,*,#236,.T.);
#309=ORIENTED_EDGE('',*,*,#237,.T.);
#310=ORIENTED_EDGE('',*,*,#238,.F.);
#311=ORIENTED_EDGE('',*,*,#237,.F.);
#312=ORIENTED_EDGE('',*,*,#239,.T.);
#313=ORIENTED_EDGE('',*,*,#235,.F.);
#314=ORIENTED_EDGE('',*,*,#223,.T.);
#315=ORIENTED_EDGE('',*,*,#216,.T.);
#316=ORIENTED_EDGE('',*,*,#231,.F.);
#317=ORIENTED_EDGE('',*,*,#219,.T.);
#318=ORIENTED_EDGE('',*,*,#210,.T.);
#319=ORIENTED_EDGE('',*,*,#213,.T.);
#320=ORIENTED_EDGE('',*,*,#225,.F.);
#321=ORIENTED_EDGE('',*,*,#240,.F.);
#322=ORIENTED_EDGE('',*,*,#241,.T.);
#323=ORIENTED_EDGE('',*,*,#242,.F.);
#324=ORIENTED_EDGE('',*,*,#241,.F.);
#325=ORIENTED_EDGE('',*,*,#236,.F.);
#326=ORIENTED_EDGE('',*,*,#239,.F.);
#327=ORIENTED_EDGE('',*,*,#234,.F.);
#328=ORIENTED_EDGE('',*,*,#243,.T.);
#329=ORIENTED_EDGE('',*,*,#244,.F.);
#330=ORIENTED_EDGE('',*,*,#243,.F.);
#331=ORIENTED_EDGE('',*,*,#203,.T.);
#332=ORIENTED_EDGE('',*,*,#233,.F.);
#333=ORIENTED_EDGE('',*,*,#245,.T.);
#334=ORIENTED_EDGE('',*,*,#246,.F.);
#335=ORIENTED_EDGE('',*,*,#245,.F.);
#336=ORIENTED_EDGE('',*,*,#232,.F.);
#337=ORIENTED_EDGE('',*,*,#199,.T.);
#338=ORIENTED_EDGE('',*,*,#222,.T.);
#339=ORIENTED_EDGE('',*,*,#229,.T.);
#340=ORIENTED_EDGE('',*,*,#247,.T.);
#341=ORIENTED_EDGE('',*,*,#248,.F.);
#342=ORIENTED_EDGE('',*,*,#249,.F.);
#343=ORIENTED_EDGE('',*,*,#242,.T.);
#344=ORIENTED_EDGE('',*,*,#226,.T.);
#345=ORIENTED_EDGE('',*,*,#214,.T.);
#346=ORIENTED_EDGE('',*,*,#221,.F.);
#347=ORIENTED_EDGE('',*,*,#230,.T.);
#348=ORIENTED_EDGE('',*,*,#249,.T.);
#349=ORIENTED_EDGE('',*,*,#250,.F.);
#350=ORIENTED_EDGE('',*,*,#251,.F.);
#351=ORIENTED_EDGE('',*,*,#227,.T.);
#352=ORIENTED_EDGE('',*,*,#251,.T.);
#353=ORIENTED_EDGE('',*,*,#252,.F.);
#354=ORIENTED_EDGE('',*,*,#253,.F.);
#355=ORIENTED_EDGE('',*,*,#240,.T.);
#356=ORIENTED_EDGE('',*,*,#228,.T.);
#357=ORIENTED_EDGE('',*,*,#253,.T.);
#358=ORIENTED_EDGE('',*,*,#254,.F.);
#359=ORIENTED_EDGE('',*,*,#247,.F.);
#360=ORIENTED_EDGE('',*,*,#254,.T.);
#361=ORIENTED_EDGE('',*,*,#252,.T.);
#362=ORIENTED_EDGE('',*,*,#250,.T.);
#363=ORIENTED_EDGE('',*,*,#248,.T.);
#364=ORIENTED_EDGE('',*,*,#238,.T.);
#365=ORIENTED_EDGE('',*,*,#244,.T.);
#366=ORIENTED_EDGE('',*,*,#246,.T.);
#367=CYLINDRICAL_SURFACE('',#407,0.1);
#368=CYLINDRICAL_SURFACE('',#410,0.1);
#369=CYLINDRICAL_SURFACE('',#418,0.1);
#370=CYLINDRICAL_SURFACE('',#421,0.1);
#371=CYLINDRICAL_SURFACE('',#433,0.225);
#372=CYLINDRICAL_SURFACE('',#435,0.15);
#373=CYLINDRICAL_SURFACE('',#438,0.225);
#374=CYLINDRICAL_SURFACE('',#440,0.0875);
#375=ADVANCED_FACE('',(#34),#367,.F.);
#376=ADVANCED_FACE('',(#35),#368,.F.);
#377=ADVANCED_FACE('',(#36),#24,.F.);
#378=ADVANCED_FACE('',(#37),#25,.F.);
#379=ADVANCED_FACE('',(#38),#369,.F.);
#380=ADVANCED_FACE('',(#39),#26,.F.);
#381=ADVANCED_FACE('',(#40),#370,.F.);
#382=ADVANCED_FACE('',(#41),#27,.F.);
#383=ADVANCED_FACE('',(#42,#17),#28,.F.);
#384=ADVANCED_FACE('',(#43),#371,.F.);
#385=ADVANCED_FACE('',(#44,#18),#372,.F.);
#386=ADVANCED_FACE('',(#45),#373,.F.);
#387=ADVANCED_FACE('',(#46),#374,.F.);
#388=ADVANCED_FACE('',(#47,#19),#29,.T.);
#389=ADVANCED_FACE('',(#48),#30,.T.);
#390=ADVANCED_FACE('',(#49,#20),#31,.T.);
#391=ADVANCED_FACE('',(#50),#32,.T.);
#392=ADVANCED_FACE('',(#51,#21,#22,#23),#33,.T.);
#393=CLOSED_SHELL('',(#375,#376,#377,#378,#379,#380,#381,#382,#383,#384,
#385,#386,#387,#388,#389,#390,#391,#392));
#394=DERIVED_UNIT_ELEMENT(#396,1.);
#395=DERIVED_UNIT_ELEMENT(#751,-3.);
#396=(
MASS_UNIT()
NAMED_UNIT(*)
SI_UNIT(.KILO.,.GRAM.)
);
#397=DERIVED_UNIT((#394,#395));
#398=MEASURE_REPRESENTATION_ITEM('density measure',
POSITIVE_RATIO_MEASURE(2700.),#397);
#399=PROPERTY_DEFINITION_REPRESENTATION(#404,#401);
#400=PROPERTY_DEFINITION_REPRESENTATION(#405,#402);
#401=REPRESENTATION('material name',(#403),#748);
#402=REPRESENTATION('density',(#398),#748);
#403=DESCRIPTIVE_REPRESENTATION_ITEM('Aluminum 6061','Aluminum 6061');
#404=PROPERTY_DEFINITION('material property','material name',#758);
#405=PROPERTY_DEFINITION('material property','density of part',#758);
#406=AXIS2_PLACEMENT_3D('',#561,#447,#448);
#407=AXIS2_PLACEMENT_3D('',#562,#449,#450);
#408=AXIS2_PLACEMENT_3D('',#567,#452,#453);
#409=AXIS2_PLACEMENT_3D('',#570,#455,#456);
#410=AXIS2_PLACEMENT_3D('',#571,#457,#458);
#411=AXIS2_PLACEMENT_3D('',#576,#460,#461);
#412=AXIS2_PLACEMENT_3D('',#579,#463,#464);
#413=AXIS2_PLACEMENT_3D('',#580,#465,#466);
#414=AXIS2_PLACEMENT_3D('',#586,#470,#471);
#415=AXIS2_PLACEMENT_3D('',#589,#472,#473);
#416=AXIS2_PLACEMENT_3D('',#591,#474,#475);
#417=AXIS2_PLACEMENT_3D('',#592,#476,#477);
#418=AXIS2_PLACEMENT_3D('',#593,#478,#479);
#419=AXIS2_PLACEMENT_3D('',#598,#482,#483);
#420=AXIS2_PLACEMENT_3D('',#599,#484,#485);
#421=AXIS2_PLACEMENT_3D('',#605,#489,#490);
#422=AXIS2_PLACEMENT_3D('',#608,#492,#493);
#423=AXIS2_PLACEMENT_3D('',#610,#495,#496);
#424=AXIS2_PLACEMENT_3D('',#611,#497,#498);
#425=AXIS2_PLACEMENT_3D('',#613,#499,#500);
#426=AXIS2_PLACEMENT_3D('',#614,#501,#502);
#427=AXIS2_PLACEMENT_3D('',#615,#503,#504);
#428=AXIS2_PLACEMENT_3D('',#616,#505,#506);
#429=AXIS2_PLACEMENT_3D('',#626,#512,#513);
#430=AXIS2_PLACEMENT_3D('',#628,#514,#515);
#431=AXIS2_PLACEMENT_3D('',#629,#516,#517);
#432=AXIS2_PLACEMENT_3D('',#631,#518,#519);
#433=AXIS2_PLACEMENT_3D('',#632,#520,#521);
#434=AXIS2_PLACEMENT_3D('',#676,#524,#525);
#435=AXIS2_PLACEMENT_3D('',#715,#526,#527);
#436=AXIS2_PLACEMENT_3D('',#717,#528,#529);
#437=AXIS2_PLACEMENT_3D('',#720,#531,#532);
#438=AXIS2_PLACEMENT_3D('',#721,#533,#534);
#439=AXIS2_PLACEMENT_3D('',#724,#536,#537);
#440=AXIS2_PLACEMENT_3D('',#725,#538,#539);
#441=AXIS2_PLACEMENT_3D('',#728,#541,#542);
#442=AXIS2_PLACEMENT_3D('',#729,#543,#544);
#443=AXIS2_PLACEMENT_3D('',#735,#548,#549);
#444=AXIS2_PLACEMENT_3D('',#739,#552,#553);
#445=AXIS2_PLACEMENT_3D('',#743,#556,#557);
#446=AXIS2_PLACEMENT_3D('',#745,#559,#560);
#447=DIRECTION('axis',(0.,0.,1.));
#448=DIRECTION('refdir',(1.,0.,0.));
#449=DIRECTION('center_axis',(0.,0.,1.));
#450=DIRECTION('ref_axis',(-1.38777878078145E-16,1.,0.));
#451=DIRECTION('',(0.,0.,1.));
#452=DIRECTION('center_axis',(0.,0.,1.));
#453=DIRECTION('ref_axis',(-1.38777878078145E-16,1.,0.));
#454=DIRECTION('',(0.,0.,1.));
#455=DIRECTION('center_axis',(0.,0.,1.));
#456=DIRECTION('ref_axis',(-1.38777878078145E-16,1.,0.));
#457=DIRECTION('center_axis',(0.,0.,1.));
#458=DIRECTION('ref_axis',(-1.38777878078145E-16,1.,0.));
#459=DIRECTION('',(0.,0.,-1.));
#460=DIRECTION('center_axis',(0.,0.,1.));
#461=DIRECTION('ref_axis',(-1.38777878078145E-16,1.,0.));
#462=DIRECTION('',(0.,0.,1.));
#463=DIRECTION('center_axis',(0.,0.,1.));
#464=DIRECTION('ref_axis',(-1.38777878078145E-16,1.,0.));
#465=DIRECTION('center_axis',(0.,-1.,0.));
#466=DIRECTION('ref_axis',(1.,0.,0.));
#467=DIRECTION('',(0.,0.,1.));
#468=DIRECTION('',(1.,0.,0.));
#469=DIRECTION('',(1.,0.,0.));
#470=DIRECTION('center_axis',(0.,0.,1.));
#471=DIRECTION('ref_axis',(1.,0.,0.));
#472=DIRECTION('center_axis',(0.,0.,-1.));
#473=DIRECTION('ref_axis',(1.,0.,0.));
#474=DIRECTION('center_axis',(0.,0.,1.));
#475=DIRECTION('ref_axis',(0.,-1.,0.));
#476=DIRECTION('center_axis',(0.,0.,1.));
#477=DIRECTION('ref_axis',(0.,-1.,0.));
#478=DIRECTION('center_axis',(0.,0.,1.));
#479=DIRECTION('ref_axis',(0.,-1.,0.));
#480=DIRECTION('',(0.,0.,-1.));
#481=DIRECTION('',(0.,0.,1.));
#482=DIRECTION('center_axis',(0.,0.,1.));
#483=DIRECTION('ref_axis',(0.,-1.,0.));
#484=DIRECTION('center_axis',(0.,1.,0.));
#485=DIRECTION('ref_axis',(-1.,0.,0.));
#486=DIRECTION('',(0.,0.,-1.));
#487=DIRECTION('',(-1.,0.,0.));
#488=DIRECTION('',(-1.,0.,0.));
#489=DIRECTION('center_axis',(0.,0.,1.));
#490=DIRECTION('ref_axis',(0.,-1.,0.));
#491=DIRECTION('',(0.,0.,1.));
#492=DIRECTION('center_axis',(0.,0.,1.));
#493=DIRECTION('ref_axis',(0.,-1.,0.));
#494=DIRECTION('',(0.,0.,1.));
#495=DIRECTION('center_axis',(0.,0.,1.));
#496=DIRECTION('ref_axis',(1.,0.,0.));
#497=DIRECTION('center_axis',(0.,0.,-1.));
#498=DIRECTION('ref_axis',(1.,0.,0.));
#499=DIRECTION('center_axis',(0.,0.,-1.));
#500=DIRECTION('ref_axis',(1.,0.,0.));
#501=DIRECTION('center_axis',(0.,0.,-1.));
#502=DIRECTION('ref_axis',(1.,0.,0.));
#503=DIRECTION('center_axis',(0.,0.,1.));
#504=DIRECTION('ref_axis',(1.,0.,0.));
#505=DIRECTION('center_axis',(0.,0.,1.));
#506=DIRECTION('ref_axis',(1.,0.,0.));
#507=DIRECTION('',(0.,1.,0.));
#508=DIRECTION('',(1.,0.,0.));
#509=DIRECTION('',(0.,-1.,0.));
#510=DIRECTION('',(-1.,0.,0.));
#511=DIRECTION('',(0.,1.,0.));
#512=DIRECTION('center_axis',(0.,0.,1.));
#513=DIRECTION('ref_axis',(1.,0.,0.));
#514=DIRECTION('center_axis',(0.,0.,1.));
#515=DIRECTION('ref_axis',(1.,0.,0.));
#516=DIRECTION('center_axis',(0.,0.,1.));
#517=DIRECTION('ref_axis',(1.,0.,0.));
#518=DIRECTION('center_axis',(0.,0.,1.));
#519=DIRECTION('ref_axis',(1.,0.,0.));
#520=DIRECTION('center_axis',(0.,0.,1.));
#521=DIRECTION('ref_axis',(1.,0.,0.));
#522=DIRECTION('',(0.,0.,1.));
#523=DIRECTION('',(0.,0.,1.));
#524=DIRECTION('center_axis',(0.,0.,-1.));
#525=DIRECTION('ref_axis',(1.,0.,0.));
#526=DIRECTION('center_axis',(0.,1.,0.));
#527=DIRECTION('ref_axis',(1.,0.,0.));
#528=DIRECTION('center_axis',(0.,1.,0.));
#529=DIRECTION('ref_axis',(1.,0.,0.));
#530=DIRECTION('',(0.,1.,0.));
#531=DIRECTION('center_axis',(0.,-1.,0.));
#532=DIRECTION('ref_axis',(1.,0.,0.));
#533=DIRECTION('center_axis',(0.,0.,1.));
#534=DIRECTION('ref_axis',(1.,0.,0.));
#535=DIRECTION('',(0.,0.,1.));
#536=DIRECTION('center_axis',(0.,0.,-1.));
#537=DIRECTION('ref_axis',(1.,0.,0.));
#538=DIRECTION('center_axis',(0.,0.,1.));
#539=DIRECTION('ref_axis',(1.,0.,0.));
#540=DIRECTION('',(0.,0.,1.));
#541=DIRECTION('center_axis',(0.,0.,-1.));
#542=DIRECTION('ref_axis',(1.,0.,0.));
#543=DIRECTION('center_axis',(0.,1.,0.));
#544=DIRECTION('ref_axis',(-1.,0.,0.));
#545=DIRECTION('',(0.,0.,1.));
#546=DIRECTION('',(-1.,0.,0.));
#547=DIRECTION('',(0.,0.,1.));
#548=DIRECTION('center_axis',(1.,0.,0.));
#549=DIRECTION('ref_axis',(0.,1.,0.));
#550=DIRECTION('',(0.,1.,0.));
#551=DIRECTION('',(0.,0.,1.));
#552=DIRECTION('center_axis',(0.,-1.,0.));
#553=DIRECTION('ref_axis',(1.,0.,0.));
#554=DIRECTION('',(1.,0.,0.));
#555=DIRECTION('',(0.,0.,1.));
#556=DIRECTION('center_axis',(-1.,0.,0.));
#557=DIRECTION('ref_axis',(0.,-1.,0.));
#558=DIRECTION('',(0.,-1.,0.));
#559=DIRECTION('center_axis',(0.,0.,1.));
#560=DIRECTION('ref_axis',(1.,0.,0.));
#561=CARTESIAN_POINT('',(0.,0.,0.));
#562=CARTESIAN_POINT('Origin',(0.1,0.,0.));
#563=CARTESIAN_POINT('',(0.03828125,0.0786816109293493,0.));
#564=CARTESIAN_POINT('',(0.03828125,0.0786816109293493,0.1));
#565=CARTESIAN_POINT('',(0.03828125,0.0786816109293493,0.));
#566=CARTESIAN_POINT('',(0.1,0.1,0.));
#567=CARTESIAN_POINT('Origin',(0.1,0.,0.));
#568=CARTESIAN_POINT('',(0.1,0.1,0.1));
#569=CARTESIAN_POINT('',(0.1,0.1,0.));
#570=CARTESIAN_POINT('Origin',(0.1,0.,0.1));
#571=CARTESIAN_POINT('Origin',(0.1,0.,0.));
#572=CARTESIAN_POINT('',(0.03828125,-0.0786816109293493,0.1));
#573=CARTESIAN_POINT('',(0.03828125,-0.0786816109293493,0.));
#574=CARTESIAN_POINT('',(0.03828125,-0.0786816109293493,0.));
#575=CARTESIAN_POINT('',(0.1,-0.1,0.1));
#576=CARTESIAN_POINT('Origin',(0.1,0.,0.1));
#577=CARTESIAN_POINT('',(0.1,-0.1,0.));
#578=CARTESIAN_POINT('',(0.1,-0.1,0.));
#579=CARTESIAN_POINT('Origin',(0.1,0.,0.));
#580=CARTESIAN_POINT('Origin',(0.1,-0.1,0.));
#581=CARTESIAN_POINT('',(0.698443556292536,-0.1,0.));
#582=CARTESIAN_POINT('',(0.698443556292536,-0.1,0.1));
#583=CARTESIAN_POINT('',(0.698443556292536,-0.1,0.));
#584=CARTESIAN_POINT('',(0.05,-0.1,0.));
#585=CARTESIAN_POINT('',(1.1,-0.1,0.1));
#586=CARTESIAN_POINT('Origin',(0.6,0.,0.1));
#587=CARTESIAN_POINT('',(1.1015625,0.099987792223601,0.1));
#588=CARTESIAN_POINT('',(1.1015625,-0.099987792223601,0.1));
#589=CARTESIAN_POINT('Origin',(0.9,0.,0.1));
#590=CARTESIAN_POINT('',(1.2,0.,0.1));
#591=CARTESIAN_POINT('Origin',(1.1,0.,0.1));
#592=CARTESIAN_POINT('Origin',(1.1,0.,0.1));
#593=CARTESIAN_POINT('Origin',(1.1,0.,0.));
#594=CARTESIAN_POINT('',(1.1015625,-0.099987792223601,0.));
#595=CARTESIAN_POINT('',(1.1015625,-0.099987792223601,0.));
#596=CARTESIAN_POINT('',(1.2,0.,0.));
#597=CARTESIAN_POINT('',(1.2,0.,0.));
#598=CARTESIAN_POINT('Origin',(1.1,0.,0.));
#599=CARTESIAN_POINT('Origin',(1.1,0.1,0.));
#600=CARTESIAN_POINT('',(0.698443556292536,0.1,0.1));
#601=CARTESIAN_POINT('',(0.698443556292536,0.1,0.));
#602=CARTESIAN_POINT('',(0.698443556292536,0.1,0.));
#603=CARTESIAN_POINT('',(0.1,0.1,0.1));
#604=CARTESIAN_POINT('',(0.55,0.1,0.));
#605=CARTESIAN_POINT('Origin',(1.1,0.,0.));
#606=CARTESIAN_POINT('',(1.1015625,0.099987792223601,0.));
#607=CARTESIAN_POINT('',(1.1015625,0.099987792223601,0.));
#608=CARTESIAN_POINT('Origin',(1.1,0.,0.));
#609=CARTESIAN_POINT('',(1.2,0.,0.));
#610=CARTESIAN_POINT('Origin',(0.6,0.,0.1));
#611=CARTESIAN_POINT('Origin',(0.,0.,0.1));
#612=CARTESIAN_POINT('',(0.675,-2.75545529808154E-17,0.1));
#613=CARTESIAN_POINT('Origin',(0.9,0.,0.1));
#614=CARTESIAN_POINT('Origin',(0.9,0.,0.1));
#615=CARTESIAN_POINT('Origin',(0.,0.,0.));
#616=CARTESIAN_POINT('Origin',(0.9,0.,0.));
#617=CARTESIAN_POINT('',(1.2,-0.8,0.));
#618=CARTESIAN_POINT('',(1.2,-0.8,0.));
#619=CARTESIAN_POINT('',(-1.2,-0.8,0.));
#620=CARTESIAN_POINT('',(-1.2,-0.8,0.));
#621=CARTESIAN_POINT('',(-1.2,0.8,0.));
#622=CARTESIAN_POINT('',(-1.2,0.8,0.));
#623=CARTESIAN_POINT('',(1.2,0.8,0.));
#624=CARTESIAN_POINT('',(1.2,0.8,0.));
#625=CARTESIAN_POINT('',(1.2,-0.8,0.));
#626=CARTESIAN_POINT('Origin',(0.9,0.,0.));
#627=CARTESIAN_POINT('',(-0.0875,-1.07156594925393E-17,0.));
#628=CARTESIAN_POINT('Origin',(0.,0.,0.));
#629=CARTESIAN_POINT('Origin',(0.,0.,0.));
#630=CARTESIAN_POINT('',(-1.125,-2.75545529808154E-17,0.));
#631=CARTESIAN_POINT('Origin',(-0.9,0.,0.));
#632=CARTESIAN_POINT('Origin',(0.9,0.,0.));
#633=CARTESIAN_POINT('',(0.675,-1.73472347597681E-18,0.517084380241115));
#634=CARTESIAN_POINT('',(0.675,-2.75545529808154E-17,0.));
#635=CARTESIAN_POINT('',(0.675,-3.3726596464141E-17,0.682915619758885));
#636=CARTESIAN_POINT('Ctrl Pts',(0.675,-1.73472347597681E-18,0.517084380241115));
#637=CARTESIAN_POINT('Ctrl Pts',(0.675,-0.016760150139033,0.517084380241115));
#638=CARTESIAN_POINT('Ctrl Pts',(0.676858724951445,-0.0330384933658135,
0.514154263244716));
#639=CARTESIAN_POINT('Ctrl Pts',(0.683826827203002,-0.0644438947509171,
0.504935274099386));
#640=CARTESIAN_POINT('Ctrl Pts',(0.688945683113724,-0.0795967080462076,
0.498741569744704));
#641=CARTESIAN_POINT('Ctrl Pts',(0.708962474446816,-0.123077353397027,0.479345879598413));
#642=CARTESIAN_POINT('Ctrl Pts',(0.728654913996112,-0.149412938927012,0.465524254923496));
#643=CARTESIAN_POINT('Ctrl Pts',(0.765465197232717,-0.181057172700355,0.453471714122923));
#644=CARTESIAN_POINT('Ctrl Pts',(0.780096609828316,-0.191204566502175,0.450506646701166));
#645=CARTESIAN_POINT('Ctrl Pts',(0.811350983550247,-0.207550864423106,0.449615284175763));
#646=CARTESIAN_POINT('Ctrl Pts',(0.827976747497456,-0.213748487602763,0.451765416394742));
#647=CARTESIAN_POINT('Ctrl Pts',(0.85738606040086,-0.221406605827945,0.460632657871356));
#648=CARTESIAN_POINT('Ctrl Pts',(0.872179131606037,-0.223671044061013,0.467514901145404));
#649=CARTESIAN_POINT('Ctrl Pts',(0.898787152953545,-0.225391360697752,0.485968305219978));
#650=CARTESIAN_POINT('Ctrl Pts',(0.9105953343763,-0.224936866010163,0.497540760928145));
#651=CARTESIAN_POINT('Ctrl Pts',(0.928994490299449,-0.223318273439787,0.521913449224522));
#652=CARTESIAN_POINT('Ctrl Pts',(0.936968535741552,-0.222006566862406,0.536654812002984));
#653=CARTESIAN_POINT('Ctrl Pts',(0.947472332556562,-0.219999926032301,0.567985907159664));
#654=CARTESIAN_POINT('Ctrl Pts',(0.95,-0.219374109684803,0.584580726564215));
#655=CARTESIAN_POINT('Ctrl Pts',(0.95,-0.219374109684803,0.615419273435785));
#656=CARTESIAN_POINT('Ctrl Pts',(0.947472332556563,-0.219999926032301,0.632014092840336));
#657=CARTESIAN_POINT('Ctrl Pts',(0.936968535741552,-0.222006566862406,0.663345187997016));
#658=CARTESIAN_POINT('Ctrl Pts',(0.928994490299449,-0.223318273439787,0.678086550775478));
#659=CARTESIAN_POINT('Ctrl Pts',(0.9105953343763,-0.224936866010163,0.702459239071854));
#660=CARTESIAN_POINT('Ctrl Pts',(0.898787152953545,-0.225391360697752,0.714031694780021));
#661=CARTESIAN_POINT('Ctrl Pts',(0.872179131606037,-0.223671044061013,0.732485098854595));
#662=CARTESIAN_POINT('Ctrl Pts',(0.85738606040086,-0.221406605827945,0.739367342128644));
#663=CARTESIAN_POINT('Ctrl Pts',(0.827976747497456,-0.213748487602763,0.748234583605258));
#664=CARTESIAN_POINT('Ctrl Pts',(0.811350983550247,-0.207550864423106,0.750384715824237));
#665=CARTESIAN_POINT('Ctrl Pts',(0.780096609828316,-0.191204566502175,0.749493353298834));
#666=CARTESIAN_POINT('Ctrl Pts',(0.765465197232717,-0.181057172700355,0.746528285877077));
#667=CARTESIAN_POINT('Ctrl Pts',(0.728654913996112,-0.149412938927012,0.734475745076504));
#668=CARTESIAN_POINT('Ctrl Pts',(0.708962474446816,-0.123077353397027,0.720654120401587));
#669=CARTESIAN_POINT('Ctrl Pts',(0.688945683113724,-0.0795967080462077,
0.701258430255296));
#670=CARTESIAN_POINT('Ctrl Pts',(0.683826827203002,-0.0644438947509171,
0.695064725900614));
#671=CARTESIAN_POINT('Ctrl Pts',(0.676858724951445,-0.0330384933658135,
0.685845736755284));
#672=CARTESIAN_POINT('Ctrl Pts',(0.675,-0.016760150139033,0.682915619758885));
#673=CARTESIAN_POINT('Ctrl Pts',(0.675,3.98986399474666E-17,0.682915619758885));
#674=CARTESIAN_POINT('',(0.675,-2.75545529808154E-17,1.2));
#675=CARTESIAN_POINT('',(0.675,-2.75545529808154E-17,0.));
#676=CARTESIAN_POINT('Origin',(0.9,0.,1.2));
#677=CARTESIAN_POINT('Ctrl Pts',(0.675,-3.98986399474666E-17,0.682915619758885));
#678=CARTESIAN_POINT('Ctrl Pts',(0.675,0.016760150139033,0.682915619758885));
#679=CARTESIAN_POINT('Ctrl Pts',(0.676858724951445,0.0330384933658135,0.685845736755284));
#680=CARTESIAN_POINT('Ctrl Pts',(0.683826827203002,0.0644438947509171,0.695064725900614));
#681=CARTESIAN_POINT('Ctrl Pts',(0.688945683113724,0.0795967080462077,0.701258430255296));
#682=CARTESIAN_POINT('Ctrl Pts',(0.708962474446816,0.123077353397027,0.720654120401587));
#683=CARTESIAN_POINT('Ctrl Pts',(0.728654913996112,0.149412938927012,0.734475745076504));
#684=CARTESIAN_POINT('Ctrl Pts',(0.765465197232717,0.181057172700355,0.746528285877077));
#685=CARTESIAN_POINT('Ctrl Pts',(0.780096609828316,0.191204566502175,0.749493353298834));
#686=CARTESIAN_POINT('Ctrl Pts',(0.811350983550247,0.207550864423106,0.750384715824237));
#687=CARTESIAN_POINT('Ctrl Pts',(0.827976747497456,0.213748487602763,0.748234583605258));
#688=CARTESIAN_POINT('Ctrl Pts',(0.85738606040086,0.221406605827945,0.739367342128644));
#689=CARTESIAN_POINT('Ctrl Pts',(0.872179131606037,0.223671044061013,0.732485098854595));
#690=CARTESIAN_POINT('Ctrl Pts',(0.898787152953545,0.225391360697752,0.714031694780021));
#691=CARTESIAN_POINT('Ctrl Pts',(0.9105953343763,0.224936866010163,0.702459239071854));
#692=CARTESIAN_POINT('Ctrl Pts',(0.928994490299449,0.223318273439787,0.678086550775478));
#693=CARTESIAN_POINT('Ctrl Pts',(0.936968535741552,0.222006566862406,0.663345187997016));
#694=CARTESIAN_POINT('Ctrl Pts',(0.947472332556562,0.219999926032301,0.632014092840336));
#695=CARTESIAN_POINT('Ctrl Pts',(0.95,0.219374109684803,0.615419273435785));
#696=CARTESIAN_POINT('Ctrl Pts',(0.95,0.219374109684803,0.584580726564215));
#697=CARTESIAN_POINT('Ctrl Pts',(0.947472332556563,0.219999926032301,0.567985907159664));
#698=CARTESIAN_POINT('Ctrl Pts',(0.936968535741552,0.222006566862406,0.536654812002984));
#699=CARTESIAN_POINT('Ctrl Pts',(0.928994490299449,0.223318273439787,0.521913449224522));
#700=CARTESIAN_POINT('Ctrl Pts',(0.9105953343763,0.224936866010163,0.497540760928146));
#701=CARTESIAN_POINT('Ctrl Pts',(0.898787152953545,0.225391360697752,0.485968305219978));
#702=CARTESIAN_POINT('Ctrl Pts',(0.872179131606037,0.223671044061013,0.467514901145404));
#703=CARTESIAN_POINT('Ctrl Pts',(0.85738606040086,0.221406605827945,0.460632657871356));
#704=CARTESIAN_POINT('Ctrl Pts',(0.827976747497456,0.213748487602763,0.451765416394742));
#705=CARTESIAN_POINT('Ctrl Pts',(0.811350983550247,0.207550864423106,0.449615284175763));
#706=CARTESIAN_POINT('Ctrl Pts',(0.780096609828316,0.191204566502175,0.450506646701166));
#707=CARTESIAN_POINT('Ctrl Pts',(0.765465197232717,0.181057172700355,0.453471714122923));
#708=CARTESIAN_POINT('Ctrl Pts',(0.728654913996112,0.149412938927012,0.465524254923496));
#709=CARTESIAN_POINT('Ctrl Pts',(0.708962474446816,0.123077353397027,0.479345879598413));
#710=CARTESIAN_POINT('Ctrl Pts',(0.688945683113724,0.0795967080462076,0.498741569744704));
#711=CARTESIAN_POINT('Ctrl Pts',(0.683826827203002,0.0644438947509171,0.504935274099386));
#712=CARTESIAN_POINT('Ctrl Pts',(0.676858724951445,0.0330384933658135,0.514154263244716));
#713=CARTESIAN_POINT('Ctrl Pts',(0.675,0.016760150139033,0.517084380241115));
#714=CARTESIAN_POINT('Ctrl Pts',(0.675,-3.46944695195361E-18,0.517084380241115));
#715=CARTESIAN_POINT('Origin',(0.8,0.,0.6));
#716=CARTESIAN_POINT('',(0.65,-0.8,0.6));
#717=CARTESIAN_POINT('Origin',(0.8,-0.8,0.6));
#718=CARTESIAN_POINT('',(0.65,0.8,0.6));
#719=CARTESIAN_POINT('',(0.65,0.,0.6));
#720=CARTESIAN_POINT('Origin',(0.8,0.8,0.6));
#721=CARTESIAN_POINT('Origin',(-0.9,0.,0.));
#722=CARTESIAN_POINT('',(-1.125,-2.75545529808154E-17,1.2));
#723=CARTESIAN_POINT('',(-1.125,-2.75545529808154E-17,0.));
#724=CARTESIAN_POINT('Origin',(-0.9,0.,1.2));
#725=CARTESIAN_POINT('Origin',(0.,0.,0.));
#726=CARTESIAN_POINT('',(-0.0875,-1.07156594925393E-17,1.2));
#727=CARTESIAN_POINT('',(-0.0875,-1.07156594925393E-17,0.));
#728=CARTESIAN_POINT('Origin',(0.,0.,1.2));
#729=CARTESIAN_POINT('Origin',(1.2,0.8,0.));
#730=CARTESIAN_POINT('',(-1.2,0.8,1.2));
#731=CARTESIAN_POINT('',(-1.2,0.8,0.));
#732=CARTESIAN_POINT('',(1.2,0.8,1.2));
#733=CARTESIAN_POINT('',(1.2,0.8,1.2));
#734=CARTESIAN_POINT('',(1.2,0.8,0.));
#735=CARTESIAN_POINT('Origin',(1.2,-0.8,0.));
#736=CARTESIAN_POINT('',(1.2,-0.8,1.2));
#737=CARTESIAN_POINT('',(1.2,-0.8,1.2));
#738=CARTESIAN_POINT('',(1.2,-0.8,0.));
#739=CARTESIAN_POINT('Origin',(-1.2,-0.8,0.));
#740=CARTESIAN_POINT('',(-1.2,-0.8,1.2));
#741=CARTESIAN_POINT('',(-1.2,-0.8,1.2));
#742=CARTESIAN_POINT('',(-1.2,-0.8,0.));
#743=CARTESIAN_POINT('Origin',(-1.2,0.8,0.));
#744=CARTESIAN_POINT('',(-1.2,0.8,1.2));
#745=CARTESIAN_POINT('Origin',(0.,0.,1.2));
#746=UNCERTAINTY_MEASURE_WITH_UNIT(LENGTH_MEASURE(0.001),#750,
'DISTANCE_ACCURACY_VALUE',
'Maximum model space distance between geometric entities at asserted c
onnectivities');
#747=UNCERTAINTY_MEASURE_WITH_UNIT(LENGTH_MEASURE(0.001),#750,
'DISTANCE_ACCURACY_VALUE',
'Maximum model space distance between geometric entities at asserted c
onnectivities');
#748=(
GEOMETRIC_REPRESENTATION_CONTEXT(3)
GLOBAL_UNCERTAINTY_ASSIGNED_CONTEXT((#746))
GLOBAL_UNIT_ASSIGNED_CONTEXT((#750,#752,#753))
REPRESENTATION_CONTEXT('','3D')
);
#749=(
GEOMETRIC_REPRESENTATION_CONTEXT(3)
GLOBAL_UNCERTAINTY_ASSIGNED_CONTEXT((#747))
GLOBAL_UNIT_ASSIGNED_CONTEXT((#750,#752,#753))
REPRESENTATION_CONTEXT('','3D')
);
#750=(
LENGTH_UNIT()
NAMED_UNIT(*)
SI_UNIT(.CENTI.,.METRE.)
);
#751=(
LENGTH_UNIT()
NAMED_UNIT(*)
SI_UNIT($,.METRE.)
);
#752=(
NAMED_UNIT(*)
PLANE_ANGLE_UNIT()
SI_UNIT($,.RADIAN.)
);
#753=(
NAMED_UNIT(*)
SI_UNIT($,.STERADIAN.)
SOLID_ANGLE_UNIT()
);
#754=SHAPE_DEFINITION_REPRESENTATION(#755,#756);
#755=PRODUCT_DEFINITION_SHAPE('',$,#758);
#756=SHAPE_REPRESENTATION('',(#406),#748);
#757=PRODUCT_DEFINITION_CONTEXT('part definition',#762,'design');
#758=PRODUCT_DEFINITION('SEWCP-1000_RETAINER','SEWCP-1000_RETAINER v2',
#759,#757);
#759=PRODUCT_DEFINITION_FORMATION('',$,#764);
#760=PRODUCT_RELATED_PRODUCT_CATEGORY('SEWCP-1000_RETAINER v2',
'SEWCP-1000_RETAINER v2',(#764));
#761=APPLICATION_PROTOCOL_DEFINITION('international standard',
'automotive_design',2009,#762);
#762=APPLICATION_CONTEXT(
'Core Data for Automotive Mechanical Design Process');
#763=PRODUCT_CONTEXT('part definition',#762,'mechanical');
#764=PRODUCT('SEWCP-1000_RETAINER','SEWCP-1000_RETAINER v2',$,(#763));
#765=PRESENTATION_STYLE_ASSIGNMENT((#766));
#766=SURFACE_STYLE_USAGE(.BOTH.,#767);
#767=SURFACE_SIDE_STYLE('',(#768));
#768=SURFACE_STYLE_FILL_AREA(#769);
#769=FILL_AREA_STYLE('Aluminum - Satin',(#770));
#770=FILL_AREA_STYLE_COLOUR('Aluminum - Satin',#771);
#771=COLOUR_RGB('Aluminum - Satin',0.96078431372549,0.96078431372549,0.964705882352941);
ENDSEC;
END-ISO-10303-21;
