ISO-10303-21;
HEADER;
/* Generated by software containing ST-Developer
 * from STEP Tools, Inc. (www.steptools.com) 
 */

FILE_DESCRIPTION(
/* description */ (''),
/* implementation_level */ '2;1');

FILE_NAME(
/* name */ 'SEWCP-800_PORT_BODY.step',
/* time_stamp */ '2026-08-11T18:23:38+05:30',
/* author */ (''),
/* organization */ (''),
/* preprocessor_version */ 'ST-DEVELOPER v20.1',
/* originating_system */ 'Autodesk Translation Framework v15.8.0.0',
/* authorisation */ '');

FILE_SCHEMA (('AUTOMOTIVE_DESIGN { 1 0 10303 214 3 1 1 }'));
ENDSEC;

DATA;
#10=MECHANICAL_DESIGN_GEOMETRIC_PRESENTATION_REPRESENTATION('',(#13),#551);
#11=SHAPE_REPRESENTATION_RELATIONSHIP('SRR','None',#558,#12);
#12=ADVANCED_BREP_SHAPE_REPRESENTATION('',(#14),#550);
#13=STYLED_ITEM('',(#567),#14);
#14=MANIFOLD_SOLID_BREP('VP_BODY',#307);
#15=FACE_BOUND('',#61,.T.);
#16=FACE_BOUND('',#64,.T.);
#17=FACE_BOUND('',#68,.T.);
#18=FACE_BOUND('',#72,.T.);
#19=FACE_BOUND('',#74,.T.);
#20=FACE_BOUND('',#80,.T.);
#21=FACE_BOUND('',#81,.T.);
#22=FACE_BOUND('',#82,.T.);
#23=FACE_BOUND('',#83,.T.);
#24=FACE_BOUND('',#84,.T.);
#25=FACE_BOUND('',#87,.T.);
#26=FACE_BOUND('',#88,.T.);
#27=FACE_BOUND('',#89,.T.);
#28=FACE_BOUND('',#90,.T.);
#29=FACE_BOUND('',#91,.T.);
#30=FACE_BOUND('',#94,.T.);
#31=PLANE('',#324);
#32=PLANE('',#328);
#33=PLANE('',#335);
#34=PLANE('',#342);
#35=PLANE('',#343);
#36=PLANE('',#357);
#37=PLANE('',#361);
#38=PLANE('',#364);
#39=FACE_OUTER_BOUND('',#59,.T.);
#40=FACE_OUTER_BOUND('',#60,.T.);
#41=FACE_OUTER_BOUND('',#62,.T.);
#42=FACE_OUTER_BOUND('',#63,.T.);
#43=FACE_OUTER_BOUND('',#65,.T.);
#44=FACE_OUTER_BOUND('',#66,.T.);
#45=FACE_OUTER_BOUND('',#67,.T.);
#46=FACE_OUTER_BOUND('',#69,.T.);
#47=FACE_OUTER_BOUND('',#70,.T.);
#48=FACE_OUTER_BOUND('',#71,.T.);
#49=FACE_OUTER_BOUND('',#73,.T.);
#50=FACE_OUTER_BOUND('',#75,.T.);
#51=FACE_OUTER_BOUND('',#76,.T.);
#52=FACE_OUTER_BOUND('',#77,.T.);
#53=FACE_OUTER_BOUND('',#78,.T.);
#54=FACE_OUTER_BOUND('',#79,.T.);
#55=FACE_OUTER_BOUND('',#85,.T.);
#56=FACE_OUTER_BOUND('',#86,.T.);
#57=FACE_OUTER_BOUND('',#92,.T.);
#58=FACE_OUTER_BOUND('',#93,.T.);
#59=EDGE_LOOP('',(#203,#204,#205,#206));
#60=EDGE_LOOP('',(#207));
#61=EDGE_LOOP('',(#208));
#62=EDGE_LOOP('',(#209,#210,#211,#212));
#63=EDGE_LOOP('',(#213));
#64=EDGE_LOOP('',(#214));
#65=EDGE_LOOP('',(#215,#216,#217,#218));
#66=EDGE_LOOP('',(#219,#220,#221,#222));
#67=EDGE_LOOP('',(#223));
#68=EDGE_LOOP('',(#224));
#69=EDGE_LOOP('',(#225,#226,#227,#228));
#70=EDGE_LOOP('',(#229,#230,#231,#232));
#71=EDGE_LOOP('',(#233));
#72=EDGE_LOOP('',(#234));
#73=EDGE_LOOP('',(#235));
#74=EDGE_LOOP('',(#236));
#75=EDGE_LOOP('',(#237,#238,#239,#240));
#76=EDGE_LOOP('',(#241,#242,#243,#244));
#77=EDGE_LOOP('',(#245,#246,#247,#248));
#78=EDGE_LOOP('',(#249,#250,#251,#252));
#79=EDGE_LOOP('',(#253));
#80=EDGE_LOOP('',(#254));
#81=EDGE_LOOP('',(#255));
#82=EDGE_LOOP('',(#256));
#83=EDGE_LOOP('',(#257));
#84=EDGE_LOOP('',(#258));
#85=EDGE_LOOP('',(#259,#260,#261,#262));
#86=EDGE_LOOP('',(#263));
#87=EDGE_LOOP('',(#264));
#88=EDGE_LOOP('',(#265));
#89=EDGE_LOOP('',(#266));
#90=EDGE_LOOP('',(#267));
#91=EDGE_LOOP('',(#268));
#92=EDGE_LOOP('',(#269,#270,#271,#272));
#93=EDGE_LOOP('',(#273));
#94=EDGE_LOOP('',(#274));
#95=LINE('',#472,#107);
#96=LINE('',#480,#108);
#97=LINE('',#486,#109);
#98=LINE('',#492,#110);
#99=LINE('',#499,#111);
#100=LINE('',#505,#112);
#101=LINE('',#515,#113);
#102=LINE('',#521,#114);
#103=LINE('',#527,#115);
#104=LINE('',#533,#116);
#105=LINE('',#541,#117);
#106=LINE('',#546,#118);
#107=VECTOR('',#371,0.3);
#108=VECTOR('',#382,0.2175);
#109=VECTOR('',#389,0.2);
#110=VECTOR('',#396,0.3175);
#111=VECTOR('',#405,1.065);
#112=VECTOR('',#412,1.385);
#113=VECTOR('',#425,0.225);
#114=VECTOR('',#432,0.225);
#115=VECTOR('',#439,0.225);
#116=VECTOR('',#446,0.225);
#117=VECTOR('',#457,2.5);
#118=VECTOR('',#464,0.495);
#119=CIRCLE('',#322,0.3);
#120=CIRCLE('',#323,0.3);
#121=CIRCLE('',#325,0.2175);
#122=CIRCLE('',#327,0.2175);
#123=CIRCLE('',#329,0.2);
#124=CIRCLE('',#331,0.2);
#125=CIRCLE('',#333,0.3175);
#126=CIRCLE('',#334,0.3175);
#127=CIRCLE('',#337,1.065);
#128=CIRCLE('',#338,1.065);
#129=CIRCLE('',#340,1.385);
#130=CIRCLE('',#341,1.385);
#131=CIRCLE('',#344,0.495);
#132=CIRCLE('',#346,0.225);
#133=CIRCLE('',#347,0.225);
#134=CIRCLE('',#349,0.225);
#135=CIRCLE('',#350,0.225);
#136=CIRCLE('',#352,0.225);
#137=CIRCLE('',#353,0.225);
#138=CIRCLE('',#355,0.225);
#139=CIRCLE('',#356,0.225);
#140=CIRCLE('',#358,2.5);
#141=CIRCLE('',#360,2.5);
#142=CIRCLE('',#363,0.495);
#143=VERTEX_POINT('',#469);
#144=VERTEX_POINT('',#471);
#145=VERTEX_POINT('',#475);
#146=VERTEX_POINT('',#478);
#147=VERTEX_POINT('',#482);
#148=VERTEX_POINT('',#485);
#149=VERTEX_POINT('',#489);
#150=VERTEX_POINT('',#491);
#151=VERTEX_POINT('',#496);
#152=VERTEX_POINT('',#498);
#153=VERTEX_POINT('',#502);
#154=VERTEX_POINT('',#504);
#155=VERTEX_POINT('',#509);
#156=VERTEX_POINT('',#512);
#157=VERTEX_POINT('',#514);
#158=VERTEX_POINT('',#518);
#159=VERTEX_POINT('',#520);
#160=VERTEX_POINT('',#524);
#161=VERTEX_POINT('',#526);
#162=VERTEX_POINT('',#530);
#163=VERTEX_POINT('',#532);
#164=VERTEX_POINT('',#536);
#165=VERTEX_POINT('',#539);
#166=VERTEX_POINT('',#544);
#167=EDGE_CURVE('',#143,#143,#119,.T.);
#168=EDGE_CURVE('',#143,#144,#95,.T.);
#169=EDGE_CURVE('',#144,#144,#120,.T.);
#170=EDGE_CURVE('',#145,#145,#121,.T.);
#171=EDGE_CURVE('',#146,#146,#122,.T.);
#172=EDGE_CURVE('',#146,#145,#96,.T.);
#173=EDGE_CURVE('',#147,#147,#123,.T.);
#174=EDGE_CURVE('',#147,#148,#97,.T.);
#175=EDGE_CURVE('',#148,#148,#124,.T.);
#176=EDGE_CURVE('',#149,#149,#125,.T.);
#177=EDGE_CURVE('',#149,#150,#98,.T.);
#178=EDGE_CURVE('',#150,#150,#126,.T.);
#179=EDGE_CURVE('',#151,#151,#127,.T.);
#180=EDGE_CURVE('',#151,#152,#99,.T.);
#181=EDGE_CURVE('',#152,#152,#128,.T.);
#182=EDGE_CURVE('',#153,#153,#129,.T.);
#183=EDGE_CURVE('',#153,#154,#100,.T.);
#184=EDGE_CURVE('',#154,#154,#130,.T.);
#185=EDGE_CURVE('',#155,#155,#131,.T.);
#186=EDGE_CURVE('',#156,#156,#132,.T.);
#187=EDGE_CURVE('',#156,#157,#101,.T.);
#188=EDGE_CURVE('',#157,#157,#133,.T.);
#189=EDGE_CURVE('',#158,#158,#134,.T.);
#190=EDGE_CURVE('',#158,#159,#102,.T.);
#191=EDGE_CURVE('',#159,#159,#135,.T.);
#192=EDGE_CURVE('',#160,#160,#136,.T.);
#193=EDGE_CURVE('',#160,#161,#103,.T.);
#194=EDGE_CURVE('',#161,#161,#137,.T.);
#195=EDGE_CURVE('',#162,#162,#138,.T.);
#196=EDGE_CURVE('',#162,#163,#104,.T.);
#197=EDGE_CURVE('',#163,#163,#139,.T.);
#198=EDGE_CURVE('',#164,#164,#140,.T.);
#199=EDGE_CURVE('',#165,#165,#141,.T.);
#200=EDGE_CURVE('',#165,#164,#105,.T.);
#201=EDGE_CURVE('',#166,#166,#142,.T.);
#202=EDGE_CURVE('',#166,#155,#106,.T.);
#203=ORIENTED_EDGE('',*,*,#167,.F.);
#204=ORIENTED_EDGE('',*,*,#168,.T.);
#205=ORIENTED_EDGE('',*,*,#169,.T.);
#206=ORIENTED_EDGE('',*,*,#168,.F.);
#207=ORIENTED_EDGE('',*,*,#169,.F.);
#208=ORIENTED_EDGE('',*,*,#170,.F.);
#209=ORIENTED_EDGE('',*,*,#171,.T.);
#210=ORIENTED_EDGE('',*,*,#172,.T.);
#211=ORIENTED_EDGE('',*,*,#170,.T.);
#212=ORIENTED_EDGE('',*,*,#172,.F.);
#213=ORIENTED_EDGE('',*,*,#171,.F.);
#214=ORIENTED_EDGE('',*,*,#173,.F.);
#215=ORIENTED_EDGE('',*,*,#173,.T.);
#216=ORIENTED_EDGE('',*,*,#174,.T.);
#217=ORIENTED_EDGE('',*,*,#175,.F.);
#218=ORIENTED_EDGE('',*,*,#174,.F.);
#219=ORIENTED_EDGE('',*,*,#176,.F.);
#220=ORIENTED_EDGE('',*,*,#177,.T.);
#221=ORIENTED_EDGE('',*,*,#178,.F.);
#222=ORIENTED_EDGE('',*,*,#177,.F.);
#223=ORIENTED_EDGE('',*,*,#176,.T.);
#224=ORIENTED_EDGE('',*,*,#167,.T.);
#225=ORIENTED_EDGE('',*,*,#179,.F.);
#226=ORIENTED_EDGE('',*,*,#180,.T.);
#227=ORIENTED_EDGE('',*,*,#181,.T.);
#228=ORIENTED_EDGE('',*,*,#180,.F.);
#229=ORIENTED_EDGE('',*,*,#182,.F.);
#230=ORIENTED_EDGE('',*,*,#183,.T.);
#231=ORIENTED_EDGE('',*,*,#184,.T.);
#232=ORIENTED_EDGE('',*,*,#183,.F.);
#233=ORIENTED_EDGE('',*,*,#184,.F.);
#234=ORIENTED_EDGE('',*,*,#181,.F.);
#235=ORIENTED_EDGE('',*,*,#179,.T.);
#236=ORIENTED_EDGE('',*,*,#185,.F.);
#237=ORIENTED_EDGE('',*,*,#186,.F.);
#238=ORIENTED_EDGE('',*,*,#187,.T.);
#239=ORIENTED_EDGE('',*,*,#188,.F.);
#240=ORIENTED_EDGE('',*,*,#187,.F.);
#241=ORIENTED_EDGE('',*,*,#189,.F.);
#242=ORIENTED_EDGE('',*,*,#190,.T.);
#243=ORIENTED_EDGE('',*,*,#191,.F.);
#244=ORIENTED_EDGE('',*,*,#190,.F.);
#245=ORIENTED_EDGE('',*,*,#192,.F.);
#246=ORIENTED_EDGE('',*,*,#193,.T.);
#247=ORIENTED_EDGE('',*,*,#194,.F.);
#248=ORIENTED_EDGE('',*,*,#193,.F.);
#249=ORIENTED_EDGE('',*,*,#195,.F.);
#250=ORIENTED_EDGE('',*,*,#196,.T.);
#251=ORIENTED_EDGE('',*,*,#197,.F.);
#252=ORIENTED_EDGE('',*,*,#196,.F.);
#253=ORIENTED_EDGE('',*,*,#198,.T.);
#254=ORIENTED_EDGE('',*,*,#186,.T.);
#255=ORIENTED_EDGE('',*,*,#189,.T.);
#256=ORIENTED_EDGE('',*,*,#192,.T.);
#257=ORIENTED_EDGE('',*,*,#195,.T.);
#258=ORIENTED_EDGE('',*,*,#182,.T.);
#259=ORIENTED_EDGE('',*,*,#199,.F.);
#260=ORIENTED_EDGE('',*,*,#200,.T.);
#261=ORIENTED_EDGE('',*,*,#198,.F.);
#262=ORIENTED_EDGE('',*,*,#200,.F.);
#263=ORIENTED_EDGE('',*,*,#199,.T.);
#264=ORIENTED_EDGE('',*,*,#178,.T.);
#265=ORIENTED_EDGE('',*,*,#188,.T.);
#266=ORIENTED_EDGE('',*,*,#191,.T.);
#267=ORIENTED_EDGE('',*,*,#194,.T.);
#268=ORIENTED_EDGE('',*,*,#197,.T.);
#269=ORIENTED_EDGE('',*,*,#201,.F.);
#270=ORIENTED_EDGE('',*,*,#202,.T.);
#271=ORIENTED_EDGE('',*,*,#185,.T.);
#272=ORIENTED_EDGE('',*,*,#202,.F.);
#273=ORIENTED_EDGE('',*,*,#201,.T.);
#274=ORIENTED_EDGE('',*,*,#175,.T.);
#275=CYLINDRICAL_SURFACE('',#321,0.3);
#276=CYLINDRICAL_SURFACE('',#326,0.2175);
#277=CYLINDRICAL_SURFACE('',#330,0.2);
#278=CYLINDRICAL_SURFACE('',#332,0.3175);
#279=CYLINDRICAL_SURFACE('',#336,1.065);
#280=CYLINDRICAL_SURFACE('',#339,1.385);
#281=CYLINDRICAL_SURFACE('',#345,0.225);
#282=CYLINDRICAL_SURFACE('',#348,0.225);
#283=CYLINDRICAL_SURFACE('',#351,0.225);
#284=CYLINDRICAL_SURFACE('',#354,0.225);
#285=CYLINDRICAL_SURFACE('',#359,2.5);
#286=CYLINDRICAL_SURFACE('',#362,0.495);
#287=ADVANCED_FACE('',(#39),#275,.F.);
#288=ADVANCED_FACE('',(#40,#15),#31,.F.);
#289=ADVANCED_FACE('',(#41),#276,.F.);
#290=ADVANCED_FACE('',(#42,#16),#32,.F.);
#291=ADVANCED_FACE('',(#43),#277,.F.);
#292=ADVANCED_FACE('',(#44),#278,.T.);
#293=ADVANCED_FACE('',(#45,#17),#33,.F.);
#294=ADVANCED_FACE('',(#46),#279,.T.);
#295=ADVANCED_FACE('',(#47),#280,.F.);
#296=ADVANCED_FACE('',(#48,#18),#34,.T.);
#297=ADVANCED_FACE('',(#49,#19),#35,.T.);
#298=ADVANCED_FACE('',(#50),#281,.F.);
#299=ADVANCED_FACE('',(#51),#282,.F.);
#300=ADVANCED_FACE('',(#52),#283,.F.);
#301=ADVANCED_FACE('',(#53),#284,.F.);
#302=ADVANCED_FACE('',(#54,#20,#21,#22,#23,#24),#36,.T.);
#303=ADVANCED_FACE('',(#55),#285,.T.);
#304=ADVANCED_FACE('',(#56,#25,#26,#27,#28,#29),#37,.F.);
#305=ADVANCED_FACE('',(#57),#286,.T.);
#306=ADVANCED_FACE('',(#58,#30),#38,.T.);
#307=CLOSED_SHELL('',(#287,#288,#289,#290,#291,#292,#293,#294,#295,#296,
#297,#298,#299,#300,#301,#302,#303,#304,#305,#306));
#308=DERIVED_UNIT_ELEMENT(#310,1.);
#309=DERIVED_UNIT_ELEMENT(#553,-3.);
#310=(
MASS_UNIT()
NAMED_UNIT(*)
SI_UNIT(.KILO.,.GRAM.)
);
#311=DERIVED_UNIT((#308,#309));
#312=MEASURE_REPRESENTATION_ITEM('density measure',
POSITIVE_RATIO_MEASURE(8000.),#311);
#313=PROPERTY_DEFINITION_REPRESENTATION(#318,#315);
#314=PROPERTY_DEFINITION_REPRESENTATION(#319,#316);
#315=REPRESENTATION('material name',(#317),#550);
#316=REPRESENTATION('density',(#312),#550);
#317=DESCRIPTIVE_REPRESENTATION_ITEM('Stainless Steel',
'Stainless Steel');
#318=PROPERTY_DEFINITION('material property','material name',#560);
#319=PROPERTY_DEFINITION('material property','density of part',#560);
#320=AXIS2_PLACEMENT_3D('',#467,#365,#366);
#321=AXIS2_PLACEMENT_3D('',#468,#367,#368);
#322=AXIS2_PLACEMENT_3D('',#470,#369,#370);
#323=AXIS2_PLACEMENT_3D('',#473,#372,#373);
#324=AXIS2_PLACEMENT_3D('',#474,#374,#375);
#325=AXIS2_PLACEMENT_3D('',#476,#376,#377);
#326=AXIS2_PLACEMENT_3D('',#477,#378,#379);
#327=AXIS2_PLACEMENT_3D('',#479,#380,#381);
#328=AXIS2_PLACEMENT_3D('',#481,#383,#384);
#329=AXIS2_PLACEMENT_3D('',#483,#385,#386);
#330=AXIS2_PLACEMENT_3D('',#484,#387,#388);
#331=AXIS2_PLACEMENT_3D('',#487,#390,#391);
#332=AXIS2_PLACEMENT_3D('',#488,#392,#393);
#333=AXIS2_PLACEMENT_3D('',#490,#394,#395);
#334=AXIS2_PLACEMENT_3D('',#493,#397,#398);
#335=AXIS2_PLACEMENT_3D('',#494,#399,#400);
#336=AXIS2_PLACEMENT_3D('',#495,#401,#402);
#337=AXIS2_PLACEMENT_3D('',#497,#403,#404);
#338=AXIS2_PLACEMENT_3D('',#500,#406,#407);
#339=AXIS2_PLACEMENT_3D('',#501,#408,#409);
#340=AXIS2_PLACEMENT_3D('',#503,#410,#411);
#341=AXIS2_PLACEMENT_3D('',#506,#413,#414);
#342=AXIS2_PLACEMENT_3D('',#507,#415,#416);
#343=AXIS2_PLACEMENT_3D('',#508,#417,#418);
#344=AXIS2_PLACEMENT_3D('',#510,#419,#420);
#345=AXIS2_PLACEMENT_3D('',#511,#421,#422);
#346=AXIS2_PLACEMENT_3D('',#513,#423,#424);
#347=AXIS2_PLACEMENT_3D('',#516,#426,#427);
#348=AXIS2_PLACEMENT_3D('',#517,#428,#429);
#349=AXIS2_PLACEMENT_3D('',#519,#430,#431);
#350=AXIS2_PLACEMENT_3D('',#522,#433,#434);
#351=AXIS2_PLACEMENT_3D('',#523,#435,#436);
#352=AXIS2_PLACEMENT_3D('',#525,#437,#438);
#353=AXIS2_PLACEMENT_3D('',#528,#440,#441);
#354=AXIS2_PLACEMENT_3D('',#529,#442,#443);
#355=AXIS2_PLACEMENT_3D('',#531,#444,#445);
#356=AXIS2_PLACEMENT_3D('',#534,#447,#448);
#357=AXIS2_PLACEMENT_3D('',#535,#449,#450);
#358=AXIS2_PLACEMENT_3D('',#537,#451,#452);
#359=AXIS2_PLACEMENT_3D('',#538,#453,#454);
#360=AXIS2_PLACEMENT_3D('',#540,#455,#456);
#361=AXIS2_PLACEMENT_3D('',#542,#458,#459);
#362=AXIS2_PLACEMENT_3D('',#543,#460,#461);
#363=AXIS2_PLACEMENT_3D('',#545,#462,#463);
#364=AXIS2_PLACEMENT_3D('',#547,#465,#466);
#365=DIRECTION('axis',(0.,0.,1.));
#366=DIRECTION('refdir',(1.,0.,0.));
#367=DIRECTION('center_axis',(0.,0.,1.));
#368=DIRECTION('ref_axis',(1.,0.,0.));
#369=DIRECTION('center_axis',(0.,0.,1.));
#370=DIRECTION('ref_axis',(1.,0.,0.));
#371=DIRECTION('',(0.,0.,1.));
#372=DIRECTION('center_axis',(0.,0.,1.));
#373=DIRECTION('ref_axis',(1.,0.,0.));
#374=DIRECTION('center_axis',(0.,0.,1.));
#375=DIRECTION('ref_axis',(1.,0.,0.));
#376=DIRECTION('center_axis',(0.,0.,-1.));
#377=DIRECTION('ref_axis',(1.,0.,0.));
#378=DIRECTION('center_axis',(0.,0.,-1.));
#379=DIRECTION('ref_axis',(1.,0.,0.));
#380=DIRECTION('center_axis',(0.,0.,1.));
#381=DIRECTION('ref_axis',(1.,0.,0.));
#382=DIRECTION('',(0.,0.,-1.));
#383=DIRECTION('center_axis',(0.,0.,1.));
#384=DIRECTION('ref_axis',(1.,0.,0.));
#385=DIRECTION('center_axis',(0.,0.,-1.));
#386=DIRECTION('ref_axis',(1.,0.,0.));
#387=DIRECTION('center_axis',(0.,0.,1.));
#388=DIRECTION('ref_axis',(1.,0.,0.));
#389=DIRECTION('',(0.,0.,1.));
#390=DIRECTION('center_axis',(0.,0.,-1.));
#391=DIRECTION('ref_axis',(1.,0.,0.));
#392=DIRECTION('center_axis',(0.,0.,-1.));
#393=DIRECTION('ref_axis',(1.,0.,0.));
#394=DIRECTION('center_axis',(0.,0.,-1.));
#395=DIRECTION('ref_axis',(1.,0.,0.));
#396=DIRECTION('',(0.,0.,1.));
#397=DIRECTION('center_axis',(0.,0.,1.));
#398=DIRECTION('ref_axis',(1.,0.,0.));
#399=DIRECTION('center_axis',(0.,0.,1.));
#400=DIRECTION('ref_axis',(1.,0.,0.));
#401=DIRECTION('center_axis',(0.,0.,-1.));
#402=DIRECTION('ref_axis',(-1.,0.,0.));
#403=DIRECTION('center_axis',(0.,0.,1.));
#404=DIRECTION('ref_axis',(-1.,0.,0.));
#405=DIRECTION('',(0.,0.,-1.));
#406=DIRECTION('center_axis',(0.,0.,1.));
#407=DIRECTION('ref_axis',(-1.,0.,0.));
#408=DIRECTION('center_axis',(0.,0.,-1.));
#409=DIRECTION('ref_axis',(-1.,0.,0.));
#410=DIRECTION('center_axis',(0.,0.,-1.));
#411=DIRECTION('ref_axis',(-1.,0.,0.));
#412=DIRECTION('',(0.,0.,-1.));
#413=DIRECTION('center_axis',(0.,0.,-1.));
#414=DIRECTION('ref_axis',(-1.,0.,0.));
#415=DIRECTION('center_axis',(0.,0.,1.));
#416=DIRECTION('ref_axis',(1.,0.,0.));
#417=DIRECTION('center_axis',(0.,0.,1.));
#418=DIRECTION('ref_axis',(1.,0.,0.));
#419=DIRECTION('center_axis',(0.,0.,1.));
#420=DIRECTION('ref_axis',(1.,0.,0.));
#421=DIRECTION('center_axis',(0.,0.,-1.));
#422=DIRECTION('ref_axis',(1.,0.,0.));
#423=DIRECTION('center_axis',(0.,0.,-1.));
#424=DIRECTION('ref_axis',(1.,0.,0.));
#425=DIRECTION('',(0.,0.,-1.));
#426=DIRECTION('center_axis',(0.,0.,1.));
#427=DIRECTION('ref_axis',(1.,0.,0.));
#428=DIRECTION('center_axis',(0.,0.,-1.));
#429=DIRECTION('ref_axis',(1.,0.,0.));
#430=DIRECTION('center_axis',(0.,0.,-1.));
#431=DIRECTION('ref_axis',(1.,0.,0.));
#432=DIRECTION('',(0.,0.,-1.));
#433=DIRECTION('center_axis',(0.,0.,1.));
#434=DIRECTION('ref_axis',(1.,0.,0.));
#435=DIRECTION('center_axis',(0.,0.,-1.));
#436=DIRECTION('ref_axis',(1.,0.,0.));
#437=DIRECTION('center_axis',(0.,0.,-1.));
#438=DIRECTION('ref_axis',(1.,0.,0.));
#439=DIRECTION('',(0.,0.,-1.));
#440=DIRECTION('center_axis',(0.,0.,1.));
#441=DIRECTION('ref_axis',(1.,0.,0.));
#442=DIRECTION('center_axis',(0.,0.,-1.));
#443=DIRECTION('ref_axis',(1.,0.,0.));
#444=DIRECTION('center_axis',(0.,0.,-1.));
#445=DIRECTION('ref_axis',(1.,0.,0.));
#446=DIRECTION('',(0.,0.,-1.));
#447=DIRECTION('center_axis',(0.,0.,1.));
#448=DIRECTION('ref_axis',(1.,0.,0.));
#449=DIRECTION('center_axis',(0.,0.,1.));
#450=DIRECTION('ref_axis',(1.,0.,0.));
#451=DIRECTION('center_axis',(0.,0.,1.));
#452=DIRECTION('ref_axis',(1.,0.,0.));
#453=DIRECTION('center_axis',(0.,0.,-1.));
#454=DIRECTION('ref_axis',(1.,0.,0.));
#455=DIRECTION('center_axis',(0.,0.,-1.));
#456=DIRECTION('ref_axis',(1.,0.,0.));
#457=DIRECTION('',(0.,0.,1.));
#458=DIRECTION('center_axis',(0.,0.,1.));
#459=DIRECTION('ref_axis',(1.,0.,0.));
#460=DIRECTION('center_axis',(0.,0.,1.));
#461=DIRECTION('ref_axis',(1.,0.,0.));
#462=DIRECTION('center_axis',(0.,0.,1.));
#463=DIRECTION('ref_axis',(1.,0.,0.));
#464=DIRECTION('',(0.,0.,-1.));
#465=DIRECTION('center_axis',(0.,0.,1.));
#466=DIRECTION('ref_axis',(1.,0.,0.));
#467=CARTESIAN_POINT('',(0.,0.,0.));
#468=CARTESIAN_POINT('Origin',(0.,0.,-11.));
#469=CARTESIAN_POINT('',(-0.3,-3.67394039744206E-17,-11.));
#470=CARTESIAN_POINT('Origin',(0.,0.,-11.));
#471=CARTESIAN_POINT('',(-0.3,-3.67394039744206E-17,-10.5));
#472=CARTESIAN_POINT('',(-0.3,-3.67394039744206E-17,-11.));
#473=CARTESIAN_POINT('Origin',(0.,0.,-10.5));
#474=CARTESIAN_POINT('Origin',(0.,0.,-10.5));
#475=CARTESIAN_POINT('',(-0.2175,2.66360678814549E-17,-10.5));
#476=CARTESIAN_POINT('Origin',(0.,0.,-10.5));
#477=CARTESIAN_POINT('Origin',(0.,0.,-1.));
#478=CARTESIAN_POINT('',(-0.2175,-2.66360678814549E-17,-1.));
#479=CARTESIAN_POINT('Origin',(0.,0.,-1.));
#480=CARTESIAN_POINT('',(-0.2175,2.66360678814549E-17,-1.));
#481=CARTESIAN_POINT('Origin',(0.,0.,-1.));
#482=CARTESIAN_POINT('',(-0.2,2.44929359829471E-17,-1.));
#483=CARTESIAN_POINT('Origin',(0.,0.,-1.));
#484=CARTESIAN_POINT('Origin',(0.,0.,0.));
#485=CARTESIAN_POINT('',(-0.2,2.44929359829471E-17,0.8));
#486=CARTESIAN_POINT('',(-0.2,-2.44929359829471E-17,0.));
#487=CARTESIAN_POINT('Origin',(0.,0.,0.8));
#488=CARTESIAN_POINT('Origin',(0.,0.,-1.));
#489=CARTESIAN_POINT('',(-0.3175,-3.88825358729285E-17,-11.));
#490=CARTESIAN_POINT('Origin',(0.,0.,-11.));
#491=CARTESIAN_POINT('',(-0.3175,-3.88825358729285E-17,-1.));
#492=CARTESIAN_POINT('',(-0.3175,3.88825358729285E-17,-1.));
#493=CARTESIAN_POINT('Origin',(0.,0.,-1.));
#494=CARTESIAN_POINT('Origin',(0.,0.,-11.));
#495=CARTESIAN_POINT('Origin',(0.,0.,0.));
#496=CARTESIAN_POINT('',(1.065,-1.30424884109193E-16,0.));
#497=CARTESIAN_POINT('Origin',(0.,0.,0.));
#498=CARTESIAN_POINT('',(1.065,-1.30424884109193E-16,-0.19));
#499=CARTESIAN_POINT('',(1.065,-1.30424884109193E-16,0.));
#500=CARTESIAN_POINT('Origin',(0.,0.,-0.19));
#501=CARTESIAN_POINT('Origin',(0.,0.,0.));
#502=CARTESIAN_POINT('',(1.385,-1.69613581681908E-16,0.));
#503=CARTESIAN_POINT('Origin',(0.,0.,0.));
#504=CARTESIAN_POINT('',(1.385,-1.69613581681908E-16,-0.19));
#505=CARTESIAN_POINT('',(1.385,-1.69613581681908E-16,0.));
#506=CARTESIAN_POINT('Origin',(0.,0.,-0.19));
#507=CARTESIAN_POINT('Origin',(0.,0.,-0.19));
#508=CARTESIAN_POINT('Origin',(0.,0.,0.));
#509=CARTESIAN_POINT('',(-0.495,-6.0620016557794E-17,0.));
#510=CARTESIAN_POINT('Origin',(0.,0.,0.));
#511=CARTESIAN_POINT('Origin',(-1.3435029,-1.3435029,0.));
#512=CARTESIAN_POINT('',(-1.5685029,-1.3435029,0.));
#513=CARTESIAN_POINT('Origin',(-1.3435029,-1.3435029,0.));
#514=CARTESIAN_POINT('',(-1.5685029,-1.3435029,-1.));
#515=CARTESIAN_POINT('',(-1.5685029,-1.3435029,0.));
#516=CARTESIAN_POINT('Origin',(-1.3435029,-1.3435029,-1.));
#517=CARTESIAN_POINT('Origin',(-1.3435029,1.3435029,0.));
#518=CARTESIAN_POINT('',(-1.5685029,1.3435029,0.));
#519=CARTESIAN_POINT('Origin',(-1.3435029,1.3435029,0.));
#520=CARTESIAN_POINT('',(-1.5685029,1.3435029,-1.));
#521=CARTESIAN_POINT('',(-1.5685029,1.3435029,0.));
#522=CARTESIAN_POINT('Origin',(-1.3435029,1.3435029,-1.));
#523=CARTESIAN_POINT('Origin',(1.3435029,1.3435029,0.));
#524=CARTESIAN_POINT('',(1.1185029,1.3435029,0.));
#525=CARTESIAN_POINT('Origin',(1.3435029,1.3435029,0.));
#526=CARTESIAN_POINT('',(1.1185029,1.3435029,-1.));
#527=CARTESIAN_POINT('',(1.1185029,1.3435029,0.));
#528=CARTESIAN_POINT('Origin',(1.3435029,1.3435029,-1.));
#529=CARTESIAN_POINT('Origin',(1.3435029,-1.3435029,0.));
#530=CARTESIAN_POINT('',(1.1185029,-1.3435029,0.));
#531=CARTESIAN_POINT('Origin',(1.3435029,-1.3435029,0.));
#532=CARTESIAN_POINT('',(1.1185029,-1.3435029,-1.));
#533=CARTESIAN_POINT('',(1.1185029,-1.3435029,0.));
#534=CARTESIAN_POINT('Origin',(1.3435029,-1.3435029,-1.));
#535=CARTESIAN_POINT('Origin',(0.,0.,0.));
#536=CARTESIAN_POINT('',(-2.5,-3.06161699786838E-16,0.));
#537=CARTESIAN_POINT('Origin',(0.,0.,0.));
#538=CARTESIAN_POINT('Origin',(0.,0.,0.));
#539=CARTESIAN_POINT('',(-2.5,-3.06161699786838E-16,-1.));
#540=CARTESIAN_POINT('Origin',(0.,0.,-1.));
#541=CARTESIAN_POINT('',(-2.5,3.06161699786838E-16,0.));
#542=CARTESIAN_POINT('Origin',(0.,0.,-1.));
#543=CARTESIAN_POINT('Origin',(0.,0.,0.));
#544=CARTESIAN_POINT('',(-0.495,-6.0620016557794E-17,0.8));
#545=CARTESIAN_POINT('Origin',(0.,0.,0.8));
#546=CARTESIAN_POINT('',(-0.495,-6.0620016557794E-17,0.));
#547=CARTESIAN_POINT('Origin',(0.,0.,0.8));
#548=UNCERTAINTY_MEASURE_WITH_UNIT(LENGTH_MEASURE(0.001),#552,
'DISTANCE_ACCURACY_VALUE',
'Maximum model space distance between geometric entities at asserted c
onnectivities');
#549=UNCERTAINTY_MEASURE_WITH_UNIT(LENGTH_MEASURE(0.001),#552,
'DISTANCE_ACCURACY_VALUE',
'Maximum model space distance between geometric entities at asserted c
onnectivities');
#550=(
GEOMETRIC_REPRESENTATION_CONTEXT(3)
GLOBAL_UNCERTAINTY_ASSIGNED_CONTEXT((#548))
GLOBAL_UNIT_ASSIGNED_CONTEXT((#552,#554,#555))
REPRESENTATION_CONTEXT('','3D')
);
#551=(
GEOMETRIC_REPRESENTATION_CONTEXT(3)
GLOBAL_UNCERTAINTY_ASSIGNED_CONTEXT((#549))
GLOBAL_UNIT_ASSIGNED_CONTEXT((#552,#554,#555))
REPRESENTATION_CONTEXT('','3D')
);
#552=(
LENGTH_UNIT()
NAMED_UNIT(*)
SI_UNIT(.CENTI.,.METRE.)
);
#553=(
LENGTH_UNIT()
NAMED_UNIT(*)
SI_UNIT($,.METRE.)
);
#554=(
NAMED_UNIT(*)
PLANE_ANGLE_UNIT()
SI_UNIT($,.RADIAN.)
);
#555=(
NAMED_UNIT(*)
SI_UNIT($,.STERADIAN.)
SOLID_ANGLE_UNIT()
);
#556=SHAPE_DEFINITION_REPRESENTATION(#557,#558);
#557=PRODUCT_DEFINITION_SHAPE('',$,#560);
#558=SHAPE_REPRESENTATION('',(#320),#550);
#559=PRODUCT_DEFINITION_CONTEXT('part definition',#564,'design');
#560=PRODUCT_DEFINITION('SEWCP-800_PORT_BODY','SEWCP-800_PORT_BODY v2',
#561,#559);
#561=PRODUCT_DEFINITION_FORMATION('',$,#566);
#562=PRODUCT_RELATED_PRODUCT_CATEGORY('SEWCP-800_PORT_BODY v2',
'SEWCP-800_PORT_BODY v2',(#566));
#563=APPLICATION_PROTOCOL_DEFINITION('international standard',
'automotive_design',2009,#564);
#564=APPLICATION_CONTEXT(
'Core Data for Automotive Mechanical Design Process');
#565=PRODUCT_CONTEXT('part definition',#564,'mechanical');
#566=PRODUCT('SEWCP-800_PORT_BODY','SEWCP-800_PORT_BODY v2',$,(#565));
#567=PRESENTATION_STYLE_ASSIGNMENT((#568));
#568=SURFACE_STYLE_USAGE(.BOTH.,#569);
#569=SURFACE_SIDE_STYLE('',(#570));
#570=SURFACE_STYLE_FILL_AREA(#571);
#571=FILL_AREA_STYLE('Stainless Steel - Satin',(#572));
#572=FILL_AREA_STYLE_COLOUR('Stainless Steel - Satin',#573);
#573=COLOUR_RGB('Stainless Steel - Satin',0.796078431372549,0.796078431372549,
0.796078431372549);
ENDSEC;
END-ISO-10303-21;
