ISO-10303-21;
HEADER;
/* Generated by software containing ST-Developer
 * from STEP Tools, Inc. (www.steptools.com) 
 */

FILE_DESCRIPTION(
/* description */ (''),
/* implementation_level */ '2;1');

FILE_NAME(
/* name */ 'SEWCP-902_SADDLE.step',
/* time_stamp */ '2026-08-11T22:50:40+05:30',
/* author */ (''),
/* organization */ (''),
/* preprocessor_version */ 'ST-DEVELOPER v20.1',
/* originating_system */ 'Autodesk Translation Framework v15.8.0.0',
/* authorisation */ '');

FILE_SCHEMA (('AUTOMOTIVE_DESIGN { 1 0 10303 214 3 1 1 }'));
ENDSEC;

DATA;
#10=MECHANICAL_DESIGN_GEOMETRIC_PRESENTATION_REPRESENTATION('',(#13),#1053);
#11=SHAPE_REPRESENTATION_RELATIONSHIP('SRR','None',#1060,#12);
#12=ADVANCED_BREP_SHAPE_REPRESENTATION('',(#14),#1052);
#13=STYLED_ITEM('',(#1069),#14);
#14=MANIFOLD_SOLID_BREP('SB_BODY',#657);
#15=FACE_BOUND('',#87,.T.);
#16=FACE_BOUND('',#88,.T.);
#17=FACE_BOUND('',#99,.T.);
#18=FACE_BOUND('',#116,.T.);
#19=PLANE('',#677);
#20=PLANE('',#678);
#21=PLANE('',#679);
#22=PLANE('',#680);
#23=PLANE('',#681);
#24=PLANE('',#682);
#25=PLANE('',#683);
#26=PLANE('',#684);
#27=PLANE('',#685);
#28=PLANE('',#686);
#29=PLANE('',#687);
#30=PLANE('',#688);
#31=PLANE('',#689);
#32=PLANE('',#690);
#33=PLANE('',#691);
#34=PLANE('',#692);
#35=PLANE('',#693);
#36=PLANE('',#694);
#37=PLANE('',#695);
#38=PLANE('',#696);
#39=PLANE('',#697);
#40=PLANE('',#698);
#41=PLANE('',#699);
#42=PLANE('',#700);
#43=PLANE('',#701);
#44=PLANE('',#702);
#45=PLANE('',#703);
#46=PLANE('',#704);
#47=PLANE('',#705);
#48=PLANE('',#706);
#49=FACE_OUTER_BOUND('',#81,.T.);
#50=FACE_OUTER_BOUND('',#82,.T.);
#51=FACE_OUTER_BOUND('',#83,.T.);
#52=FACE_OUTER_BOUND('',#84,.T.);
#53=FACE_OUTER_BOUND('',#85,.T.);
#54=FACE_OUTER_BOUND('',#86,.T.);
#55=FACE_OUTER_BOUND('',#89,.T.);
#56=FACE_OUTER_BOUND('',#90,.T.);
#57=FACE_OUTER_BOUND('',#91,.T.);
#58=FACE_OUTER_BOUND('',#92,.T.);
#59=FACE_OUTER_BOUND('',#93,.T.);
#60=FACE_OUTER_BOUND('',#94,.T.);
#61=FACE_OUTER_BOUND('',#95,.T.);
#62=FACE_OUTER_BOUND('',#96,.T.);
#63=FACE_OUTER_BOUND('',#97,.T.);
#64=FACE_OUTER_BOUND('',#98,.T.);
#65=FACE_OUTER_BOUND('',#100,.T.);
#66=FACE_OUTER_BOUND('',#101,.T.);
#67=FACE_OUTER_BOUND('',#102,.T.);
#68=FACE_OUTER_BOUND('',#103,.T.);
#69=FACE_OUTER_BOUND('',#104,.T.);
#70=FACE_OUTER_BOUND('',#105,.T.);
#71=FACE_OUTER_BOUND('',#106,.T.);
#72=FACE_OUTER_BOUND('',#107,.T.);
#73=FACE_OUTER_BOUND('',#108,.T.);
#74=FACE_OUTER_BOUND('',#109,.T.);
#75=FACE_OUTER_BOUND('',#110,.T.);
#76=FACE_OUTER_BOUND('',#111,.T.);
#77=FACE_OUTER_BOUND('',#112,.T.);
#78=FACE_OUTER_BOUND('',#113,.T.);
#79=FACE_OUTER_BOUND('',#114,.T.);
#80=FACE_OUTER_BOUND('',#115,.T.);
#81=EDGE_LOOP('',(#443,#444,#445,#446));
#82=EDGE_LOOP('',(#447,#448,#449,#450));
#83=EDGE_LOOP('',(#451,#452,#453,#454));
#84=EDGE_LOOP('',(#455,#456,#457,#458));
#85=EDGE_LOOP('',(#459,#460,#461,#462));
#86=EDGE_LOOP('',(#463,#464,#465,#466,#467,#468,#469,#470,#471,#472,#473,
#474,#475,#476,#477,#478));
#87=EDGE_LOOP('',(#479));
#88=EDGE_LOOP('',(#480));
#89=EDGE_LOOP('',(#481,#482,#483,#484));
#90=EDGE_LOOP('',(#485,#486,#487,#488));
#91=EDGE_LOOP('',(#489,#490,#491,#492));
#92=EDGE_LOOP('',(#493,#494,#495,#496));
#93=EDGE_LOOP('',(#497,#498,#499,#500,#501,#502,#503,#504,#505,#506,#507,
#508,#509,#510,#511,#512));
#94=EDGE_LOOP('',(#513,#514,#515,#516));
#95=EDGE_LOOP('',(#517,#518,#519,#520));
#96=EDGE_LOOP('',(#521,#522,#523,#524));
#97=EDGE_LOOP('',(#525,#526,#527,#528));
#98=EDGE_LOOP('',(#529,#530,#531,#532,#533,#534,#535,#536,#537,#538));
#99=EDGE_LOOP('',(#539));
#100=EDGE_LOOP('',(#540,#541,#542,#543));
#101=EDGE_LOOP('',(#544,#545,#546,#547));
#102=EDGE_LOOP('',(#548,#549,#550,#551));
#103=EDGE_LOOP('',(#552,#553,#554,#555));
#104=EDGE_LOOP('',(#556,#557,#558,#559));
#105=EDGE_LOOP('',(#560,#561,#562,#563));
#106=EDGE_LOOP('',(#564,#565,#566,#567));
#107=EDGE_LOOP('',(#568,#569,#570,#571,#572,#573,#574,#575,#576,#577,#578,
#579,#580,#581,#582,#583));
#108=EDGE_LOOP('',(#584,#585,#586,#587));
#109=EDGE_LOOP('',(#588,#589,#590,#591));
#110=EDGE_LOOP('',(#592,#593,#594,#595));
#111=EDGE_LOOP('',(#596,#597,#598,#599));
#112=EDGE_LOOP('',(#600,#601,#602,#603));
#113=EDGE_LOOP('',(#604,#605,#606,#607));
#114=EDGE_LOOP('',(#608,#609,#610,#611));
#115=EDGE_LOOP('',(#612,#613,#614,#615,#616,#617,#618,#619,#620,#621));
#116=EDGE_LOOP('',(#622));
#117=LINE('',#872,#203);
#118=LINE('',#878,#204);
#119=LINE('',#883,#205);
#120=LINE('',#885,#206);
#121=LINE('',#887,#207);
#122=LINE('',#888,#208);
#123=LINE('',#892,#209);
#124=LINE('',#894,#210);
#125=LINE('',#896,#211);
#126=LINE('',#897,#212);
#127=LINE('',#899,#213);
#128=LINE('',#900,#214);
#129=LINE('',#904,#215);
#130=LINE('',#906,#216);
#131=LINE('',#908,#217);
#132=LINE('',#910,#218);
#133=LINE('',#912,#219);
#134=LINE('',#914,#220);
#135=LINE('',#916,#221);
#136=LINE('',#918,#222);
#137=LINE('',#920,#223);
#138=LINE('',#922,#224);
#139=LINE('',#924,#225);
#140=LINE('',#926,#226);
#141=LINE('',#928,#227);
#142=LINE('',#930,#228);
#143=LINE('',#932,#229);
#144=LINE('',#933,#230);
#145=LINE('',#936,#231);
#146=LINE('',#938,#232);
#147=LINE('',#939,#233);
#148=LINE('',#943,#234);
#149=LINE('',#945,#235);
#150=LINE('',#947,#236);
#151=LINE('',#948,#237);
#152=LINE('',#951,#238);
#153=LINE('',#953,#239);
#154=LINE('',#954,#240);
#155=LINE('',#956,#241);
#156=LINE('',#957,#242);
#157=LINE('',#960,#243);
#158=LINE('',#962,#244);
#159=LINE('',#964,#245);
#160=LINE('',#965,#246);
#161=LINE('',#967,#247);
#162=LINE('',#969,#248);
#163=LINE('',#971,#249);
#164=LINE('',#972,#250);
#165=LINE('',#975,#251);
#166=LINE('',#976,#252);
#167=LINE('',#979,#253);
#168=LINE('',#980,#254);
#169=LINE('',#983,#255);
#170=LINE('',#985,#256);
#171=LINE('',#986,#257);
#172=LINE('',#988,#258);
#173=LINE('',#991,#259);
#174=LINE('',#993,#260);
#175=LINE('',#995,#261);
#176=LINE('',#997,#262);
#177=LINE('',#999,#263);
#178=LINE('',#1001,#264);
#179=LINE('',#1003,#265);
#180=LINE('',#1004,#266);
#181=LINE('',#1007,#267);
#182=LINE('',#1008,#268);
#183=LINE('',#1011,#269);
#184=LINE('',#1012,#270);
#185=LINE('',#1015,#271);
#186=LINE('',#1016,#272);
#187=LINE('',#1019,#273);
#188=LINE('',#1020,#274);
#189=LINE('',#1023,#275);
#190=LINE('',#1024,#276);
#191=LINE('',#1027,#277);
#192=LINE('',#1028,#278);
#193=LINE('',#1031,#279);
#194=LINE('',#1032,#280);
#195=LINE('',#1034,#281);
#196=LINE('',#1035,#282);
#197=LINE('',#1037,#283);
#198=LINE('',#1039,#284);
#199=LINE('',#1041,#285);
#200=LINE('',#1043,#286);
#201=LINE('',#1045,#287);
#202=LINE('',#1047,#288);
#203=VECTOR('',#713,0.33);
#204=VECTOR('',#720,0.33);
#205=VECTOR('',#725,1.);
#206=VECTOR('',#726,1.);
#207=VECTOR('',#727,1.);
#208=VECTOR('',#728,1.);
#209=VECTOR('',#731,1.);
#210=VECTOR('',#732,1.);
#211=VECTOR('',#733,1.);
#212=VECTOR('',#734,1.);
#213=VECTOR('',#737,1.);
#214=VECTOR('',#738,1.);
#215=VECTOR('',#741,1.);
#216=VECTOR('',#742,1.);
#217=VECTOR('',#743,1.);
#218=VECTOR('',#744,1.);
#219=VECTOR('',#745,1.);
#220=VECTOR('',#746,1.);
#221=VECTOR('',#747,1.);
#222=VECTOR('',#748,1.);
#223=VECTOR('',#749,1.);
#224=VECTOR('',#750,1.);
#225=VECTOR('',#751,1.);
#226=VECTOR('',#752,1.);
#227=VECTOR('',#753,1.);
#228=VECTOR('',#754,1.);
#229=VECTOR('',#755,1.);
#230=VECTOR('',#756,1.);
#231=VECTOR('',#759,1.);
#232=VECTOR('',#760,1.);
#233=VECTOR('',#761,1.);
#234=VECTOR('',#764,1.);
#235=VECTOR('',#765,1.);
#236=VECTOR('',#766,1.);
#237=VECTOR('',#767,1.);
#238=VECTOR('',#770,1.);
#239=VECTOR('',#771,1.);
#240=VECTOR('',#772,1.);
#241=VECTOR('',#775,1.);
#242=VECTOR('',#776,1.);
#243=VECTOR('',#779,1.);
#244=VECTOR('',#780,1.);
#245=VECTOR('',#781,1.);
#246=VECTOR('',#782,1.);
#247=VECTOR('',#783,1.);
#248=VECTOR('',#784,1.);
#249=VECTOR('',#785,1.);
#250=VECTOR('',#786,1.);
#251=VECTOR('',#789,1.);
#252=VECTOR('',#790,1.);
#253=VECTOR('',#793,1.);
#254=VECTOR('',#794,1.);
#255=VECTOR('',#797,1.);
#256=VECTOR('',#798,1.);
#257=VECTOR('',#799,1.);
#258=VECTOR('',#802,1.);
#259=VECTOR('',#805,1.);
#260=VECTOR('',#806,1.);
#261=VECTOR('',#807,1.);
#262=VECTOR('',#808,1.);
#263=VECTOR('',#809,1.);
#264=VECTOR('',#810,1.);
#265=VECTOR('',#811,1.);
#266=VECTOR('',#812,1.);
#267=VECTOR('',#815,1.);
#268=VECTOR('',#816,1.);
#269=VECTOR('',#819,1.);
#270=VECTOR('',#820,1.);
#271=VECTOR('',#823,1.);
#272=VECTOR('',#824,1.);
#273=VECTOR('',#827,1.);
#274=VECTOR('',#828,1.);
#275=VECTOR('',#831,1.);
#276=VECTOR('',#832,1.);
#277=VECTOR('',#835,1.);
#278=VECTOR('',#836,1.);
#279=VECTOR('',#839,1.);
#280=VECTOR('',#840,1.);
#281=VECTOR('',#843,1.);
#282=VECTOR('',#844,1.);
#283=VECTOR('',#847,1.);
#284=VECTOR('',#850,1.);
#285=VECTOR('',#853,1.);
#286=VECTOR('',#856,1.);
#287=VECTOR('',#859,1.);
#288=VECTOR('',#862,1.);
#289=CIRCLE('',#672,0.33);
#290=CIRCLE('',#673,0.33);
#291=CIRCLE('',#675,0.33);
#292=CIRCLE('',#676,0.33);
#293=VERTEX_POINT('',#869);
#294=VERTEX_POINT('',#871);
#295=VERTEX_POINT('',#875);
#296=VERTEX_POINT('',#877);
#297=VERTEX_POINT('',#881);
#298=VERTEX_POINT('',#882);
#299=VERTEX_POINT('',#884);
#300=VERTEX_POINT('',#886);
#301=VERTEX_POINT('',#890);
#302=VERTEX_POINT('',#891);
#303=VERTEX_POINT('',#893);
#304=VERTEX_POINT('',#895);
#305=VERTEX_POINT('',#902);
#306=VERTEX_POINT('',#903);
#307=VERTEX_POINT('',#905);
#308=VERTEX_POINT('',#907);
#309=VERTEX_POINT('',#909);
#310=VERTEX_POINT('',#911);
#311=VERTEX_POINT('',#913);
#312=VERTEX_POINT('',#915);
#313=VERTEX_POINT('',#917);
#314=VERTEX_POINT('',#919);
#315=VERTEX_POINT('',#921);
#316=VERTEX_POINT('',#923);
#317=VERTEX_POINT('',#925);
#318=VERTEX_POINT('',#927);
#319=VERTEX_POINT('',#929);
#320=VERTEX_POINT('',#931);
#321=VERTEX_POINT('',#935);
#322=VERTEX_POINT('',#937);
#323=VERTEX_POINT('',#941);
#324=VERTEX_POINT('',#942);
#325=VERTEX_POINT('',#944);
#326=VERTEX_POINT('',#946);
#327=VERTEX_POINT('',#950);
#328=VERTEX_POINT('',#952);
#329=VERTEX_POINT('',#959);
#330=VERTEX_POINT('',#961);
#331=VERTEX_POINT('',#963);
#332=VERTEX_POINT('',#966);
#333=VERTEX_POINT('',#968);
#334=VERTEX_POINT('',#970);
#335=VERTEX_POINT('',#974);
#336=VERTEX_POINT('',#978);
#337=VERTEX_POINT('',#982);
#338=VERTEX_POINT('',#984);
#339=VERTEX_POINT('',#990);
#340=VERTEX_POINT('',#992);
#341=VERTEX_POINT('',#994);
#342=VERTEX_POINT('',#996);
#343=VERTEX_POINT('',#998);
#344=VERTEX_POINT('',#1000);
#345=VERTEX_POINT('',#1002);
#346=VERTEX_POINT('',#1006);
#347=VERTEX_POINT('',#1010);
#348=VERTEX_POINT('',#1014);
#349=VERTEX_POINT('',#1018);
#350=VERTEX_POINT('',#1022);
#351=VERTEX_POINT('',#1026);
#352=VERTEX_POINT('',#1030);
#353=EDGE_CURVE('',#293,#293,#289,.T.);
#354=EDGE_CURVE('',#293,#294,#117,.T.);
#355=EDGE_CURVE('',#294,#294,#290,.T.);
#356=EDGE_CURVE('',#295,#295,#291,.T.);
#357=EDGE_CURVE('',#295,#296,#118,.T.);
#358=EDGE_CURVE('',#296,#296,#292,.T.);
#359=EDGE_CURVE('',#297,#298,#119,.T.);
#360=EDGE_CURVE('',#297,#299,#120,.T.);
#361=EDGE_CURVE('',#300,#299,#121,.T.);
#362=EDGE_CURVE('',#298,#300,#122,.T.);
#363=EDGE_CURVE('',#301,#302,#123,.T.);
#364=EDGE_CURVE('',#301,#303,#124,.T.);
#365=EDGE_CURVE('',#304,#303,#125,.T.);
#366=EDGE_CURVE('',#302,#304,#126,.T.);
#367=EDGE_CURVE('',#299,#304,#127,.T.);
#368=EDGE_CURVE('',#303,#300,#128,.T.);
#369=EDGE_CURVE('',#305,#306,#129,.T.);
#370=EDGE_CURVE('',#306,#307,#130,.T.);
#371=EDGE_CURVE('',#307,#308,#131,.T.);
#372=EDGE_CURVE('',#308,#309,#132,.T.);
#373=EDGE_CURVE('',#309,#310,#133,.T.);
#374=EDGE_CURVE('',#310,#311,#134,.T.);
#375=EDGE_CURVE('',#311,#312,#135,.T.);
#376=EDGE_CURVE('',#312,#313,#136,.T.);
#377=EDGE_CURVE('',#313,#314,#137,.T.);
#378=EDGE_CURVE('',#314,#315,#138,.T.);
#379=EDGE_CURVE('',#315,#316,#139,.T.);
#380=EDGE_CURVE('',#316,#317,#140,.T.);
#381=EDGE_CURVE('',#317,#318,#141,.T.);
#382=EDGE_CURVE('',#318,#319,#142,.T.);
#383=EDGE_CURVE('',#319,#320,#143,.T.);
#384=EDGE_CURVE('',#320,#305,#144,.T.);
#385=EDGE_CURVE('',#302,#321,#145,.T.);
#386=EDGE_CURVE('',#321,#322,#146,.T.);
#387=EDGE_CURVE('',#322,#301,#147,.T.);
#388=EDGE_CURVE('',#323,#324,#148,.T.);
#389=EDGE_CURVE('',#323,#325,#149,.T.);
#390=EDGE_CURVE('',#326,#325,#150,.T.);
#391=EDGE_CURVE('',#324,#326,#151,.T.);
#392=EDGE_CURVE('',#321,#327,#152,.T.);
#393=EDGE_CURVE('',#328,#327,#153,.T.);
#394=EDGE_CURVE('',#322,#328,#154,.T.);
#395=EDGE_CURVE('',#327,#326,#155,.T.);
#396=EDGE_CURVE('',#325,#328,#156,.T.);
#397=EDGE_CURVE('',#329,#297,#157,.T.);
#398=EDGE_CURVE('',#330,#329,#158,.T.);
#399=EDGE_CURVE('',#331,#330,#159,.T.);
#400=EDGE_CURVE('',#306,#331,#160,.T.);
#401=EDGE_CURVE('',#305,#332,#161,.T.);
#402=EDGE_CURVE('',#333,#332,#162,.T.);
#403=EDGE_CURVE('',#333,#334,#163,.T.);
#404=EDGE_CURVE('',#324,#334,#164,.T.);
#405=EDGE_CURVE('',#298,#335,#165,.T.);
#406=EDGE_CURVE('',#335,#329,#166,.T.);
#407=EDGE_CURVE('',#330,#336,#167,.T.);
#408=EDGE_CURVE('',#336,#335,#168,.T.);
#409=EDGE_CURVE('',#337,#333,#169,.T.);
#410=EDGE_CURVE('',#337,#338,#170,.T.);
#411=EDGE_CURVE('',#334,#338,#171,.T.);
#412=EDGE_CURVE('',#338,#323,#172,.T.);
#413=EDGE_CURVE('',#332,#339,#173,.T.);
#414=EDGE_CURVE('',#339,#340,#174,.T.);
#415=EDGE_CURVE('',#340,#341,#175,.T.);
#416=EDGE_CURVE('',#341,#342,#176,.T.);
#417=EDGE_CURVE('',#342,#343,#177,.T.);
#418=EDGE_CURVE('',#343,#344,#178,.T.);
#419=EDGE_CURVE('',#344,#345,#179,.T.);
#420=EDGE_CURVE('',#345,#337,#180,.T.);
#421=EDGE_CURVE('',#346,#331,#181,.T.);
#422=EDGE_CURVE('',#307,#346,#182,.T.);
#423=EDGE_CURVE('',#347,#346,#183,.T.);
#424=EDGE_CURVE('',#308,#347,#184,.T.);
#425=EDGE_CURVE('',#348,#347,#185,.T.);
#426=EDGE_CURVE('',#309,#348,#186,.T.);
#427=EDGE_CURVE('',#349,#348,#187,.T.);
#428=EDGE_CURVE('',#310,#349,#188,.T.);
#429=EDGE_CURVE('',#350,#349,#189,.T.);
#430=EDGE_CURVE('',#311,#350,#190,.T.);
#431=EDGE_CURVE('',#351,#350,#191,.T.);
#432=EDGE_CURVE('',#312,#351,#192,.T.);
#433=EDGE_CURVE('',#352,#351,#193,.T.);
#434=EDGE_CURVE('',#313,#352,#194,.T.);
#435=EDGE_CURVE('',#336,#352,#195,.T.);
#436=EDGE_CURVE('',#314,#345,#196,.T.);
#437=EDGE_CURVE('',#315,#344,#197,.T.);
#438=EDGE_CURVE('',#316,#343,#198,.T.);
#439=EDGE_CURVE('',#317,#342,#199,.T.);
#440=EDGE_CURVE('',#318,#341,#200,.T.);
#441=EDGE_CURVE('',#319,#340,#201,.T.);
#442=EDGE_CURVE('',#320,#339,#202,.T.);
#443=ORIENTED_EDGE('',*,*,#353,.F.);
#444=ORIENTED_EDGE('',*,*,#354,.T.);
#445=ORIENTED_EDGE('',*,*,#355,.F.);
#446=ORIENTED_EDGE('',*,*,#354,.F.);
#447=ORIENTED_EDGE('',*,*,#356,.F.);
#448=ORIENTED_EDGE('',*,*,#357,.T.);
#449=ORIENTED_EDGE('',*,*,#358,.F.);
#450=ORIENTED_EDGE('',*,*,#357,.F.);
#451=ORIENTED_EDGE('',*,*,#359,.F.);
#452=ORIENTED_EDGE('',*,*,#360,.T.);
#453=ORIENTED_EDGE('',*,*,#361,.F.);
#454=ORIENTED_EDGE('',*,*,#362,.F.);
#455=ORIENTED_EDGE('',*,*,#363,.F.);
#456=ORIENTED_EDGE('',*,*,#364,.T.);
#457=ORIENTED_EDGE('',*,*,#365,.F.);
#458=ORIENTED_EDGE('',*,*,#366,.F.);
#459=ORIENTED_EDGE('',*,*,#367,.T.);
#460=ORIENTED_EDGE('',*,*,#365,.T.);
#461=ORIENTED_EDGE('',*,*,#368,.T.);
#462=ORIENTED_EDGE('',*,*,#361,.T.);
#463=ORIENTED_EDGE('',*,*,#369,.T.);
#464=ORIENTED_EDGE('',*,*,#370,.T.);
#465=ORIENTED_EDGE('',*,*,#371,.T.);
#466=ORIENTED_EDGE('',*,*,#372,.T.);
#467=ORIENTED_EDGE('',*,*,#373,.T.);
#468=ORIENTED_EDGE('',*,*,#374,.T.);
#469=ORIENTED_EDGE('',*,*,#375,.T.);
#470=ORIENTED_EDGE('',*,*,#376,.T.);
#471=ORIENTED_EDGE('',*,*,#377,.T.);
#472=ORIENTED_EDGE('',*,*,#378,.T.);
#473=ORIENTED_EDGE('',*,*,#379,.T.);
#474=ORIENTED_EDGE('',*,*,#380,.T.);
#475=ORIENTED_EDGE('',*,*,#381,.T.);
#476=ORIENTED_EDGE('',*,*,#382,.T.);
#477=ORIENTED_EDGE('',*,*,#383,.T.);
#478=ORIENTED_EDGE('',*,*,#384,.T.);
#479=ORIENTED_EDGE('',*,*,#353,.T.);
#480=ORIENTED_EDGE('',*,*,#356,.T.);
#481=ORIENTED_EDGE('',*,*,#363,.T.);
#482=ORIENTED_EDGE('',*,*,#385,.T.);
#483=ORIENTED_EDGE('',*,*,#386,.T.);
#484=ORIENTED_EDGE('',*,*,#387,.T.);
#485=ORIENTED_EDGE('',*,*,#388,.F.);
#486=ORIENTED_EDGE('',*,*,#389,.T.);
#487=ORIENTED_EDGE('',*,*,#390,.F.);
#488=ORIENTED_EDGE('',*,*,#391,.F.);
#489=ORIENTED_EDGE('',*,*,#386,.F.);
#490=ORIENTED_EDGE('',*,*,#392,.T.);
#491=ORIENTED_EDGE('',*,*,#393,.F.);
#492=ORIENTED_EDGE('',*,*,#394,.F.);
#493=ORIENTED_EDGE('',*,*,#395,.T.);
#494=ORIENTED_EDGE('',*,*,#390,.T.);
#495=ORIENTED_EDGE('',*,*,#396,.T.);
#496=ORIENTED_EDGE('',*,*,#393,.T.);
#497=ORIENTED_EDGE('',*,*,#397,.F.);
#498=ORIENTED_EDGE('',*,*,#398,.F.);
#499=ORIENTED_EDGE('',*,*,#399,.F.);
#500=ORIENTED_EDGE('',*,*,#400,.F.);
#501=ORIENTED_EDGE('',*,*,#369,.F.);
#502=ORIENTED_EDGE('',*,*,#401,.T.);
#503=ORIENTED_EDGE('',*,*,#402,.F.);
#504=ORIENTED_EDGE('',*,*,#403,.T.);
#505=ORIENTED_EDGE('',*,*,#404,.F.);
#506=ORIENTED_EDGE('',*,*,#391,.T.);
#507=ORIENTED_EDGE('',*,*,#395,.F.);
#508=ORIENTED_EDGE('',*,*,#392,.F.);
#509=ORIENTED_EDGE('',*,*,#385,.F.);
#510=ORIENTED_EDGE('',*,*,#366,.T.);
#511=ORIENTED_EDGE('',*,*,#367,.F.);
#512=ORIENTED_EDGE('',*,*,#360,.F.);
#513=ORIENTED_EDGE('',*,*,#359,.T.);
#514=ORIENTED_EDGE('',*,*,#405,.T.);
#515=ORIENTED_EDGE('',*,*,#406,.T.);
#516=ORIENTED_EDGE('',*,*,#397,.T.);
#517=ORIENTED_EDGE('',*,*,#407,.F.);
#518=ORIENTED_EDGE('',*,*,#398,.T.);
#519=ORIENTED_EDGE('',*,*,#406,.F.);
#520=ORIENTED_EDGE('',*,*,#408,.F.);
#521=ORIENTED_EDGE('',*,*,#409,.F.);
#522=ORIENTED_EDGE('',*,*,#410,.T.);
#523=ORIENTED_EDGE('',*,*,#411,.F.);
#524=ORIENTED_EDGE('',*,*,#403,.F.);
#525=ORIENTED_EDGE('',*,*,#388,.T.);
#526=ORIENTED_EDGE('',*,*,#404,.T.);
#527=ORIENTED_EDGE('',*,*,#411,.T.);
#528=ORIENTED_EDGE('',*,*,#412,.T.);
#529=ORIENTED_EDGE('',*,*,#409,.T.);
#530=ORIENTED_EDGE('',*,*,#402,.T.);
#531=ORIENTED_EDGE('',*,*,#413,.T.);
#532=ORIENTED_EDGE('',*,*,#414,.T.);
#533=ORIENTED_EDGE('',*,*,#415,.T.);
#534=ORIENTED_EDGE('',*,*,#416,.T.);
#535=ORIENTED_EDGE('',*,*,#417,.T.);
#536=ORIENTED_EDGE('',*,*,#418,.T.);
#537=ORIENTED_EDGE('',*,*,#419,.T.);
#538=ORIENTED_EDGE('',*,*,#420,.T.);
#539=ORIENTED_EDGE('',*,*,#355,.T.);
#540=ORIENTED_EDGE('',*,*,#370,.F.);
#541=ORIENTED_EDGE('',*,*,#400,.T.);
#542=ORIENTED_EDGE('',*,*,#421,.F.);
#543=ORIENTED_EDGE('',*,*,#422,.F.);
#544=ORIENTED_EDGE('',*,*,#371,.F.);
#545=ORIENTED_EDGE('',*,*,#422,.T.);
#546=ORIENTED_EDGE('',*,*,#423,.F.);
#547=ORIENTED_EDGE('',*,*,#424,.F.);
#548=ORIENTED_EDGE('',*,*,#372,.F.);
#549=ORIENTED_EDGE('',*,*,#424,.T.);
#550=ORIENTED_EDGE('',*,*,#425,.F.);
#551=ORIENTED_EDGE('',*,*,#426,.F.);
#552=ORIENTED_EDGE('',*,*,#373,.F.);
#553=ORIENTED_EDGE('',*,*,#426,.T.);
#554=ORIENTED_EDGE('',*,*,#427,.F.);
#555=ORIENTED_EDGE('',*,*,#428,.F.);
#556=ORIENTED_EDGE('',*,*,#374,.F.);
#557=ORIENTED_EDGE('',*,*,#428,.T.);
#558=ORIENTED_EDGE('',*,*,#429,.F.);
#559=ORIENTED_EDGE('',*,*,#430,.F.);
#560=ORIENTED_EDGE('',*,*,#375,.F.);
#561=ORIENTED_EDGE('',*,*,#430,.T.);
#562=ORIENTED_EDGE('',*,*,#431,.F.);
#563=ORIENTED_EDGE('',*,*,#432,.F.);
#564=ORIENTED_EDGE('',*,*,#376,.F.);
#565=ORIENTED_EDGE('',*,*,#432,.T.);
#566=ORIENTED_EDGE('',*,*,#433,.F.);
#567=ORIENTED_EDGE('',*,*,#434,.F.);
#568=ORIENTED_EDGE('',*,*,#377,.F.);
#569=ORIENTED_EDGE('',*,*,#434,.T.);
#570=ORIENTED_EDGE('',*,*,#435,.F.);
#571=ORIENTED_EDGE('',*,*,#408,.T.);
#572=ORIENTED_EDGE('',*,*,#405,.F.);
#573=ORIENTED_EDGE('',*,*,#362,.T.);
#574=ORIENTED_EDGE('',*,*,#368,.F.);
#575=ORIENTED_EDGE('',*,*,#364,.F.);
#576=ORIENTED_EDGE('',*,*,#387,.F.);
#577=ORIENTED_EDGE('',*,*,#394,.T.);
#578=ORIENTED_EDGE('',*,*,#396,.F.);
#579=ORIENTED_EDGE('',*,*,#389,.F.);
#580=ORIENTED_EDGE('',*,*,#412,.F.);
#581=ORIENTED_EDGE('',*,*,#410,.F.);
#582=ORIENTED_EDGE('',*,*,#420,.F.);
#583=ORIENTED_EDGE('',*,*,#436,.F.);
#584=ORIENTED_EDGE('',*,*,#378,.F.);
#585=ORIENTED_EDGE('',*,*,#436,.T.);
#586=ORIENTED_EDGE('',*,*,#419,.F.);
#587=ORIENTED_EDGE('',*,*,#437,.F.);
#588=ORIENTED_EDGE('',*,*,#379,.F.);
#589=ORIENTED_EDGE('',*,*,#437,.T.);
#590=ORIENTED_EDGE('',*,*,#418,.F.);
#591=ORIENTED_EDGE('',*,*,#438,.F.);
#592=ORIENTED_EDGE('',*,*,#380,.F.);
#593=ORIENTED_EDGE('',*,*,#438,.T.);
#594=ORIENTED_EDGE('',*,*,#417,.F.);
#595=ORIENTED_EDGE('',*,*,#439,.F.);
#596=ORIENTED_EDGE('',*,*,#381,.F.);
#597=ORIENTED_EDGE('',*,*,#439,.T.);
#598=ORIENTED_EDGE('',*,*,#416,.F.);
#599=ORIENTED_EDGE('',*,*,#440,.F.);
#600=ORIENTED_EDGE('',*,*,#382,.F.);
#601=ORIENTED_EDGE('',*,*,#440,.T.);
#602=ORIENTED_EDGE('',*,*,#415,.F.);
#603=ORIENTED_EDGE('',*,*,#441,.F.);
#604=ORIENTED_EDGE('',*,*,#383,.F.);
#605=ORIENTED_EDGE('',*,*,#441,.T.);
#606=ORIENTED_EDGE('',*,*,#414,.F.);
#607=ORIENTED_EDGE('',*,*,#442,.F.);
#608=ORIENTED_EDGE('',*,*,#384,.F.);
#609=ORIENTED_EDGE('',*,*,#442,.T.);
#610=ORIENTED_EDGE('',*,*,#413,.F.);
#611=ORIENTED_EDGE('',*,*,#401,.F.);
#612=ORIENTED_EDGE('',*,*,#407,.T.);
#613=ORIENTED_EDGE('',*,*,#435,.T.);
#614=ORIENTED_EDGE('',*,*,#433,.T.);
#615=ORIENTED_EDGE('',*,*,#431,.T.);
#616=ORIENTED_EDGE('',*,*,#429,.T.);
#617=ORIENTED_EDGE('',*,*,#427,.T.);
#618=ORIENTED_EDGE('',*,*,#425,.T.);
#619=ORIENTED_EDGE('',*,*,#423,.T.);
#620=ORIENTED_EDGE('',*,*,#421,.T.);
#621=ORIENTED_EDGE('',*,*,#399,.T.);
#622=ORIENTED_EDGE('',*,*,#358,.T.);
#623=CYLINDRICAL_SURFACE('',#671,0.33);
#624=CYLINDRICAL_SURFACE('',#674,0.33);
#625=ADVANCED_FACE('',(#49),#623,.F.);
#626=ADVANCED_FACE('',(#50),#624,.F.);
#627=ADVANCED_FACE('',(#51),#19,.T.);
#628=ADVANCED_FACE('',(#52),#20,.T.);
#629=ADVANCED_FACE('',(#53),#21,.T.);
#630=ADVANCED_FACE('',(#54,#15,#16),#22,.T.);
#631=ADVANCED_FACE('',(#55),#23,.T.);
#632=ADVANCED_FACE('',(#56),#24,.T.);
#633=ADVANCED_FACE('',(#57),#25,.T.);
#634=ADVANCED_FACE('',(#58),#26,.T.);
#635=ADVANCED_FACE('',(#59),#27,.T.);
#636=ADVANCED_FACE('',(#60),#28,.T.);
#637=ADVANCED_FACE('',(#61),#29,.T.);
#638=ADVANCED_FACE('',(#62),#30,.T.);
#639=ADVANCED_FACE('',(#63),#31,.T.);
#640=ADVANCED_FACE('',(#64,#17),#32,.T.);
#641=ADVANCED_FACE('',(#65),#33,.T.);
#642=ADVANCED_FACE('',(#66),#34,.T.);
#643=ADVANCED_FACE('',(#67),#35,.T.);
#644=ADVANCED_FACE('',(#68),#36,.T.);
#645=ADVANCED_FACE('',(#69),#37,.T.);
#646=ADVANCED_FACE('',(#70),#38,.T.);
#647=ADVANCED_FACE('',(#71),#39,.T.);
#648=ADVANCED_FACE('',(#72),#40,.T.);
#649=ADVANCED_FACE('',(#73),#41,.T.);
#650=ADVANCED_FACE('',(#74),#42,.T.);
#651=ADVANCED_FACE('',(#75),#43,.T.);
#652=ADVANCED_FACE('',(#76),#44,.T.);
#653=ADVANCED_FACE('',(#77),#45,.T.);
#654=ADVANCED_FACE('',(#78),#46,.T.);
#655=ADVANCED_FACE('',(#79),#47,.T.);
#656=ADVANCED_FACE('',(#80,#18),#48,.T.);
#657=CLOSED_SHELL('',(#625,#626,#627,#628,#629,#630,#631,#632,#633,#634,
#635,#636,#637,#638,#639,#640,#641,#642,#643,#644,#645,#646,#647,#648,#649,
#650,#651,#652,#653,#654,#655,#656));
#658=DERIVED_UNIT_ELEMENT(#660,1.);
#659=DERIVED_UNIT_ELEMENT(#1055,-3.);
#660=(
MASS_UNIT()
NAMED_UNIT(*)
SI_UNIT(.KILO.,.GRAM.)
);
#661=DERIVED_UNIT((#658,#659));
#662=MEASURE_REPRESENTATION_ITEM('density measure',
POSITIVE_RATIO_MEASURE(2700.),#661);
#663=PROPERTY_DEFINITION_REPRESENTATION(#668,#665);
#664=PROPERTY_DEFINITION_REPRESENTATION(#669,#666);
#665=REPRESENTATION('material name',(#667),#1052);
#666=REPRESENTATION('density',(#662),#1052);
#667=DESCRIPTIVE_REPRESENTATION_ITEM('Aluminum 6061','Aluminum 6061');
#668=PROPERTY_DEFINITION('material property','material name',#1062);
#669=PROPERTY_DEFINITION('material property','density of part',#1062);
#670=AXIS2_PLACEMENT_3D('',#867,#707,#708);
#671=AXIS2_PLACEMENT_3D('',#868,#709,#710);
#672=AXIS2_PLACEMENT_3D('',#870,#711,#712);
#673=AXIS2_PLACEMENT_3D('',#873,#714,#715);
#674=AXIS2_PLACEMENT_3D('',#874,#716,#717);
#675=AXIS2_PLACEMENT_3D('',#876,#718,#719);
#676=AXIS2_PLACEMENT_3D('',#879,#721,#722);
#677=AXIS2_PLACEMENT_3D('',#880,#723,#724);
#678=AXIS2_PLACEMENT_3D('',#889,#729,#730);
#679=AXIS2_PLACEMENT_3D('',#898,#735,#736);
#680=AXIS2_PLACEMENT_3D('',#901,#739,#740);
#681=AXIS2_PLACEMENT_3D('',#934,#757,#758);
#682=AXIS2_PLACEMENT_3D('',#940,#762,#763);
#683=AXIS2_PLACEMENT_3D('',#949,#768,#769);
#684=AXIS2_PLACEMENT_3D('',#955,#773,#774);
#685=AXIS2_PLACEMENT_3D('',#958,#777,#778);
#686=AXIS2_PLACEMENT_3D('',#973,#787,#788);
#687=AXIS2_PLACEMENT_3D('',#977,#791,#792);
#688=AXIS2_PLACEMENT_3D('',#981,#795,#796);
#689=AXIS2_PLACEMENT_3D('',#987,#800,#801);
#690=AXIS2_PLACEMENT_3D('',#989,#803,#804);
#691=AXIS2_PLACEMENT_3D('',#1005,#813,#814);
#692=AXIS2_PLACEMENT_3D('',#1009,#817,#818);
#693=AXIS2_PLACEMENT_3D('',#1013,#821,#822);
#694=AXIS2_PLACEMENT_3D('',#1017,#825,#826);
#695=AXIS2_PLACEMENT_3D('',#1021,#829,#830);
#696=AXIS2_PLACEMENT_3D('',#1025,#833,#834);
#697=AXIS2_PLACEMENT_3D('',#1029,#837,#838);
#698=AXIS2_PLACEMENT_3D('',#1033,#841,#842);
#699=AXIS2_PLACEMENT_3D('',#1036,#845,#846);
#700=AXIS2_PLACEMENT_3D('',#1038,#848,#849);
#701=AXIS2_PLACEMENT_3D('',#1040,#851,#852);
#702=AXIS2_PLACEMENT_3D('',#1042,#854,#855);
#703=AXIS2_PLACEMENT_3D('',#1044,#857,#858);
#704=AXIS2_PLACEMENT_3D('',#1046,#860,#861);
#705=AXIS2_PLACEMENT_3D('',#1048,#863,#864);
#706=AXIS2_PLACEMENT_3D('',#1049,#865,#866);
#707=DIRECTION('axis',(0.,0.,1.));
#708=DIRECTION('refdir',(1.,0.,0.));
#709=DIRECTION('center_axis',(0.,0.,-1.));
#710=DIRECTION('ref_axis',(1.,0.,0.));
#711=DIRECTION('center_axis',(0.,0.,-1.));
#712=DIRECTION('ref_axis',(1.,0.,0.));
#713=DIRECTION('',(0.,0.,-1.));
#714=DIRECTION('center_axis',(0.,0.,1.));
#715=DIRECTION('ref_axis',(1.,0.,0.));
#716=DIRECTION('center_axis',(0.,0.,-1.));
#717=DIRECTION('ref_axis',(1.,0.,0.));
#718=DIRECTION('center_axis',(0.,0.,-1.));
#719=DIRECTION('ref_axis',(1.,0.,0.));
#720=DIRECTION('',(0.,0.,-1.));
#721=DIRECTION('center_axis',(0.,0.,1.));
#722=DIRECTION('ref_axis',(1.,0.,0.));
#723=DIRECTION('center_axis',(0.,-1.,0.));
#724=DIRECTION('ref_axis',(-1.,0.,0.));
#725=DIRECTION('',(1.,0.,0.));
#726=DIRECTION('',(0.,0.,-1.));
#727=DIRECTION('',(-1.,0.,0.));
#728=DIRECTION('',(0.,0.,-1.));
#729=DIRECTION('center_axis',(0.,1.,0.));
#730=DIRECTION('ref_axis',(1.,0.,0.));
#731=DIRECTION('',(-1.,0.,0.));
#732=DIRECTION('',(0.,0.,-1.));
#733=DIRECTION('',(1.,0.,0.));
#734=DIRECTION('',(0.,0.,-1.));
#735=DIRECTION('center_axis',(0.,0.,-1.));
#736=DIRECTION('ref_axis',(-1.,0.,0.));
#737=DIRECTION('',(0.,1.,0.));
#738=DIRECTION('',(0.,-1.,0.));
#739=DIRECTION('center_axis',(0.,0.,1.));
#740=DIRECTION('ref_axis',(1.,0.,0.));
#741=DIRECTION('',(0.,-1.,0.));
#742=DIRECTION('',(1.,0.,0.));
#743=DIRECTION('',(0.,-1.,0.));
#744=DIRECTION('',(1.,0.,0.));
#745=DIRECTION('',(0.,1.,0.));
#746=DIRECTION('',(-1.,0.,0.));
#747=DIRECTION('',(0.,-1.,0.));
#748=DIRECTION('',(-1.,0.,0.));
#749=DIRECTION('',(0.,1.,0.));
#750=DIRECTION('',(1.,0.,0.));
#751=DIRECTION('',(0.,-1.,0.));
#752=DIRECTION('',(1.,0.,0.));
#753=DIRECTION('',(0.,1.,0.));
#754=DIRECTION('',(-1.,0.,0.));
#755=DIRECTION('',(0.,-1.,0.));
#756=DIRECTION('',(-1.,0.,0.));
#757=DIRECTION('center_axis',(0.,0.,-1.));
#758=DIRECTION('ref_axis',(-1.,0.,0.));
#759=DIRECTION('',(0.,1.,0.));
#760=DIRECTION('',(1.,0.,0.));
#761=DIRECTION('',(0.,-1.,0.));
#762=DIRECTION('center_axis',(0.,1.,0.));
#763=DIRECTION('ref_axis',(1.,0.,0.));
#764=DIRECTION('',(-1.,0.,0.));
#765=DIRECTION('',(0.,0.,-1.));
#766=DIRECTION('',(1.,0.,0.));
#767=DIRECTION('',(0.,0.,-1.));
#768=DIRECTION('center_axis',(0.,-1.,0.));
#769=DIRECTION('ref_axis',(-1.,0.,0.));
#770=DIRECTION('',(0.,0.,-1.));
#771=DIRECTION('',(-1.,0.,0.));
#772=DIRECTION('',(0.,0.,-1.));
#773=DIRECTION('center_axis',(0.,0.,-1.));
#774=DIRECTION('ref_axis',(-1.,0.,0.));
#775=DIRECTION('',(0.,1.,0.));
#776=DIRECTION('',(0.,-1.,0.));
#777=DIRECTION('center_axis',(-1.,0.,0.));
#778=DIRECTION('ref_axis',(0.,1.,0.));
#779=DIRECTION('',(0.,1.,0.));
#780=DIRECTION('',(0.,0.,-1.));
#781=DIRECTION('',(0.,1.,0.));
#782=DIRECTION('',(0.,0.,-1.));
#783=DIRECTION('',(0.,0.,-1.));
#784=DIRECTION('',(0.,1.,0.));
#785=DIRECTION('',(0.,0.,-1.));
#786=DIRECTION('',(0.,1.,0.));
#787=DIRECTION('center_axis',(0.,0.,-1.));
#788=DIRECTION('ref_axis',(-1.,0.,0.));
#789=DIRECTION('',(0.,-1.,0.));
#790=DIRECTION('',(-1.,0.,0.));
#791=DIRECTION('center_axis',(0.,-1.,0.));
#792=DIRECTION('ref_axis',(-1.,0.,0.));
#793=DIRECTION('',(1.,0.,0.));
#794=DIRECTION('',(0.,0.,-1.));
#795=DIRECTION('center_axis',(0.,1.,0.));
#796=DIRECTION('ref_axis',(1.,0.,0.));
#797=DIRECTION('',(-1.,0.,0.));
#798=DIRECTION('',(0.,0.,-1.));
#799=DIRECTION('',(1.,0.,0.));
#800=DIRECTION('center_axis',(0.,0.,-1.));
#801=DIRECTION('ref_axis',(-1.,0.,0.));
#802=DIRECTION('',(0.,-1.,0.));
#803=DIRECTION('center_axis',(0.,0.,-1.));
#804=DIRECTION('ref_axis',(-1.,0.,0.));
#805=DIRECTION('',(1.,0.,0.));
#806=DIRECTION('',(0.,1.,0.));
#807=DIRECTION('',(1.,0.,0.));
#808=DIRECTION('',(0.,-1.,0.));
#809=DIRECTION('',(-1.,0.,0.));
#810=DIRECTION('',(0.,1.,0.));
#811=DIRECTION('',(-1.,0.,0.));
#812=DIRECTION('',(0.,-1.,0.));
#813=DIRECTION('center_axis',(0.,-1.,0.));
#814=DIRECTION('ref_axis',(-1.,0.,0.));
#815=DIRECTION('',(-1.,0.,0.));
#816=DIRECTION('',(0.,0.,-1.));
#817=DIRECTION('center_axis',(-1.,0.,0.));
#818=DIRECTION('ref_axis',(0.,1.,0.));
#819=DIRECTION('',(0.,1.,0.));
#820=DIRECTION('',(0.,0.,-1.));
#821=DIRECTION('center_axis',(0.,-1.,0.));
#822=DIRECTION('ref_axis',(-1.,0.,0.));
#823=DIRECTION('',(-1.,0.,0.));
#824=DIRECTION('',(0.,0.,-1.));
#825=DIRECTION('center_axis',(1.,0.,0.));
#826=DIRECTION('ref_axis',(0.,-1.,0.));
#827=DIRECTION('',(0.,-1.,0.));
#828=DIRECTION('',(0.,0.,-1.));
#829=DIRECTION('center_axis',(0.,1.,0.));
#830=DIRECTION('ref_axis',(1.,0.,0.));
#831=DIRECTION('',(1.,0.,0.));
#832=DIRECTION('',(0.,0.,-1.));
#833=DIRECTION('center_axis',(-1.,0.,0.));
#834=DIRECTION('ref_axis',(0.,1.,0.));
#835=DIRECTION('',(0.,1.,0.));
#836=DIRECTION('',(0.,0.,-1.));
#837=DIRECTION('center_axis',(0.,1.,0.));
#838=DIRECTION('ref_axis',(1.,0.,0.));
#839=DIRECTION('',(1.,0.,0.));
#840=DIRECTION('',(0.,0.,-1.));
#841=DIRECTION('center_axis',(1.,0.,0.));
#842=DIRECTION('ref_axis',(0.,-1.,0.));
#843=DIRECTION('',(0.,-1.,0.));
#844=DIRECTION('',(0.,0.,-1.));
#845=DIRECTION('center_axis',(0.,-1.,0.));
#846=DIRECTION('ref_axis',(-1.,0.,0.));
#847=DIRECTION('',(0.,0.,-1.));
#848=DIRECTION('center_axis',(-1.,0.,0.));
#849=DIRECTION('ref_axis',(0.,1.,0.));
#850=DIRECTION('',(0.,0.,-1.));
#851=DIRECTION('center_axis',(0.,-1.,0.));
#852=DIRECTION('ref_axis',(-1.,0.,0.));
#853=DIRECTION('',(0.,0.,-1.));
#854=DIRECTION('center_axis',(1.,0.,0.));
#855=DIRECTION('ref_axis',(0.,-1.,0.));
#856=DIRECTION('',(0.,0.,-1.));
#857=DIRECTION('center_axis',(0.,1.,0.));
#858=DIRECTION('ref_axis',(1.,0.,0.));
#859=DIRECTION('',(0.,0.,-1.));
#860=DIRECTION('center_axis',(-1.,0.,0.));
#861=DIRECTION('ref_axis',(0.,1.,0.));
#862=DIRECTION('',(0.,0.,-1.));
#863=DIRECTION('center_axis',(0.,1.,0.));
#864=DIRECTION('ref_axis',(1.,0.,0.));
#865=DIRECTION('center_axis',(0.,0.,-1.));
#866=DIRECTION('ref_axis',(-1.,0.,0.));
#867=CARTESIAN_POINT('',(0.,0.,0.));
#868=CARTESIAN_POINT('Origin',(14.3445713,4.3855756,0.));
#869=CARTESIAN_POINT('',(14.0145713,4.3855756,0.));
#870=CARTESIAN_POINT('Origin',(14.3445713,4.3855756,0.));
#871=CARTESIAN_POINT('',(14.0145713,4.3855756,-0.5));
#872=CARTESIAN_POINT('',(14.0145713,4.3855756,0.));
#873=CARTESIAN_POINT('Origin',(14.3445713,4.3855756,-0.5));
#874=CARTESIAN_POINT('Origin',(14.3445713,-4.3855756,0.));
#875=CARTESIAN_POINT('',(14.0145713,-4.3855756,0.));
#876=CARTESIAN_POINT('Origin',(14.3445713,-4.3855756,0.));
#877=CARTESIAN_POINT('',(14.0145713,-4.3855756,-0.5));
#878=CARTESIAN_POINT('',(14.0145713,-4.3855756,0.));
#879=CARTESIAN_POINT('Origin',(14.3445713,-4.3855756,-0.5));
#880=CARTESIAN_POINT('Origin',(7.6,-3.025,0.));
#881=CARTESIAN_POINT('',(6.8,-3.025,-1.175));
#882=CARTESIAN_POINT('',(7.6,-3.025,-1.175));
#883=CARTESIAN_POINT('',(7.4,-3.025,-1.175));
#884=CARTESIAN_POINT('',(6.8,-3.025,-1.2));
#885=CARTESIAN_POINT('',(6.8,-3.025,0.));
#886=CARTESIAN_POINT('',(7.6,-3.025,-1.2));
#887=CARTESIAN_POINT('',(6.8,-3.025,-1.2));
#888=CARTESIAN_POINT('',(7.6,-3.025,0.));
#889=CARTESIAN_POINT('Origin',(6.8,-2.525,0.));
#890=CARTESIAN_POINT('',(7.6,-2.525,-1.175));
#891=CARTESIAN_POINT('',(6.8,-2.525,-1.175));
#892=CARTESIAN_POINT('',(7.,-2.525,-1.175));
#893=CARTESIAN_POINT('',(7.6,-2.525,-1.2));
#894=CARTESIAN_POINT('',(7.6,-2.525,0.));
#895=CARTESIAN_POINT('',(6.8,-2.525,-1.2));
#896=CARTESIAN_POINT('',(7.6,-2.525,-1.2));
#897=CARTESIAN_POINT('',(6.8,-2.525,0.));
#898=CARTESIAN_POINT('Origin',(7.2,-2.775,-1.2));
#899=CARTESIAN_POINT('',(6.8,-2.525,-1.2));
#900=CARTESIAN_POINT('',(7.6,-3.025,-1.2));
#901=CARTESIAN_POINT('Origin',(11.022285,0.,0.));
#902=CARTESIAN_POINT('',(6.8,4.88558,0.));
#903=CARTESIAN_POINT('',(6.8,-4.88558,0.));
#904=CARTESIAN_POINT('',(6.8,4.88558,0.));
#905=CARTESIAN_POINT('',(13.44457,-4.88558,0.));
#906=CARTESIAN_POINT('',(6.8,-4.88558,0.));
#907=CARTESIAN_POINT('',(13.44457,-5.28558,0.));
#908=CARTESIAN_POINT('',(13.44457,-4.88558,0.));
#909=CARTESIAN_POINT('',(15.24457,-5.28558,0.));
#910=CARTESIAN_POINT('',(13.44457,-5.28558,0.));
#911=CARTESIAN_POINT('',(15.24457,-3.48558,0.));
#912=CARTESIAN_POINT('',(15.24457,-5.28558,0.));
#913=CARTESIAN_POINT('',(13.44457,-3.48558,0.));
#914=CARTESIAN_POINT('',(15.24457,-3.48558,0.));
#915=CARTESIAN_POINT('',(13.44457,-3.88558,0.));
#916=CARTESIAN_POINT('',(13.44457,-3.48558,0.));
#917=CARTESIAN_POINT('',(7.6,-3.88558,0.));
#918=CARTESIAN_POINT('',(13.44457,-3.88558,0.));
#919=CARTESIAN_POINT('',(7.6,3.88558,0.));
#920=CARTESIAN_POINT('',(7.6,-3.88558,0.));
#921=CARTESIAN_POINT('',(13.44457,3.88558,0.));
#922=CARTESIAN_POINT('',(7.6,3.88558,0.));
#923=CARTESIAN_POINT('',(13.44457,3.48558,0.));
#924=CARTESIAN_POINT('',(13.44457,3.88558,0.));
#925=CARTESIAN_POINT('',(15.24457,3.48558,0.));
#926=CARTESIAN_POINT('',(13.44457,3.48558,0.));
#927=CARTESIAN_POINT('',(15.24457,5.28558,0.));
#928=CARTESIAN_POINT('',(15.24457,3.48558,0.));
#929=CARTESIAN_POINT('',(13.44457,5.28558,0.));
#930=CARTESIAN_POINT('',(15.24457,5.28558,0.));
#931=CARTESIAN_POINT('',(13.44457,4.88558,0.));
#932=CARTESIAN_POINT('',(13.44457,5.28558,0.));
#933=CARTESIAN_POINT('',(13.44457,4.88558,0.));
#934=CARTESIAN_POINT('Origin',(7.2,0.,-1.175));
#935=CARTESIAN_POINT('',(6.8,2.525,-1.175));
#936=CARTESIAN_POINT('',(6.8,3.1,-1.175));
#937=CARTESIAN_POINT('',(7.6,2.525,-1.175));
#938=CARTESIAN_POINT('',(7.4,2.525,-1.175));
#939=CARTESIAN_POINT('',(7.6,-3.1,-1.175));
#940=CARTESIAN_POINT('Origin',(6.8,3.025,0.));
#941=CARTESIAN_POINT('',(7.6,3.025,-1.175));
#942=CARTESIAN_POINT('',(6.8,3.025,-1.175));
#943=CARTESIAN_POINT('',(7.,3.025,-1.175));
#944=CARTESIAN_POINT('',(7.6,3.025,-1.2));
#945=CARTESIAN_POINT('',(7.6,3.025,0.));
#946=CARTESIAN_POINT('',(6.8,3.025,-1.2));
#947=CARTESIAN_POINT('',(7.6,3.025,-1.2));
#948=CARTESIAN_POINT('',(6.8,3.025,0.));
#949=CARTESIAN_POINT('Origin',(7.6,2.525,0.));
#950=CARTESIAN_POINT('',(6.8,2.525,-1.2));
#951=CARTESIAN_POINT('',(6.8,2.525,0.));
#952=CARTESIAN_POINT('',(7.6,2.525,-1.2));
#953=CARTESIAN_POINT('',(6.8,2.525,-1.2));
#954=CARTESIAN_POINT('',(7.6,2.525,0.));
#955=CARTESIAN_POINT('Origin',(7.2,2.775,-1.2));
#956=CARTESIAN_POINT('',(6.8,3.025,-1.2));
#957=CARTESIAN_POINT('',(7.6,2.525,-1.2));
#958=CARTESIAN_POINT('Origin',(6.8,-4.88558,0.));
#959=CARTESIAN_POINT('',(6.8,-3.1,-1.175));
#960=CARTESIAN_POINT('',(6.8,3.1,-1.175));
#961=CARTESIAN_POINT('',(6.8,-3.1,-0.5));
#962=CARTESIAN_POINT('',(6.8,-3.1,0.));
#963=CARTESIAN_POINT('',(6.8,-4.88558,-0.5));
#964=CARTESIAN_POINT('',(6.8,4.88558,-0.5));
#965=CARTESIAN_POINT('',(6.8,-4.88558,0.));
#966=CARTESIAN_POINT('',(6.8,4.88558,-0.5));
#967=CARTESIAN_POINT('',(6.8,4.88558,0.));
#968=CARTESIAN_POINT('',(6.8,3.1,-0.5));
#969=CARTESIAN_POINT('',(6.8,4.88558,-0.5));
#970=CARTESIAN_POINT('',(6.8,3.1,-1.175));
#971=CARTESIAN_POINT('',(6.8,3.1,0.));
#972=CARTESIAN_POINT('',(6.8,3.1,-1.175));
#973=CARTESIAN_POINT('Origin',(7.2,0.,-1.175));
#974=CARTESIAN_POINT('',(7.6,-3.1,-1.175));
#975=CARTESIAN_POINT('',(7.6,-3.1,-1.175));
#976=CARTESIAN_POINT('',(6.8,-3.1,-1.175));
#977=CARTESIAN_POINT('Origin',(7.6,-3.1,0.));
#978=CARTESIAN_POINT('',(7.6,-3.1,-0.5));
#979=CARTESIAN_POINT('',(9.3111425,-3.1,-0.5));
#980=CARTESIAN_POINT('',(7.6,-3.1,0.));
#981=CARTESIAN_POINT('Origin',(6.8,3.1,0.));
#982=CARTESIAN_POINT('',(7.6,3.1,-0.5));
#983=CARTESIAN_POINT('',(8.9111425,3.1,-0.5));
#984=CARTESIAN_POINT('',(7.6,3.1,-1.175));
#985=CARTESIAN_POINT('',(7.6,3.1,0.));
#986=CARTESIAN_POINT('',(7.6,3.1,-1.175));
#987=CARTESIAN_POINT('Origin',(7.2,0.,-1.175));
#988=CARTESIAN_POINT('',(7.6,-3.1,-1.175));
#989=CARTESIAN_POINT('Origin',(11.022285,0.,-0.5));
#990=CARTESIAN_POINT('',(13.44457,4.88558,-0.5));
#991=CARTESIAN_POINT('',(13.44457,4.88558,-0.5));
#992=CARTESIAN_POINT('',(13.44457,5.28558,-0.5));
#993=CARTESIAN_POINT('',(13.44457,5.28558,-0.5));
#994=CARTESIAN_POINT('',(15.24457,5.28558,-0.5));
#995=CARTESIAN_POINT('',(15.24457,5.28558,-0.5));
#996=CARTESIAN_POINT('',(15.24457,3.48558,-0.5));
#997=CARTESIAN_POINT('',(15.24457,3.48558,-0.5));
#998=CARTESIAN_POINT('',(13.44457,3.48558,-0.5));
#999=CARTESIAN_POINT('',(13.44457,3.48558,-0.5));
#1000=CARTESIAN_POINT('',(13.44457,3.88558,-0.5));
#1001=CARTESIAN_POINT('',(13.44457,3.88558,-0.5));
#1002=CARTESIAN_POINT('',(7.6,3.88558,-0.5));
#1003=CARTESIAN_POINT('',(7.6,3.88558,-0.5));
#1004=CARTESIAN_POINT('',(7.6,-3.88558,-0.5));
#1005=CARTESIAN_POINT('Origin',(13.44457,-4.88558,0.));
#1006=CARTESIAN_POINT('',(13.44457,-4.88558,-0.5));
#1007=CARTESIAN_POINT('',(6.8,-4.88558,-0.5));
#1008=CARTESIAN_POINT('',(13.44457,-4.88558,0.));
#1009=CARTESIAN_POINT('Origin',(13.44457,-5.28558,0.));
#1010=CARTESIAN_POINT('',(13.44457,-5.28558,-0.5));
#1011=CARTESIAN_POINT('',(13.44457,-4.88558,-0.5));
#1012=CARTESIAN_POINT('',(13.44457,-5.28558,0.));
#1013=CARTESIAN_POINT('Origin',(15.24457,-5.28558,0.));
#1014=CARTESIAN_POINT('',(15.24457,-5.28558,-0.5));
#1015=CARTESIAN_POINT('',(13.44457,-5.28558,-0.5));
#1016=CARTESIAN_POINT('',(15.24457,-5.28558,0.));
#1017=CARTESIAN_POINT('Origin',(15.24457,-3.48558,0.));
#1018=CARTESIAN_POINT('',(15.24457,-3.48558,-0.5));
#1019=CARTESIAN_POINT('',(15.24457,-5.28558,-0.5));
#1020=CARTESIAN_POINT('',(15.24457,-3.48558,0.));
#1021=CARTESIAN_POINT('Origin',(13.44457,-3.48558,0.));
#1022=CARTESIAN_POINT('',(13.44457,-3.48558,-0.5));
#1023=CARTESIAN_POINT('',(15.24457,-3.48558,-0.5));
#1024=CARTESIAN_POINT('',(13.44457,-3.48558,0.));
#1025=CARTESIAN_POINT('Origin',(13.44457,-3.88558,0.));
#1026=CARTESIAN_POINT('',(13.44457,-3.88558,-0.5));
#1027=CARTESIAN_POINT('',(13.44457,-3.48558,-0.5));
#1028=CARTESIAN_POINT('',(13.44457,-3.88558,0.));
#1029=CARTESIAN_POINT('Origin',(7.6,-3.88558,0.));
#1030=CARTESIAN_POINT('',(7.6,-3.88558,-0.5));
#1031=CARTESIAN_POINT('',(13.44457,-3.88558,-0.5));
#1032=CARTESIAN_POINT('',(7.6,-3.88558,0.));
#1033=CARTESIAN_POINT('Origin',(7.6,3.88558,0.));
#1034=CARTESIAN_POINT('',(7.6,-3.88558,-0.5));
#1035=CARTESIAN_POINT('',(7.6,3.88558,0.));
#1036=CARTESIAN_POINT('Origin',(13.44457,3.88558,0.));
#1037=CARTESIAN_POINT('',(13.44457,3.88558,0.));
#1038=CARTESIAN_POINT('Origin',(13.44457,3.48558,0.));
#1039=CARTESIAN_POINT('',(13.44457,3.48558,0.));
#1040=CARTESIAN_POINT('Origin',(15.24457,3.48558,0.));
#1041=CARTESIAN_POINT('',(15.24457,3.48558,0.));
#1042=CARTESIAN_POINT('Origin',(15.24457,5.28558,0.));
#1043=CARTESIAN_POINT('',(15.24457,5.28558,0.));
#1044=CARTESIAN_POINT('Origin',(13.44457,5.28558,0.));
#1045=CARTESIAN_POINT('',(13.44457,5.28558,0.));
#1046=CARTESIAN_POINT('Origin',(13.44457,4.88558,0.));
#1047=CARTESIAN_POINT('',(13.44457,4.88558,0.));
#1048=CARTESIAN_POINT('Origin',(6.8,4.88558,0.));
#1049=CARTESIAN_POINT('Origin',(11.022285,0.,-0.5));
#1050=UNCERTAINTY_MEASURE_WITH_UNIT(LENGTH_MEASURE(0.001),#1054,
'DISTANCE_ACCURACY_VALUE',
'Maximum model space distance between geometric entities at asserted c
onnectivities');
#1051=UNCERTAINTY_MEASURE_WITH_UNIT(LENGTH_MEASURE(0.001),#1054,
'DISTANCE_ACCURACY_VALUE',
'Maximum model space distance between geometric entities at asserted c
onnectivities');
#1052=(
GEOMETRIC_REPRESENTATION_CONTEXT(3)
GLOBAL_UNCERTAINTY_ASSIGNED_CONTEXT((#1050))
GLOBAL_UNIT_ASSIGNED_CONTEXT((#1054,#1056,#1057))
REPRESENTATION_CONTEXT('','3D')
);
#1053=(
GEOMETRIC_REPRESENTATION_CONTEXT(3)
GLOBAL_UNCERTAINTY_ASSIGNED_CONTEXT((#1051))
GLOBAL_UNIT_ASSIGNED_CONTEXT((#1054,#1056,#1057))
REPRESENTATION_CONTEXT('','3D')
);
#1054=(
LENGTH_UNIT()
NAMED_UNIT(*)
SI_UNIT(.CENTI.,.METRE.)
);
#1055=(
LENGTH_UNIT()
NAMED_UNIT(*)
SI_UNIT($,.METRE.)
);
#1056=(
NAMED_UNIT(*)
PLANE_ANGLE_UNIT()
SI_UNIT($,.RADIAN.)
);
#1057=(
NAMED_UNIT(*)
SI_UNIT($,.STERADIAN.)
SOLID_ANGLE_UNIT()
);
#1058=SHAPE_DEFINITION_REPRESENTATION(#1059,#1060);
#1059=PRODUCT_DEFINITION_SHAPE('',$,#1062);
#1060=SHAPE_REPRESENTATION('',(#670),#1052);
#1061=PRODUCT_DEFINITION_CONTEXT('part definition',#1066,'design');
#1062=PRODUCT_DEFINITION('SEWCP-902_SADDLE','SEWCP-902_SADDLE v1',#1063,
#1061);
#1063=PRODUCT_DEFINITION_FORMATION('',$,#1068);
#1064=PRODUCT_RELATED_PRODUCT_CATEGORY('SEWCP-902_SADDLE v1',
'SEWCP-902_SADDLE v1',(#1068));
#1065=APPLICATION_PROTOCOL_DEFINITION('international standard',
'automotive_design',2009,#1066);
#1066=APPLICATION_CONTEXT(
'Core Data for Automotive Mechanical Design Process');
#1067=PRODUCT_CONTEXT('part definition',#1066,'mechanical');
#1068=PRODUCT('SEWCP-902_SADDLE','SEWCP-902_SADDLE v1',$,(#1067));
#1069=PRESENTATION_STYLE_ASSIGNMENT((#1070));
#1070=SURFACE_STYLE_USAGE(.BOTH.,#1071);
#1071=SURFACE_SIDE_STYLE('',(#1072));
#1072=SURFACE_STYLE_FILL_AREA(#1073);
#1073=FILL_AREA_STYLE('Aluminum - Satin',(#1074));
#1074=FILL_AREA_STYLE_COLOUR('Aluminum - Satin',#1075);
#1075=COLOUR_RGB('Aluminum - Satin',0.96078431372549,0.96078431372549,0.964705882352941);
ENDSEC;
END-ISO-10303-21;
